<svg transform="scale(1)" version="1.1" id="_x30_116_x5F_Hiring_x5F_4" xmlns="http://www.w3.org/2000/svg" xmlns:xlink="http://www.w3.org/1999/xlink" x="0px" y="0px" viewBox="0 0 500 500" xml:space="preserve" class="show_show__wrapper__graphic__5Waiy "><title>React</title><style type="text/css">
	.st0{fill:#FFFFFF;}
	.st1{fill:#732A09;}
	.st2{fill:#F75454;}
	.st3{fill:none;}
</style><g id="candidate-2"><path class="st0" d="M343.8,112.2h95.1c3.6,0,6.4,2.9,6.4,6.4v102.1c0,3.6-2.9,6.4-6.4,6.4h-95.1c-3.6,0-6.4-2.9-6.4-6.4V118.7
		C337.3,115.1,340.2,112.2,343.8,112.2z"></path><path class="st1" d="M438.9,227.7h-95.1c-3.8,0-6.9-3.1-6.9-6.9l0,0V118.7c0-3.8,3.1-6.9,6.9-6.9l0,0h95.1c3.8,0,6.9,3.1,6.9,6.9
		c0,0,0,0,0,0v102.1C445.8,224.6,442.7,227.7,438.9,227.7L438.9,227.7z M343.8,112.7c-3.3,0-5.9,2.7-5.9,5.9v102.1
		c0,3.3,2.7,5.9,5.9,5.9l0,0h95.1c3.3,0,5.9-2.7,5.9-5.9l0,0V118.7c0-3.3-2.7-5.9-5.9-5.9L343.8,112.7z"></path><path class="st1" d="M396.1,193.4h-44.3c-0.3,0-0.5-0.2-0.5-0.5s0.2-0.5,0.5-0.5h44.3c0.3,0,0.5,0.2,0.5,0.5
		S396.4,193.4,396.1,193.4z"></path><path class="st1" d="M427.1,206.4h-75.4c-0.3,0-0.5-0.2-0.5-0.5c0-0.3,0.2-0.5,0.5-0.5h75.4c0.3,0,0.5,0.2,0.5,0.5
		S427.4,206.4,427.1,206.4z"></path><path class="st2" d="M428.8,183h-58.5c0-0.1,0.1-0.3,0.1-0.4c1.6-7.3,4.6-16.7,10.7-22.8c0.1-0.1,0.3-0.3,0.4-0.4
		c0.1-0.1,0.3-0.3,0.5-0.4c2.9-2.7,6.6-4.5,10.5-5.2l0.3-0.1c0.1,0,0.2,0,0.3,0c0.3-0.1,0.6-0.1,0.9-0.1c2.4,0,4.7,0,7,0.2h0.3h0.3
		c4.9,0.4,9.4,1.2,13.2,3.3l0.4,0.2c0.1,0,0.2,0.1,0.4,0.2c3.3,2,5.9,5,7.4,8.6C425.3,171.5,427.3,177.2,428.8,183z"></path><path class="st1" d="M384.6,173.6c-0.5,2.1-1,5.9-1.4,9.4h-0.6c0.4-3.6,0.9-7.4,1.4-9.5c0-0.2,0.2-0.3,0.4-0.2
		C384.5,173.2,384.6,173.4,384.6,173.6C384.6,173.6,384.6,173.6,384.6,173.6z"></path><path class="st1" d="M422.3,183h-0.6c-0.4-4.6-1.1-9.1-2-13.6c-0.1-0.2,0-0.3,0.2-0.4c0.2-0.1,0.3,0,0.4,0.2c0,0,0,0,0,0.1
		C421.2,173.8,421.8,178.4,422.3,183z"></path><path class="st0" d="M394.1,150c0.2,2.3,0.2,4.5,0,6.8c0,0,4.5,1.2,7.2-0.5c-0.5-2.3-0.7-4.7-0.6-7
		C400.9,146.7,394.1,150,394.1,150z"></path><path class="st1" d="M397.4,157.5c-1.2,0-2.3-0.2-3.5-0.4c-0.2,0-0.3-0.2-0.2-0.3c0.2-2.2,0.2-4.5,0-6.7c0-0.1,0.1-0.3,0.2-0.3
		c0.5-0.2,5.1-2.5,6.6-1.5c0.3,0.2,0.5,0.7,0.4,1.1c0,2.3,0.2,4.6,0.6,6.9c0,0.1,0,0.3-0.1,0.3C400.2,157.2,398.8,157.6,397.4,157.5
		z M394.4,156.5c1,0.2,4.4,0.9,6.5-0.4c-0.5-2.3-0.7-4.6-0.6-6.9c0-0.3-0.1-0.4-0.2-0.5c-0.8-0.6-3.9,0.5-5.8,1.4
		C394.6,152.3,394.6,154.4,394.4,156.5L394.4,156.5z"></path><path class="st0" d="M396.2,125.3c-4.3-0.8-7.5,2-7.9,4.7c0,0-2.8,1.9-3,3.9s-3.9,4.1-0.2,8.1s25,0,25,0s1.8-4.8,0.1-6.6
		c0,0-0.5-5.1-3.8-6.1S403.9,123.2,396.2,125.3z"></path><path class="st1" d="M388.1,143.7c-1.2-0.2-2.3-0.7-3.2-1.4c-2.8-3-1.5-5.1-0.6-6.7c0.4-0.5,0.6-1.1,0.7-1.7c0.1-1.9,2.5-3.7,3-4.1
		c0.3-1.5,1.1-2.7,2.3-3.6c1.7-1.2,3.8-1.6,5.8-1.2c5.2-1.4,6.8,0.5,8.1,2.1c0.6,0.8,1.4,1.5,2.3,1.9c3.2,1,3.9,5.5,4,6.2
		c1.7,2,0,6.7-0.1,6.9c0,0.1-0.1,0.2-0.2,0.2C409.6,142.5,395.1,145.2,388.1,143.7z M400.6,125.2c-1.5-0.2-3-0.1-4.4,0.4
		c0,0-0.1,0-0.1,0c-1.9-0.4-3.8,0-5.4,1.1c-1.1,0.8-1.9,1.9-2.1,3.3c0,0.1-0.1,0.2-0.1,0.2c0,0-2.7,1.9-2.9,3.7
		c-0.1,0.7-0.4,1.4-0.8,1.9c-0.9,1.5-1.9,3.3,0.5,6c0.8,0.7,1.8,1.1,2.8,1.3c6.4,1.3,20-1.1,21.8-1.4c0.3-0.8,1.5-4.7,0.1-6.2
		c-0.1,0-0.1-0.1-0.1-0.2c0-0.1-0.6-4.9-3.6-5.8c-1.1-0.4-2-1.1-2.6-2.1C403.1,126.4,401.9,125.6,400.6,125.2z"></path><path class="st0" d="M408.1,140.9c0,0,1-2.2,3-1.1s0.6,8-3.3,5.9c0,0-0.9,6.7-8.9,7.6s-10.2-7.9-10.2-7.9s-2.3,1.3-3.4-0.1
		s-0.8-5.8,3-3.8l0.4,1.2c0.8-1.2,1.2-2.6,1.3-4c1-0.9,1.7-2,2.1-3.3c0,0,2.3,0.3,5.4-3.5c0,0,2.5,4.3,9.4,5.4
		C406.8,137.2,407.6,141.6,408.1,140.9z"></path><path class="st1" d="M395.9,153.4c-5-1-7-6.2-7.5-7.6c-0.7,0.3-2.5,0.9-3.5-0.4c-0.8-1.2-0.8-2.9,0-4.1c0.4-0.5,1.4-1.2,3.5-0.1
		c0.1,0,0.1,0.1,0.2,0.2l0.1,0.5c0.5-1,0.8-2.1,0.9-3.3c0-0.1,0-0.2,0.1-0.2c0.9-0.9,1.6-2,2-3.1c0-0.1,0.2-0.2,0.3-0.2
		c0,0,2.2,0.2,5.1-3.4c0.1-0.1,0.2-0.1,0.3-0.1c0.1,0,0.2,0.1,0.2,0.1c0,0,2.5,4.2,9.2,5.2c0.1,0,0.2,0.1,0.3,0.3
		c0.2,1.1,0.4,2.2,0.8,3.3c0.3-0.6,0.9-1,1.5-1.2c0.6-0.2,1.3-0.1,1.8,0.2c1.3,0.7,1.3,3.5,0.4,5.2c-0.6,1.4-2.1,2-3.5,1.5
		c0,0-0.1,0-0.1,0c-0.4,1.5-2.1,6.6-9.1,7.4C397.9,153.7,396.9,153.6,395.9,153.4z M388.7,145.1L388.7,145.1c0.1,0,0.2,0.1,0.2,0.2
		c0.4,1.5,1.1,2.9,2.1,4.2c1.7,2.5,4.8,3.9,7.8,3.5c7.7-0.9,8.6-7,8.6-7.3c0-0.1,0.1-0.2,0.2-0.2c0.1,0,0.2,0,0.3,0
		c1,0.6,2.3,0.4,2.9-0.6c0.1-0.1,0.1-0.2,0.2-0.4c0.9-1.6,0.8-3.9-0.1-4.4c-0.4-0.2-0.9-0.3-1.3-0.2c-0.5,0.2-1,0.6-1.2,1.2l0,0
		c-0.1,0.2-0.3,0.2-0.5,0.2c-0.2,0-0.6-0.1-1.3-3.8c-5.7-1-8.4-4.1-9.1-5.1c-2.5,2.9-4.5,3.2-5.2,3.3c-0.4,1.2-1.1,2.2-2,3.1
		c-0.1,1.4-0.6,2.8-1.4,4c-0.1,0.1-0.2,0.1-0.3,0.1c-0.1,0-0.2-0.1-0.2-0.2l-0.3-1c-0.9-0.4-2-0.7-2.6,0.1c-0.6,1-0.6,2.3,0,3.3
		c1,1.2,3,0.1,3,0C388.5,145,388.6,145,388.7,145.1z M408.1,140.9L408.1,140.9z"></path><path class="st1" d="M405.1,137.9c-1.4-0.1-2.9,0-4.3,0.2c-0.1,0-0.2-0.1-0.2-0.2c0-0.1,0-0.1,0.1-0.2c1.3-1.1,3.2-1.2,4.6-0.2
		c0.1,0.1,0.1,0.2,0,0.3C405.2,137.8,405.2,137.9,405.1,137.9L405.1,137.9z"></path><path class="st1" d="M392.7,137.9c1.3-1.1,3.2-1.1,4.6-0.1c0.1,0.1,0.1,0.2,0,0.2c0,0,0,0,0,0c0,0-0.1,0.1-0.1,0.1
		c-0.8,0-1.4-0.1-2.2,0s-1.4,0.1-2.2,0.2c-0.1,0-0.2-0.1-0.2-0.2C392.6,138,392.7,137.9,392.7,137.9L392.7,137.9z"></path><path class="st1" d="M401,145.8c-0.8-0.1-1.4-0.7-1.5-1.5c0-0.2,0.1-0.3,0.3-0.3c0,0,0,0,0,0c0.2,0,0.3,0.1,0.4,0.3
		c0.1,0.6,0.7,1,1.3,1c0.4,0,0.8-0.4,0.8-0.8c0,0,0,0,0-0.1c0-0.2-0.1-0.4-0.2-0.6c-0.5-0.3-1-0.4-1.5-0.3c-0.2,0-0.3-0.1-0.3-0.2
		c0,0,0,0,0,0c0,0-0.3-2.8-0.4-4c0-0.2,0.1-0.3,0.3-0.3s0.3,0.1,0.3,0.3c0.1,1,0.3,3,0.4,3.7c0.6,0,1.2,0.1,1.7,0.5
		c0.3,0.3,0.4,0.7,0.4,1.1c0,0.8-0.6,1.4-1.3,1.5c0,0,0,0,0,0C401.3,145.8,401.2,145.8,401,145.8z"></path><path class="st1" d="M402.6,141.1c-0.1,0.7,0.2,1.3,0.6,1.4s1-0.4,1.1-1.1c0-0.2,0-0.4,0-0.6l-0.9,0.3l0.6-1
		c-0.1-0.1-0.2-0.1-0.3-0.1C403.2,139.9,402.7,140.4,402.6,141.1z"></path><path class="st1" d="M394.2,141.1c-0.1,0.7,0.2,1.3,0.6,1.4s1-0.4,1.1-1.1c0-0.2,0-0.4,0-0.6l-0.9,0.3l0.6-1
		c-0.1-0.1-0.2-0.1-0.3-0.2C394.8,139.9,394.3,140.4,394.2,141.1z"></path><path class="st1" d="M399,147.7c-1-0.1-2-0.6-2.6-1.5c-0.1-0.1-0.1-0.3,0.1-0.4c0,0,0,0,0,0c0.1-0.1,0.3,0,0.4,0.1
		c0.8,0.8,1.9,1.3,3,1.3c0.2,0,0.3,0.2,0.3,0.3c0,0,0,0,0,0c0,0.2-0.2,0.3-0.3,0.3c0,0,0,0,0,0C399.5,147.8,399.2,147.8,399,147.7z"></path><path class="st0" d="M387.7,142.5c-0.4-0.6-1.2-0.6-1.8-0.2c-0.3,0.2-0.4,0.5-0.5,0.8"></path><path class="st1" d="M385.4,143.5L385.4,143.5c-0.2,0-0.3-0.2-0.2-0.4c0.1-0.6,0.5-1.1,1.1-1.3c0.6-0.2,1.3,0,1.7,0.5
		c0.1,0.1,0.1,0.3,0,0.4c0,0,0,0,0,0c-0.1,0.1-0.3,0.1-0.4,0c0,0,0,0,0,0c-0.3-0.3-0.7-0.4-1.1-0.4c-0.3,0.1-0.6,0.5-0.6,0.8
		C385.7,143.4,385.6,143.5,385.4,143.5z"></path><path class="st0" d="M386.8,144.5c-1-0.5-0.6-2.3-0.6-2.3"></path><path class="st1" d="M386.7,144.9L386.7,144.9c-1.3-0.6-0.9-2.6-0.9-2.7c0-0.2,0.2-0.3,0.4-0.2l0,0c0.2,0,0.3,0.2,0.2,0.4
		c0,0,0,0,0,0c-0.1,0.4-0.2,1.6,0.5,2c0.2,0.1,0.2,0.3,0.1,0.4c0,0,0,0,0,0C387,144.8,386.8,144.9,386.7,144.9z"></path><path class="st0" d="M408.7,141.9c0.2-0.8,1.1-1.2,1.9-1c0.3,0.1,0.6,0.3,0.7,0.5"></path><path class="st1" d="M408.6,142.2L408.6,142.2c-0.2-0.1-0.3-0.3-0.2-0.4c0.3-0.7,0.9-1.2,1.6-1.2c0.6,0,1.2,0.2,1.5,0.8
		c0.1,0.1,0,0.3-0.1,0.4c0,0,0,0,0,0c-0.1,0.1-0.3,0-0.4-0.1c-0.2-0.3-0.6-0.5-1-0.4c-0.5,0.1-0.9,0.4-1,0.8
		C408.9,142.1,408.8,142.2,408.6,142.2z"></path><path class="st0" d="M409.5,144.6c1.1-0.3,1.5-2.6,0.9-3.8"></path><path class="st1" d="M409.5,144.9c-0.1,0-0.2-0.1-0.2-0.2c0-0.2,0.1-0.3,0.2-0.4c0,0,0,0,0,0c0.3-0.1,0.5-0.4,0.7-0.7
		c0.4-0.8,0.4-1.8,0-2.6c-0.1-0.1,0-0.3,0.1-0.4c0,0,0,0,0,0c0.1-0.1,0.3,0,0.4,0.1c0,0,0,0,0,0c0.4,1,0.4,2.2,0,3.2
		c-0.2,0.5-0.6,0.9-1.1,1L409.5,144.9z"></path></g><g id="target-candidate"><path class="st0" d="M181.7,80.5h127.6c3.6,0,6.4,2.9,6.4,6.4v164.7c0,3.6-2.9,6.4-6.4,6.4H181.7c-3.6,0-6.4-2.9-6.4-6.4V86.9
		C175.2,83.4,178.1,80.5,181.7,80.5z"></path><path class="st1" d="M309.3,258.6H181.7c-3.8,0-6.9-3.1-6.9-6.9l0,0V86.9c0-3.8,3.1-6.9,6.9-6.9h127.6c3.8,0,6.9,3.1,6.9,6.9v164.7
		C316.2,255.4,313.1,258.5,309.3,258.6z M181.7,81c-3.3,0-5.9,2.7-5.9,5.9c0,0,0,0,0,0v164.7c0,3.3,2.7,5.9,5.9,5.9l0,0h127.6
		c3.3,0,5.9-2.7,5.9-5.9V86.9c0-3.3-2.7-5.9-5.9-5.9H181.7z"></path><path class="st1" d="M252.1,205.5h-55.9c-0.3,0-0.5-0.2-0.5-0.5s0.2-0.5,0.5-0.5h55.9c0.3,0,0.5,0.2,0.5,0.5
		C252.6,205.3,252.4,205.5,252.1,205.5z"></path><path class="st1" d="M290.5,220.2h-94.4c-0.3,0-0.5-0.2-0.5-0.5s0.2-0.5,0.5-0.5h94.4c0.3,0,0.5,0.2,0.5,0.5
		S290.8,220.2,290.5,220.2z"></path><path class="st1" d="M290.5,234.9h-94.4c-0.3,0-0.5-0.2-0.5-0.5s0.2-0.5,0.5-0.5h94.4c0.3,0,0.5,0.2,0.5,0.5
		S290.8,234.9,290.5,234.9z"></path></g><g id="main-character"><path class="st0" d="M324.3,297l0.5,105.7c0,1.4,1,2.6,2.3,2.8l0,0c8.4,1.7,17.1,1.3,25.3-1.2l1.4-0.4c1.2-0.4,2-1.4,2-2.6l4-71.9
		l58.1,45.2c1.2,0.9,2.9,1,4.1,0.1l0,0c7.3-5.2,12.1-13.3,13.2-22.2v-0.2c0.1-1.2-0.4-2.4-1.4-3.2l-37.2-27.5
		c-4.9-3.6-8.3-8.7-9.8-14.6l-3.8-15.2L324.3,297z"></path><path class="st1" d="M337.3,407.1c-3.5,0-6.9-0.3-10.3-1c-1.6-0.3-2.7-1.7-2.7-3.3L323.8,297c0-0.3,0.2-0.5,0.5-0.5l58.8-5.2
		c0.2,0,0.5,0.1,0.5,0.4l3.8,15.2c1.5,5.7,4.9,10.8,9.7,14.3l37.2,27.5c1.1,0.8,1.7,2.2,1.6,3.6v0.2c-1.1,9.1-6,17.3-13.4,22.6
		c-1.4,1-3.3,1-4.7-0.1l-57.4-44.6l-4,71c-0.1,1.4-1,2.6-2.4,3.1l-1.4,0.4C347.7,406.4,342.5,407.1,337.3,407.1z M324.8,297.5
		l0.5,105.3c0,1.1,0.8,2.1,1.9,2.4c8.3,1.7,16.9,1.3,25.1-1.2l1.4-0.4c1-0.3,1.6-1.2,1.7-2.2l4.1-71.9c0-0.2,0.1-0.4,0.3-0.4
		c0.2-0.1,0.4,0,0.5,0.1l58.1,45.2c1,0.8,2.4,0.8,3.5,0.1c7.2-5.1,11.9-13.1,13-21.9v-0.2c0.1-1-0.3-2.1-1.2-2.7L396.5,322
		c-4.9-3.7-8.5-8.9-10-14.9l-3.7-14.8L324.8,297.5z"></path><path class="st0" d="M295.4,182.7l130.9,103c2.8,2.2,3.2,6.2,1.1,8.9c-0.1,0.2-0.3,0.4-0.5,0.5l0,0c-2.3,2.4-6,2.6-8.6,0.5
		L272.2,175.8l7.3-7.5L295.4,182.7z"></path><path class="st1" d="M422.3,297.5c-1.6,0-3.1-0.5-4.3-1.5L271.9,176.2c-0.1-0.1-0.2-0.2-0.2-0.4c0-0.1,0-0.3,0.1-0.4l7.3-7.5
		c0.2-0.2,0.5-0.2,0.7,0l15.9,14.4l130.9,102.9c3,2.3,3.5,6.7,1.2,9.6C426.4,296.6,424.4,297.5,422.3,297.5z M272.9,175.7
		l145.7,119.4c2.5,2,6.2,1.6,8.2-0.9s1.6-6.2-0.9-8.2L295.1,183l0,0l-15.6-14L272.9,175.7z"></path><path class="st0" d="M285.9,174.5c0,0,0.6-5.4,1.3-6.1s2.9,0.8,2.5,5.5c1.2,0,2.3,1,2.3,2.2c1.7,0.2,3,1.5,3.1,3.3
		c0,0,2.3,0.8,2.1,4.8l-1.4-1.1c0,0-0.8,3.9-2.4,3.4s-1.4-2.8-1.4-2.8s-1.3,1.2-2.2,0.3c-0.6-0.8-0.9-1.7-0.8-2.7c0,0-1.8,0.7-2.3-1
		s0.7-4.6,0.7-4.6L285.9,174.5z"></path><path class="st1" d="M293.8,187c-0.2,0-0.3,0-0.5-0.1c-0.9-0.4-1.6-1.3-1.6-2.3c-0.7,0.4-1.6,0.3-2.1-0.3c-0.6-0.7-0.9-1.5-1-2.4
		c-0.4,0.1-0.9,0-1.3-0.2c-0.5-0.3-0.9-0.7-1-1.2c-0.5-1.4,0.3-3.7,0.6-4.6l-1.3-1.1c-0.1-0.1-0.2-0.3-0.2-0.4
		c0.1-1.3,0.6-5.6,1.5-6.4c0.4-0.4,1-0.4,1.4-0.2c1,0.5,2.2,2.2,2,5.6c1.1,0.2,2,1.1,2.2,2.2c1.7,0.3,2.9,1.7,3.1,3.4
		c0.7,0.4,2.3,1.6,2.1,5.2c0,0.2-0.1,0.4-0.3,0.4c-0.2,0.1-0.4,0.1-0.5,0l-0.8-0.6c-0.3,0.9-0.8,2.4-1.7,2.9
		C294.3,187,294,187,293.8,187z M292.1,183.2c0.1,0,0.1,0,0.2,0c0.2,0.1,0.3,0.3,0.3,0.5c0,0-0.1,1.8,1,2.2c0.1,0,0.2,0,0.3,0
		c0.6-0.4,1.2-2,1.4-3c0-0.2,0.2-0.3,0.3-0.4c0.2-0.1,0.3,0,0.5,0.1l0.6,0.4c-0.2-2.7-1.7-3.3-1.8-3.3c-0.2-0.1-0.3-0.2-0.3-0.4
		c-0.1-1.5-1.2-2.7-2.6-2.8c-0.2,0-0.4-0.2-0.5-0.4c0-1-0.8-1.8-1.8-1.8c-0.1,0-0.3-0.1-0.4-0.2c-0.1-0.1-0.1-0.2-0.1-0.4
		c0.3-3.4-0.8-4.8-1.4-5.1c0,0-0.2-0.1-0.3,0c-0.4,0.4-0.9,3.1-1.1,5.6l1.4,1.1c0.2,0.1,0.2,0.4,0.1,0.6c-0.3,0.8-1.1,3-0.7,4.2
		c0.1,0.3,0.2,0.5,0.5,0.6c0.4,0.1,0.8,0.1,1.1,0c0.2-0.1,0.3,0,0.5,0.1c0.1,0.1,0.2,0.3,0.2,0.4c0,0.8,0.2,1.6,0.7,2.3
		c0.6,0.6,1.5-0.3,1.5-0.3C291.9,183.2,292,183.2,292.1,183.2L292.1,183.2z"></path><path class="st0" d="M287.5,201.1c-1.6-3.7-3.8-6.4-4.9-10.1s1-11.1,1.9-11.6s2.7,3.7,3,8.9l7.2,6.1c0,0,0.8,3.4-1.5,5.4
		S287.5,201.1,287.5,201.1z"></path><path class="st1" d="M288.8,201.7c-0.4,0-0.9,0-1.3-0.1c-0.2,0-0.3-0.1-0.4-0.3c-0.6-1.5-1.4-2.9-2.2-4.2c-1.1-1.8-2-3.8-2.7-5.9
		c-1-3.6,0.8-11.4,2.1-12.1c0.3-0.2,0.6-0.2,0.9,0c1.3,0.7,2.6,4.8,2.9,9.1l7,5.9c0.1,0.1,0.1,0.2,0.2,0.3c0,0.1,0.8,3.8-1.7,5.9
		C292.2,201.2,290.5,201.7,288.8,201.7z M287.9,200.7c1.8,0.2,3.6-0.2,5-1.3c1.7-1.5,1.5-4.1,1.4-4.7l-7-5.9
		c-0.1-0.1-0.2-0.2-0.2-0.4c-0.3-4.6-1.7-8-2.3-8.4c-0.7,0.9-2.6,7.5-1.6,11c0.6,2,1.5,3.9,2.6,5.7
		C286.6,197.9,287.2,199.3,287.9,200.7L287.9,200.7z"></path><path class="st2" d="M311,227.4c22.9-12.4,34.2-15.5,45.6-15.5s31.9,22.3,37,29.5s9.2,14.5,9.2,14.5l-7.1,6.1l-22.9-18l13.9,48.1
		c0.4,1.2-0.2,2.5-1.4,3.1c-4.4,2.2-16.4,7.1-36.1,7.3c-17.3,0.1-24.5-1.7-27.3-2.9c-1.1-0.4-1.7-1.5-1.6-2.6l2.8-50.2
		c0,0-17.4,12.5-27.8,0.2c-9.2-10.8-14.6-34.6-15.7-40c-0.2-0.7,0.1-1.5,0.6-2c2.4-2.2,5.2-3.9,8.3-5c3.1-1,6.3-0.9,9.3,0.2
		c0.5,0.2,1,0.6,1.2,1.1L311,227.4z"></path><path class="st1" d="M324.3,246.6c-0.3,0-0.5-0.2-0.5-0.5c0-0.2,0.1-0.3,0.2-0.4c10.1-7.5,19-15.4,15.5-22.4
		c-0.1-0.2,0-0.6,0.2-0.7c0.2-0.1,0.6,0,0.7,0.2c3.8,7.6-5.3,15.9-15.8,23.7C324.6,246.6,324.4,246.6,324.3,246.6z"></path><path class="st1" d="M372.3,242.4c-0.2,0-0.4-0.1-0.5-0.4c-3.1-9.6-6.9-22.7-6.9-22.9c-0.1-0.3,0.1-0.5,0.3-0.6c0,0,0,0,0,0
		c0.3-0.1,0.5,0.1,0.6,0.3c0,0.1,3.8,13.2,6.9,22.8c0.1,0.3-0.1,0.5-0.3,0.6L372.3,242.4z"></path><path class="st1" d="M287.5,176.3c-0.1,0-0.2,0-0.2-0.1c-0.2-0.1-0.3-0.4-0.2-0.7c0,0,0,0,0,0c0.6-1,1.5-1.7,2.5-2.1
		c0.3-0.1,0.5,0.1,0.6,0.3c0.1,0.3-0.1,0.5-0.3,0.6c-0.8,0.3-1.5,0.9-2,1.7C287.8,176.2,287.6,176.3,287.5,176.3z"></path><path class="st1" d="M289.1,181.8L289.1,181.8c-0.3,0-0.5-0.3-0.5-0.6c0.1-0.6,0.8-5.6,3.5-5.7c0.3,0,0.5,0.2,0.5,0.5
		c0,0.3-0.2,0.5-0.5,0.5c0,0,0,0,0,0c-1.6,0-2.3,3.6-2.5,4.8C289.5,181.6,289.3,181.8,289.1,181.8z"></path><path class="st1" d="M292.1,184.2L292.1,184.2c-0.4-0.1-0.5-0.3-0.5-0.6c0.8-4.8,3.4-4.8,3.5-4.8c0.3,0,0.5,0.2,0.5,0.5
		s-0.2,0.5-0.5,0.5l0,0c-0.1,0-1.9,0.1-2.5,3.9C292.6,184,292.4,184.2,292.1,184.2z"></path><path class="st0" d="M400.4,258.1c2.7,2.9,1.9,3.1,3.8,4.2s9.3,7.5,8,12.2l-9.4-7.4c0,0,0,7.5-2.2,6.9c-3-0.8-2.5-10.2-3.6-12.7
		L400.4,258.1z"></path><path class="st1" d="M412.3,274.9c-0.1,0-0.2,0-0.3-0.1l-8.7-6.8c-0.1,1.8-0.4,5.1-1.6,6.1c-0.3,0.3-0.8,0.4-1.2,0.2
		c-2.3-0.6-2.8-5-3.2-8.8c-0.1-1.4-0.3-2.8-0.7-4.1c-0.1-0.2,0-0.4,0.1-0.6l3.4-3.1c0.2-0.2,0.5-0.2,0.7,0c0.8,0.8,1.5,1.7,2.1,2.7
		c0.4,0.6,0.9,1.1,1.5,1.4c2.1,1.1,9.6,7.8,8.3,12.8c0,0.2-0.2,0.3-0.3,0.3C412.4,274.9,412.3,274.9,412.3,274.9z M402.8,266.5
		c0.1,0,0.2,0,0.3,0.1l8.8,6.9c0.2-4.2-6.2-9.9-7.9-10.8c-0.8-0.4-1.4-1-1.9-1.7c-0.5-0.8-1.1-1.5-1.7-2.2l-2.8,2.5
		c0.3,1.3,0.5,2.7,0.6,4.1c0.3,3.2,0.8,7.5,2.5,8c0.1,0,0.2,0,0.3-0.1c0.9-0.7,1.2-4.2,1.2-6.3c0-0.2,0.1-0.4,0.3-0.4
		C402.6,266.5,402.7,266.5,402.8,266.5z"></path><line class="st3" x1="396.6" y1="262.3" x2="372.8" y2="244"></line><path class="st1" d="M396.6,262.8c-0.1,0-0.2,0-0.3-0.1l-23.8-18.3c-0.2-0.2-0.3-0.5-0.1-0.7c0.2-0.2,0.5-0.3,0.7-0.1l23.8,18.3
		c0.2,0.2,0.3,0.5,0.1,0.7C396.9,262.7,396.7,262.8,396.6,262.8z"></path><path class="st2" d="M247.6,97.3c-25.7,0-46.5,20.8-46.5,46.5s20.8,46.5,46.5,46.5s46.5-20.8,46.5-46.5
		C294.1,118.1,273.3,97.3,247.6,97.3z M247.6,178.3c-19.1,0-34.5-15.5-34.5-34.5s15.5-34.5,34.5-34.5c19.1,0,34.5,15.5,34.5,34.5
		C282.2,162.9,266.7,178.3,247.6,178.3C247.6,178.3,247.6,178.3,247.6,178.3L247.6,178.3z"></path><path class="st1" d="M247.6,190.8c-26,0-47-21-47-47s21-47,47-47s47,21,47,47S273.6,190.8,247.6,190.8z M247.6,97.8
		c-25.4,0-46,20.6-46,46s20.6,46,46,46s46-20.6,46-46l0,0C293.6,118.4,273,97.8,247.6,97.8L247.6,97.8z M247.6,178.8
		c-19.3,0-35-15.7-35-35s15.7-35,35-35s35,15.7,35,35l0,0C282.6,163.1,267,178.8,247.6,178.8L247.6,178.8z M247.6,109.7
		c-18.8,0-34,15.2-34,34s15.2,34,34,34s34-15.2,34-34C281.6,125,266.4,109.8,247.6,109.7L247.6,109.7z"></path><path class="st1" d="M245.4,152.7c-1.1,0-2.1-0.7-2.5-1.8c-0.1-0.3-2.1-7.1,7.4-12.1c3-1.6,4.8-4.7,4.8-8c-0.1-2.6-1.8-4.8-4.2-5.6
		c-1.8-0.9-3.9-0.9-5.7-0.2c-3.4,1.5-5.1,5.8-5.1,5.8c-0.5,1.3-2,2-3.3,1.5s-2-2-1.5-3.3l0,0c0.1-0.3,2.4-6.4,7.8-8.8
		c3.1-1.3,6.7-1.3,9.8,0.1c4.3,1.5,7.3,5.5,7.5,10.1c0.1,5.4-2.8,10.3-7.5,12.8c-5.5,2.9-4.9,5.9-4.8,6.1c0.4,1.3-0.3,2.8-1.7,3.2
		c0,0,0,0,0,0C245.9,152.6,245.7,152.7,245.4,152.7z"></path><circle class="st1" cx="245.5" cy="160.4" r="3.8"></circle><path class="st0" d="M335.5,202.4c1.1,4.2,1.5,8.5,1.2,12.8l11.4-3.3l-2.3-15.2L335.5,202.4z"></path><path class="st1" d="M336.7,215.8c-0.1,0-0.2,0-0.3-0.1c-0.1-0.1-0.2-0.3-0.2-0.4c0.3-4.2-0.1-8.5-1.2-12.6c-0.1-0.2,0-0.5,0.2-0.6
		l10.3-5.6c0.1-0.1,0.3-0.1,0.5,0c0.2,0.1,0.3,0.2,0.3,0.4l2.3,15.2c0,0.2-0.1,0.5-0.4,0.6L336.7,215.8
		C336.8,215.8,336.7,215.8,336.7,215.8z M336.1,202.7c1,3.9,1.4,7.9,1.1,11.9l10.2-2.9l-2.1-14.1L336.1,202.7z"></path><path class="st0" d="M344.8,202c0,0-1.1,7.9,0.4,9c0.1,0,0.1,0.1,0.2,0.1c7.7,7,19.8,4.5,23.6-5.1c1.6-4.1,2.3-8.4,0.5-12.2
		c-4.8-10-8-11.6-12.6-21.8s-17.9-13.7-24.2-11.7s-8,10.5-4.3,16.3S344.8,202,344.8,202z"></path><path class="st1" d="M355.6,215.6c-3.9,0-7.7-1.5-10.6-4.1l-0.1-0.1c-1.5-1.1-0.9-7.1-0.6-9.3c-1.2-1.9-12.9-19.8-16.4-25.2
		c-2.1-3.4-2.6-7.5-1.3-11.2c0.9-2.8,3.1-4.9,5.8-5.8c6.8-2.2,20.2,1.9,24.8,12c1.8,3.9,3.9,7.7,6.5,11.2c2.4,3.3,4.4,6.9,6.2,10.6
		c1.6,3.4,1.5,7.6-0.5,12.6c-1.7,4.5-5.6,7.9-10.4,9C357.9,215.4,356.8,215.6,355.6,215.6z M336.5,160.3c-1.3,0-2.5,0.1-3.7,0.5
		c-2.5,0.8-4.4,2.7-5.2,5.2c-1.2,3.4-0.8,7.3,1.2,10.4c3.6,5.7,16.4,25.2,16.5,25.4c0.1,0.1,0.1,0.2,0.1,0.3
		c-0.5,3.6-0.6,7.9,0.2,8.5l0.2,0.2c3.5,3.3,8.4,4.6,13.1,3.5c4.4-1,8.1-4.2,9.7-8.4c1.8-4.7,2-8.7,0.5-11.8
		c-1.7-3.6-3.8-7.1-6.1-10.4c-2.5-3.6-4.7-7.4-6.5-11.4C352.6,163.8,343,160.3,336.5,160.3z"></path><path class="st0" d="M324.8,188.5c0,1.9-5.5,26.9,20,13.6c0.9-4.8-0.2-9.7-3.2-13.5c-5-6.2-10.2-13.7-11.2-18.6
		c-1.4,2.3-2.6,4.8-3.5,7.4"></path><path class="st1" d="M332.6,206.4c-1.7,0.1-3.4-0.4-4.9-1.4c-5-3.4-3.9-12.3-3.5-15.6c0.1-0.5,0.1-0.8,0.1-1c0-0.3,0.2-0.5,0.5-0.5
		c0,0,0,0,0,0l0,0c0.3,0,0.5,0.2,0.5,0.5c0,0.2,0,0.6-0.1,1.1c-0.4,3.1-1.4,11.5,3.1,14.6c3.2,2.2,8.6,1.4,16.1-2.5
		c0.8-4.5-0.3-9.2-3.1-12.9c-4.2-5.3-9.4-12.5-11-17.6c-1.1,2-2.1,4.1-2.9,6.3c-0.1,0.3-0.4,0.4-0.6,0.3c-0.3-0.1-0.4-0.4-0.3-0.6
		c0.9-2.6,2.1-5.1,3.5-7.5c0.1-0.2,0.3-0.3,0.5-0.2c0.2,0,0.3,0.2,0.4,0.4c1.1,5,6.6,12.8,11.1,18.4c3.1,4,4.3,9.1,3.3,14
		c0,0.1-0.1,0.3-0.2,0.3C340,205.1,335.9,206.4,332.6,206.4z"></path><path class="st1" d="M337,184.1c-0.9-0.4-1.7-0.9-2.5-1.2c-0.3-0.1-0.7-0.2-1.1-0.3c-0.4,0-0.7,0-1.1,0.1h-0.1
		c-0.3,0.1-0.6,0-0.7-0.3c0,0,0,0,0,0c-0.1-0.2,0-0.3,0-0.5c0.4-0.5,1-0.9,1.6-1c0.6-0.1,1.3,0,1.8,0.3c1,0.4,1.9,1.2,2.5,2.1
		c0.1,0.2,0.1,0.6-0.2,0.7C337.4,184.2,337.2,184.2,337,184.1L337,184.1z"></path><path class="st1" d="M327.9,180.3c-0.5-0.6-0.9-1.2-1.3-1.6c-0.1-0.1-0.2-0.2-0.4-0.3c-0.2-0.1-0.5,0-0.7,0.1h-0.1
		c-0.3,0.1-0.5-0.1-0.6-0.4c0-0.1,0-0.3,0.1-0.4c0.3-0.5,0.8-0.9,1.4-1c0.2,0,0.4,0,0.5,0l0.5,0.2c0.2,0.1,0.5,0.3,0.7,0.5
		c0.6,0.7,1,1.6,1,2.6c0,0.3-0.2,0.5-0.5,0.5c0,0,0,0,0,0C328.2,180.4,328.1,180.3,327.9,180.3L327.9,180.3z"></path><path class="st1" d="M331.6,185.5c-0.1,0.9,0.4,1.6,1,1.7s1.2-0.6,1.2-1.5c0-0.3,0-0.5-0.1-0.8l-1.1,0.5l0.6-1.2
		c-0.1-0.1-0.3-0.1-0.4-0.2C332.2,184,331.7,184.6,331.6,185.5z"></path><path class="st1" d="M325.2,181.7c-0.1,0.9,0.4,1.7,1,1.8s1.2-0.6,1.3-1.6c0-0.3,0-0.5-0.1-0.8l-1.1,0.5l0.6-1.3
		c-0.1-0.1-0.3-0.2-0.4-0.2C325.9,180.1,325.3,180.8,325.2,181.7z"></path><path class="st0" d="M328.5,181.4l-2.1,5.7c0,0-3.1,0.1-3.1,1.5s2,2.1,3.8,1.4"></path><path class="st1" d="M325.6,190.8c-0.7,0-1.4-0.2-2-0.6c-0.5-0.4-0.9-0.9-0.9-1.6c0-1.5,2.3-1.9,3.2-2l2-5.4
		c0.1-0.3,0.4-0.4,0.6-0.3c0,0,0,0,0,0c0.3,0.1,0.4,0.4,0.3,0.6c0,0,0,0,0,0l-2.2,5.7c-0.1,0.2-0.2,0.3-0.5,0.3
		c-1.1,0-2.6,0.4-2.6,1c0,0.3,0.2,0.6,0.5,0.8c0.8,0.5,1.8,0.5,2.7,0.2c0.3-0.1,0.5,0,0.6,0.3c0,0,0,0,0,0c0.1,0.3,0,0.5-0.3,0.6
		C326.7,190.7,326.2,190.8,325.6,190.8z"></path><path class="st0" d="M331,195.7c2.1,3,5.1,0.4,5.1,0.4"></path><path class="st1" d="M333.4,197.6h-0.4c-1-0.1-1.9-0.7-2.5-1.6c-0.2-0.2-0.1-0.5,0.1-0.7c0.2-0.2,0.5-0.1,0.7,0.1c0,0,0,0,0,0
		c0.4,0.6,1.1,1.1,1.8,1.2c0.9,0,1.8-0.3,2.5-0.9c0.2-0.2,0.5-0.2,0.7,0c0,0,0,0,0,0c0.2,0.2,0.2,0.5,0,0.7
		C335.6,197.1,334.5,197.5,333.4,197.6z"></path><path class="st1" d="M360.1,326.9L360.1,326.9c-0.3,0-0.5-0.3-0.5-0.5c0,0,0,0,0,0l1.1-18c0-0.3,0.2-0.5,0.5-0.5c0,0,0,0,0.1,0
		c0.3,0,0.5,0.3,0.5,0.5c0,0,0,0,0,0l-1.1,18.1C360.6,326.7,360.3,326.9,360.1,326.9z"></path><path class="st2" d="M353.9,408.1l1.3,19.6c0.1,1.4-0.9,2.6-2.3,2.7l-36.1,2.7c-1.4,0.1-2.6-0.9-2.7-2.3c0-0.1,0-0.2,0-0.3l0-0.9
		c0,0,0.8-17.1,18.6-19.6C332.8,410,341.9,411.8,353.9,408.1z"></path><path class="st1" d="M314.6,429.6c-0.3,0-0.5-0.2-0.5-0.5c0-0.3,0.2-0.5,0.4-0.5c0,0,0,0,0,0l40-3c0.3,0,0.5,0.2,0.5,0.5
		c0,0.3-0.2,0.5-0.5,0.5c0,0,0,0,0,0L314.6,429.6L314.6,429.6z"></path><path class="st1" d="M345,427.4c-0.3,0-0.5-0.2-0.5-0.5c0.2-5.5,4.4-9.9,9.9-10.4c0.3,0,0.5,0.2,0.6,0.4s-0.2,0.5-0.4,0.6
		c-8.9,1.1-9,9-9,9.4C345.5,427.1,345.3,427.4,345,427.4C345,427.4,345,427.4,345,427.4z"></path><path class="st1" d="M329.7,418c-0.1,0-0.2,0-0.3-0.1l-8.9-6.6c-0.2-0.2-0.3-0.5-0.1-0.7s0.5-0.3,0.7-0.1c0,0,0,0,0,0l8.9,6.6
		c0.2,0.2,0.3,0.5,0.1,0.7l0,0C330,417.9,329.9,418,329.7,418z"></path><path class="st1" d="M333.7,416.1c-0.1,0-0.2,0-0.3-0.1l-8.9-6.6c-0.2-0.2-0.3-0.5-0.1-0.7s0.5-0.3,0.7-0.1c0,0,0,0,0,0l8.9,6.6
		c0.2,0.2,0.3,0.5,0.1,0.7C334,416.1,333.9,416.1,333.7,416.1L333.7,416.1z"></path><path class="st2" d="M439,358l16.1,11.1c1.1,0.8,1.4,2.3,0.6,3.5l-20.4,29.9c-0.8,1.1-2.3,1.4-3.5,0.7c-0.1-0.1-0.2-0.1-0.3-0.2
		l-0.6-0.6c0,0-12.9-11.3-3.7-26.8C427.3,375.7,434.4,369.7,439,358z"></path><path class="st1" d="M431,402.3c-0.1,0-0.2,0-0.3-0.1c-0.2-0.2-0.3-0.5-0.1-0.7l22.6-33.2c0.1-0.2,0.5-0.3,0.7-0.1c0,0,0,0,0,0
		c0.2,0.2,0.3,0.5,0.1,0.7l-22.6,33.2C431.3,402.2,431.2,402.3,431,402.3z"></path><path class="st1" d="M448.1,377.1c-0.1,0-0.2,0-0.3-0.1c-4.2-3.5-5-9.7-2-14.2c0.2-0.2,0.5-0.3,0.7-0.1c0.2,0.1,0.3,0.4,0.2,0.6
		c-4.7,7.7,1.5,12.7,1.7,12.9c0.2,0.2,0.3,0.5,0.1,0.7C448.4,377.1,448.3,377.1,448.1,377.1z"></path><path class="st1" d="M420.6,386.1c-0.2,0-0.4-0.1-0.5-0.4c-0.1-0.3,0.1-0.5,0.3-0.6c0,0,0,0,0,0l10.7-2.8c0.3-0.1,0.6,0.1,0.6,0.4
		s-0.1,0.6-0.4,0.6l-10.7,2.8L420.6,386.1z"></path><path class="st1" d="M421.6,381.8c-0.3,0-0.5-0.2-0.6-0.4s0.2-0.5,0.4-0.6l10.7-2.8c0.3-0.1,0.6,0.1,0.6,0.4s-0.1,0.6-0.4,0.6
		l-10.7,2.8L421.6,381.8z"></path></g><g id="candidate-1"><path class="st0" d="M52.4,112.2h95.1c3.6,0,6.4,2.9,6.4,6.4v102.1c0,3.6-2.9,6.4-6.4,6.4H52.4c-3.6,0-6.4-2.9-6.4-6.4V118.7
		C46,115.1,48.9,112.2,52.4,112.2z"></path><path class="st1" d="M147.6,227.7H52.4c-3.8,0-6.9-3.1-6.9-6.9l0,0V118.7c0-3.8,3.1-6.9,6.9-6.9l0,0h95.1c3.8,0,6.9,3.1,6.9,6.9
		c0,0,0,0,0,0v102.1C154.5,224.6,151.4,227.7,147.6,227.7L147.6,227.7z M52.4,112.7c-3.3,0-5.9,2.7-5.9,5.9v102.1
		c0,3.3,2.7,5.9,5.9,5.9l0,0h95.1c3.3,0,5.9-2.7,5.9-5.9l0,0V118.7c0-3.3-2.7-5.9-5.9-5.9L52.4,112.7z"></path><path class="st0" d="M119.4,164.2l-4.7-24.6h0.2c1.7-2.6,2.3-5.7,1.9-8.7c-0.8-5.1-4.6-6.2-6.9-4.9c0,0-8.2-3.2-13.9,0.8
		c-5.7,4-7,10.8-8.5,16.1l-6.3,27.4L119.4,164.2z"></path><path class="st1" d="M81.2,170.6c-0.1,0-0.2,0-0.2-0.1c-0.1-0.1-0.1-0.2-0.1-0.3l6.3-27.4c0.2-0.7,0.4-1.4,0.6-2.1
		c1.4-5,3-10.6,8-14.2c5.4-3.8,12.9-1.3,14-0.9c1.3-0.6,2.7-0.6,4,0c1.7,0.8,2.9,2.7,3.3,5.2c0.5,3.1-0.2,6.3-1.9,8.9
		c0,0-0.1,0.1-0.1,0.1l4.7,24.3c0,0.1,0,0.2,0,0.2c0,0.1-0.1,0.1-0.2,0.1L81.2,170.6L81.2,170.6z M103,125c-2.4-0.1-4.8,0.6-6.9,2
		c-4.8,3.4-6.4,9-7.8,13.8c-0.2,0.7-0.4,1.4-0.6,2.1l-6.2,27l37.4-6l-4.7-24.3c0-0.1,0-0.2,0-0.2c0-0.1,0.1-0.1,0.2-0.1h0.1
		c1.6-2.5,2.2-5.5,1.7-8.4c-0.4-2.3-1.4-4-2.9-4.7c-1.1-0.5-2.4-0.5-3.5,0.1c-0.1,0-0.2,0-0.3,0C107.5,125.5,105.3,125.1,103,125z"></path><path class="st2" d="M131.3,181.2H72.8c0-0.1,0.1-0.3,0.1-0.4c1.6-7.3,4.6-16.7,10.7-22.8l0.4-0.4c0.1-0.1,0.3-0.3,0.4-0.4
		c2.9-2.7,6.6-4.5,10.5-5.2l0.3-0.1c0.1,0,0.2,0,0.3,0c0.3-0.1,0.6-0.1,0.9-0.1c2.4,0,4.7,0,6.9,0.2h0.3h0.3
		c4.9,0.4,9.4,1.2,13.2,3.3c0.1,0.1,0.2,0.1,0.3,0.2c0.1,0.1,0.2,0.1,0.4,0.2c3.3,2,6,5,7.5,8.6
		C127.8,169.7,129.8,175.4,131.3,181.2z"></path><path class="st1" d="M87.1,171.8c-0.5,2.1-1,5.9-1.4,9.4h-0.6c0.4-3.6,0.9-7.4,1.4-9.5c0-0.2,0.2-0.3,0.4-0.2
		C87,171.4,87.2,171.6,87.1,171.8C87.1,171.7,87.1,171.8,87.1,171.8z"></path><path class="st1" d="M124.8,181.2h-0.6c-0.4-4.6-1.1-9.1-2-13.6c0-0.2,0.1-0.3,0.2-0.4c0.2,0,0.3,0.1,0.4,0.2
		C123.7,171.9,124.4,176.5,124.8,181.2z"></path><path class="st0" d="M95.6,145.1c0,4-0.4,8.7-0.4,8.7c0.8,2.2,2.8,3.8,5.1,3.9c1.9,0.3,3.6-1,3.9-2.9c0-0.3,0-0.7,0-1
		c0-0.7-0.7-2.9-0.8-3.7S95.6,145.1,95.6,145.1z"></path><path class="st1" d="M100.6,158.1h-0.2c-2.5-0.1-4.6-1.8-5.4-4.1c0,0,0-0.1,0-0.1c0-0.1,0.4-4.7,0.4-8.7c0-0.1,0.1-0.2,0.2-0.3
		c0.1,0,0.2,0,0.3,0c2.9,1.6,7.8,4.4,8,5.2c0,0.3,0.2,0.8,0.3,1.4c0.2,0.8,0.4,1.5,0.5,2.3c0.1,1.2-0.2,2.3-1,3.2
		C102.8,157.8,101.7,158.2,100.6,158.1z M95.5,153.9c0.7,2.1,2.6,3.5,4.8,3.6c1,0.1,2-0.2,2.7-0.9c0.6-0.8,1-1.7,0.9-2.7
		c-0.1-0.7-0.3-1.5-0.5-2.2c-0.2-0.6-0.3-1.1-0.4-1.5c-0.2-0.4-3.8-2.6-7.2-4.5C95.8,149.3,95.5,153.3,95.5,153.9z"></path><path class="st0" d="M114.4,134.9c0,0,2,10.9-2.8,14.5s-15.2,1.3-17.3-6.1c0,0-2.5,2.1-3.9-0.7s1.3-5.2,4-3.5c0,0,1.5-2.7,7-3.7
		c3.2-0.5,6.2-1.9,8.7-3.9C110.1,131.5,110.8,133.4,114.4,134.9z"></path><path class="st1" d="M106,151.3c-1.5,0-3.1-0.3-4.5-0.8c-3.4-1-6-3.5-7.3-6.8c-0.6,0.4-1.4,0.6-2.2,0.5c-0.8-0.2-1.5-0.8-1.8-1.6
		c-0.7-1.2-0.5-2.8,0.5-3.8c1-0.9,2.5-1,3.7-0.3c0.5-0.7,2.4-2.7,7-3.6c3.1-0.5,6.1-1.9,8.5-3.8c0.1-0.1,0.2-0.1,0.3-0.1
		c0.1,0,0.2,0.1,0.2,0.2c0,0,0.7,1.8,4.2,3.2c0.1,0,0.2,0.1,0.2,0.2c0.1,0.4,2,11.1-2.9,14.8C110.2,150.8,108.1,151.4,106,151.3z
		 M94.3,143L94.3,143c0.2,0,0.3,0.1,0.3,0.2c1.1,3.3,3.7,5.8,7,6.8c3.6,1.2,7.5,0.9,9.8-0.9c4.3-3.2,2.9-12.6,2.7-14
		c-1.7-0.6-3.2-1.6-4.2-3.1c-2.5,1.9-5.4,3.2-8.5,3.7c-5.2,1-6.7,3.5-6.8,3.5c0,0.1-0.1,0.1-0.2,0.1c-0.1,0-0.2,0-0.2,0
		c-0.9-0.7-2.3-0.7-3.2,0.1c-0.8,0.8-0.9,2-0.3,3c0.2,0.6,0.8,1.1,1.4,1.3c0.7,0,1.4-0.2,2-0.6C94.2,143,94.3,143,94.3,143z"></path><path class="st1" d="M104.2,138.4c-0.7-0.5-1.5-0.7-2.4-0.6c-0.3,0.1-0.6,0.2-0.9,0.3c-0.2,0.1-0.3,0-0.4-0.2c0-0.1,0-0.2,0.1-0.3
		c0.8-1,2.3-1.2,3.4-0.5c0.3,0.2,1.2,1,0.7,1.3C104.4,138.5,104.3,138.5,104.2,138.4z"></path><path class="st1" d="M113.3,138.1c-1.2-0.7-2.6-0.3-3.8,0.2c-0.2,0.1-0.3,0-0.4-0.2c0-0.1,0-0.2,0.1-0.3c1.1-1.4,3.8-1.7,4.7,0.1
		c0,0.1,0,0.3-0.2,0.4c-0.1,0-0.1,0-0.2,0L113.3,138.1z"></path><path class="st1" d="M109.4,144.5h-0.3c-0.9-0.2-1.5-0.9-1.4-1.8c0-0.2,0.2-0.3,0.3-0.3c0.2,0,0.3,0.2,0.3,0.3c0,0.6,0.4,1,0.9,1.1
		c0.4,0.1,0.7-0.1,0.8-0.5c0,0,0-0.1,0-0.1c0.1-0.2,0-0.4-0.1-0.5c-0.3-0.3-0.8-0.5-1.3-0.6c-0.2,0-0.3-0.2-0.3-0.3
		c0.1-1.3,0.3-2.6,0.6-3.9c0.1-0.2,0.3-0.2,0.4-0.2c0.1,0.1,0.2,0.2,0.2,0.3c-0.3,1.1-0.5,2.3-0.6,3.5c0.6,0.1,1.1,0.4,1.4,0.8
		c0.2,0.3,0.2,0.7,0.1,1C110.5,144,110,144.5,109.4,144.5z"></path><path class="st1" d="M102.1,140.8c-0.3,0.5-0.2,1.1,0.3,1.4c0.4,0.2,0.9-0.2,1.2-0.8c0.1-0.2,0.1-0.3,0.1-0.5l-0.9,0.1l0.7-0.7
		c-0.1-0.1-0.1-0.2-0.2-0.2C102.9,139.9,102.4,140.2,102.1,140.8z"></path><path class="st1" d="M110.8,140.5c-0.3,0.4-0.3,1.1,0.2,1.4c0,0,0,0,0,0c0.4,0.2,1-0.1,1.3-0.6c0.1-0.2,0.1-0.3,0.2-0.5h-0.9
		l0.8-0.7c-0.1-0.1-0.1-0.2-0.2-0.2C111.6,139.7,111.1,140,110.8,140.5z"></path><path class="st1" d="M91.2,141.2h-0.1c-0.2-0.1-0.2-0.3-0.2-0.4c0,0,0,0,0,0c0.2-0.5,0.6-0.9,1.1-1.1c0.6-0.2,1.3-0.1,1.9,0.2
		c0.1,0.1,0.2,0.3,0.1,0.4c-0.1,0.2-0.3,0.2-0.4,0.1c0,0,0,0,0,0c-0.4-0.2-0.9-0.3-1.4-0.2c-0.3,0.1-0.6,0.4-0.7,0.7
		C91.4,141.1,91.3,141.2,91.2,141.2z"></path><path class="st1" d="M92.6,143c0,0-0.1,0-0.1,0c-0.4-0.2-0.7-0.5-0.9-0.9c-0.2-0.7-0.2-1.5,0.2-2.1c0.1-0.1,0.3-0.2,0.4-0.1
		c0.1,0.1,0.2,0.3,0.1,0.4l0,0c-0.2,0.5-0.3,1.1-0.1,1.6c0.1,0.3,0.3,0.5,0.5,0.6c0.2,0.1,0.2,0.2,0.2,0.4
		C92.9,142.9,92.7,143,92.6,143L92.6,143z"></path><path class="st1" d="M105.2,146.5c-0.9,0.1-1.8-0.2-2.4-0.8c-0.2-0.3-0.3-0.6-0.2-1c0-0.2,0.2-0.3,0.4-0.2c0,0,0,0,0,0
		c0.2,0,0.3,0.2,0.2,0.4c0,0,0,0,0,0c0,0.2,0,0.3,0.1,0.4c0.2,0.2,0.8,0.6,2.5,0.5c0.2,0,0.3,0.1,0.3,0.3c0,0,0,0,0,0
		c0,0.2-0.1,0.3-0.3,0.3c0,0,0,0,0,0L105.2,146.5z"></path><path class="st2" d="M114.6,134.8c-1.9-4.8-4.2-5.7-4.2-5.7s-0.8-1,0.7-1.1s5.6,2.4,5.6,6.5c-0.4,1.6-1,3.2-1.7,4.6L114.6,134.8z"></path><path class="st2" d="M94.4,138.2c5.2-7.1,14.9-9.2,14.9-9.2s0.2-0.9-1.3-1.1s-9.4,2.3-12.3,5.4s-3.2,4.7-3.2,4.7
		C93.1,137.8,93.8,137.9,94.4,138.2z"></path><path class="st2" d="M108.3,127.5c-0.8-1-2-1.5-3.3-1.3c-0.7,0.1-0.8,0-0.8,0s1.3,2.1,2.4,2.3S108.3,127.5,108.3,127.5z"></path><path class="st2" d="M110,127.5c0.6-0.6,1.5-0.9,2.3-0.8c0.3,0,0.7,0,1-0.1c0,0-1.3,2.1-2.5,2c-0.5,0-0.9-0.3-0.9-0.7
		C109.9,127.7,110,127.6,110,127.5z"></path><path class="st2" d="M109.5,127.1c-1.4-0.5-2.5,0.5-2.4,1.3s1.9,1.5,2.8,1.4c0.7,0,1.3-0.4,1.8-0.9
		C112,128.5,110.7,127.1,109.5,127.1z"></path><path class="st1" d="M111.2,129.6c-0.2,0-0.3-0.1-0.3-0.3c0-0.1,0-0.2,0.1-0.3c0.2-0.2,0.2-0.5,0.1-0.7c-0.1-0.2,0-0.3,0.1-0.4
		s0.3,0,0.4,0.1c0,0,0,0,0,0.1c0.2,0.5,0.1,1.1-0.3,1.4C111.3,129.5,111.3,129.5,111.2,129.6z"></path><path class="st1" d="M107.2,129.1c-0.1,0-0.3-0.1-0.3-0.2c-0.3-0.7,0-1.6,0.7-1.9c0.1-0.1,0.3,0,0.4,0.1c0.1,0.1,0,0.3-0.1,0.4l0,0
		c-0.4,0.2-0.6,0.6-0.5,1.1c0,0,0,0,0,0.1c0.1,0.2,0,0.3-0.2,0.4C107.3,129,107.3,129,107.2,129.1L107.2,129.1z"></path><path class="st1" d="M107.2,128h-0.1c-0.8-0.3-1.5-0.8-2.2-1.3c-0.1-0.1-0.1-0.3,0-0.4c0.1-0.1,0.3-0.1,0.4,0c0,0,0,0,0,0
		c0.6,0.5,1.3,0.9,2,1.2c0.2,0.1,0.2,0.2,0.2,0.4C107.4,127.9,107.3,128,107.2,128z"></path><path class="st1" d="M111.1,128c-0.1,0-0.2-0.1-0.3-0.2c-0.1-0.2,0-0.3,0.2-0.4c0,0,0,0,0,0c0.5-0.2,1-0.4,1.4-0.7
		c0.1-0.1,0.3-0.1,0.4,0.1c0,0,0,0,0,0c0.1,0.1,0.1,0.3-0.1,0.4c-0.5,0.3-1,0.6-1.6,0.8L111.1,128z"></path><path class="st1" d="M104.8,193.4H60.5c-0.3,0-0.5-0.2-0.5-0.5s0.2-0.5,0.5-0.5h44.3c0.3,0,0.5,0.2,0.5,0.5
		S105.1,193.4,104.8,193.4z"></path><path class="st1" d="M135.8,206.4H60.5c-0.3,0-0.5-0.2-0.5-0.5c0-0.3,0.2-0.5,0.5-0.5h75.3c0.3,0,0.5,0.2,0.5,0.5
		C136.3,206.2,136.1,206.4,135.8,206.4z"></path></g></svg>