<svg transform="scale(1)" version="1.1" id="_x30_308_x5F_Web_Development_2" xmlns="http://www.w3.org/2000/svg" xmlns:xlink="http://www.w3.org/1999/xlink" x="0px" y="0px" viewBox="0 0 500 500" xml:space="preserve" class="show_show__wrapper__graphic__5Waiy "><title>React</title><style type="text/css">
	.st0{fill:#FFFFFF;}
	.st1{fill:#732A09;}
	.st2{fill:#F75454;}
</style><g id="UI-bar"><path class="st0" d="M78.5,121.2h364.3c4.9,0,8.9,4,8.9,8.9V313c0,4.9-4,8.9-8.9,8.9H78.5c-4.9,0-8.9-4-8.9-8.9V130.1
		C69.5,125.2,73.5,121.2,78.5,121.2z"></path><path class="st1" d="M442.8,322.4H78.5c-5.2,0-9.5-4.3-9.5-9.5V130.1c0-5.2,4.2-9.5,9.5-9.5h364.3c5.2,0,9.5,4.2,9.5,9.5V313
		C452.3,318.2,448,322.4,442.8,322.4z M78.5,121.7c-4.6,0-8.4,3.8-8.4,8.4V313c0,4.6,3.8,8.4,8.4,8.4h364.3c4.6,0,8.4-3.8,8.4-8.4
		V130.1c0-4.6-3.8-8.4-8.4-8.4H78.5z"></path><circle class="st2" cx="83.2" cy="136" r="3.4"></circle><path class="st1" d="M83.2,140c-2.2,0-3.9-1.8-3.9-3.9s1.8-3.9,3.9-3.9s3.9,1.8,3.9,3.9l0,0C87.1,138.2,85.4,140,83.2,140z
		 M83.2,133.2c-1.6,0-2.9,1.3-2.9,2.9s1.3,2.9,2.9,2.9c1.6,0,2.9-1.3,2.9-2.9l0,0C86,134.5,84.8,133.2,83.2,133.2L83.2,133.2z"></path><circle class="st2" cx="97.5" cy="136" r="3.4"></circle><path class="st1" d="M97.5,140c-2.2,0-3.9-1.8-3.9-3.9s1.8-3.9,3.9-3.9c2.2,0,3.9,1.8,3.9,3.9l0,0C101.4,138.2,99.6,140,97.5,140z
		 M97.5,133.2c-1.6,0-2.9,1.3-2.9,2.9s1.3,2.9,2.9,2.9c1.6,0,2.9-1.3,2.9-2.9l0,0C100.3,134.5,99,133.2,97.5,133.2L97.5,133.2z"></path><circle class="st2" cx="111.8" cy="136" r="3.4"></circle><path class="st1" d="M111.8,140c-2.2,0-3.9-1.8-3.9-3.9s1.8-3.9,3.9-3.9c2.2,0,3.9,1.8,3.9,3.9l0,0
		C115.7,138.2,113.9,140,111.8,140z M111.8,133.2c-1.6,0-2.9,1.3-2.9,2.9s1.3,2.9,2.9,2.9c1.6,0,2.9-1.3,2.9-2.9l0,0
		C114.6,134.5,113.3,133.2,111.8,133.2L111.8,133.2z"></path><path class="st1" d="M313.8,239.9h-2.7c-0.3,0-0.5-0.2-0.5-0.5c0-0.3,0.2-0.5,0.5-0.5h2.2v-2.2c0-0.3,0.2-0.5,0.5-0.5
		c0.3,0,0.5,0.2,0.5,0.5v2.7C314.3,239.7,314.1,239.9,313.8,239.9z"></path><path class="st1" d="M305.2,239.9h-5.8c-0.3,0-0.5-0.2-0.5-0.5c0-0.3,0.2-0.5,0.5-0.5h5.8c0.3,0,0.5,0.2,0.5,0.5
		C305.8,239.7,305.5,239.9,305.2,239.9z M293.6,239.9h-5.8c-0.3,0-0.5-0.2-0.5-0.5c0-0.3,0.2-0.5,0.5-0.5h5.8c0.3,0,0.5,0.2,0.5,0.5
		C294.1,239.7,293.9,239.9,293.6,239.9z M281.9,239.9h-5.8c-0.3,0-0.5-0.2-0.5-0.5c0-0.3,0.2-0.5,0.5-0.5h5.8c0.3,0,0.5,0.2,0.5,0.5
		C282.4,239.7,282.2,239.9,281.9,239.9z"></path><path class="st1" d="M270.2,239.9h-2.7c-0.3,0-0.5-0.2-0.5-0.5v-2.7c0-0.3,0.2-0.5,0.5-0.5s0.5,0.2,0.5,0.5v2.2h2.2
		c0.3,0,0.5,0.2,0.5,0.5C270.8,239.7,270.5,239.9,270.2,239.9z"></path><path class="st1" d="M267.5,231.4c-0.3,0-0.5-0.2-0.5-0.5V225c0-0.3,0.2-0.5,0.5-0.5s0.5,0.2,0.5,0.5v5.8
		C268.1,231.1,267.8,231.4,267.5,231.4z M267.5,219.7c-0.3,0-0.5-0.2-0.5-0.5v-5.8c0-0.3,0.2-0.5,0.5-0.5s0.5,0.2,0.5,0.5v5.8
		C268.1,219.5,267.8,219.7,267.5,219.7z M267.5,208.1c-0.3,0-0.5-0.2-0.5-0.5v-5.8c0-0.3,0.2-0.5,0.5-0.5s0.5,0.2,0.5,0.5v5.8
		C268.1,207.8,267.8,208.1,267.5,208.1z"></path><path class="st1" d="M267.5,196.4c-0.3,0-0.5-0.2-0.5-0.5v-2.7c0-0.3,0.2-0.5,0.5-0.5h2.7c0.3,0,0.5,0.2,0.5,0.5
		c0,0.3-0.2,0.5-0.5,0.5h-2.2v2.2C268.1,196.1,267.8,196.4,267.5,196.4z"></path><path class="st1" d="M305.2,193.7h-5.8c-0.3,0-0.5-0.2-0.5-0.5c0-0.3,0.2-0.5,0.5-0.5h5.8c0.3,0,0.5,0.2,0.5,0.5
		C305.8,193.4,305.5,193.7,305.2,193.7z M293.6,193.7h-5.8c-0.3,0-0.5-0.2-0.5-0.5c0-0.3,0.2-0.5,0.5-0.5h5.8c0.3,0,0.5,0.2,0.5,0.5
		C294.1,193.4,293.9,193.7,293.6,193.7z M281.9,193.7h-5.8c-0.3,0-0.5-0.2-0.5-0.5c0-0.3,0.2-0.5,0.5-0.5h5.8c0.3,0,0.5,0.2,0.5,0.5
		C282.4,193.4,282.2,193.7,281.9,193.7z"></path><path class="st1" d="M313.8,196.4c-0.3,0-0.5-0.2-0.5-0.5v-2.2h-2.2c-0.3,0-0.5-0.2-0.5-0.5c0-0.3,0.2-0.5,0.5-0.5h2.7
		c0.3,0,0.5,0.2,0.5,0.5v2.7C314.3,196.1,314.1,196.4,313.8,196.4z"></path><path class="st1" d="M313.8,231.4c-0.3,0-0.5-0.2-0.5-0.5V225c0-0.3,0.2-0.5,0.5-0.5c0.3,0,0.5,0.2,0.5,0.5v5.8
		C314.3,231.1,314.1,231.4,313.8,231.4z M313.8,219.7c-0.3,0-0.5-0.2-0.5-0.5v-5.8c0-0.3,0.2-0.5,0.5-0.5c0.3,0,0.5,0.2,0.5,0.5v5.8
		C314.3,219.5,314.1,219.7,313.8,219.7z M313.8,208.1c-0.3,0-0.5-0.2-0.5-0.5v-5.8c0-0.3,0.2-0.5,0.5-0.5c0.3,0,0.5,0.2,0.5,0.5v5.8
		C314.3,207.8,314.1,208.1,313.8,208.1z"></path><path class="st1" d="M409.7,180.3h-75.1c-7.3,0-13.1-5.9-13.1-13.1c0-7.3,5.9-13.1,13.1-13.1c0,0,0,0,0,0h75.1
		c7.3,0,13.1,5.9,13.1,13.1C422.8,174.4,417,180.3,409.7,180.3L409.7,180.3z M334.7,155.1c-6.7,0-12.1,5.4-12.1,12
		c0,6.7,5.4,12.1,12,12.1c0,0,0,0,0,0h75.1c6.7,0,12.1-5.4,12-12.1c0-6.7-5.4-12-12-12H334.7z"></path><path class="st1" d="M401.8,171.4c-3.1,0-5.6-2.5-5.6-5.6c0-3.1,2.5-5.6,5.6-5.6s5.6,2.5,5.6,5.6
		C407.4,168.9,404.9,171.4,401.8,171.4z M401.8,161.2c-2.5,0-4.5,2-4.5,4.5s2,4.5,4.5,4.5c2.5,0,4.5-2,4.5-4.5
		C406.3,163.3,404.3,161.3,401.8,161.2L401.8,161.2z"></path><path class="st1" d="M409.4,174.1c-0.1,0-0.3-0.1-0.4-0.2l-4.1-4.2c-0.2-0.2-0.2-0.6,0.1-0.8c0.2-0.2,0.5-0.2,0.7,0l4.1,4.2
		c0.2,0.2,0.2,0.6,0,0.8c0,0,0,0,0,0C409.7,174.1,409.6,174.1,409.4,174.1z"></path></g><g id="mobile-display"><path class="st2" d="M275.7,303.4h-84.6c-6,0-10.8-4.8-10.8-10.8V119.2c0-6,4.8-10.8,10.8-10.8h84.6c6,0,10.8,4.8,10.8,10.8v173.4
		C286.5,298.6,281.7,303.4,275.7,303.4z"></path><path class="st1" d="M275.7,303.9h-84.6c-6.3,0-11.4-5.1-11.4-11.4V119.3c0-6.3,5.1-11.4,11.4-11.4h84.6c6.3,0,11.3,5.1,11.4,11.4
		v173.3C287,298.9,282,303.9,275.7,303.9z M191.1,109c-5.7,0-10.3,4.6-10.3,10.3v173.3c0,5.7,4.6,10.3,10.3,10.3h84.6
		c5.7,0,10.3-4.6,10.3-10.3V119.2c0-5.7-4.6-10.3-10.3-10.3L191.1,109z"></path><path class="st0" d="M272.7,288.3h-78.6c-2.7,0-4.9-2.2-4.9-4.9V128.4c0-2.7,2.2-4.9,4.9-4.9h78.6c2.7,0,4.9,2.2,4.9,4.9v155.1
		C277.6,286.1,275.4,288.3,272.7,288.3z"></path><path class="st1" d="M272.7,288.9h-78.6c-3,0-5.4-2.4-5.4-5.4V128.4c0-3,2.4-5.4,5.4-5.4h78.6c3,0,5.4,2.4,5.4,5.4v155.1
		C278.1,286.5,275.7,288.9,272.7,288.9z M194.1,124c-2.4,0-4.3,1.9-4.3,4.3v155.1c0,2.4,1.9,4.3,4.3,4.3h78.6c2.4,0,4.3-1.9,4.3-4.3
		V128.4c0-2.4-1.9-4.3-4.3-4.3L194.1,124z"></path><circle class="st2" cx="243.6" cy="116.2" r="2"></circle><path class="st1" d="M243.6,118.8c-1.4,0-2.6-1.2-2.6-2.6s1.2-2.6,2.6-2.6c1.4,0,2.6,1.2,2.6,2.6l0,0
		C246.2,117.6,245,118.8,243.6,118.8z M243.6,114.7c-0.8,0-1.5,0.7-1.5,1.5c0,0.8,0.7,1.5,1.5,1.5c0.8,0,1.5-0.7,1.5-1.5
		c0,0,0,0,0,0C245.1,115.4,244.4,114.7,243.6,114.7C243.6,114.7,243.6,114.7,243.6,114.7z"></path><path class="st2" d="M236.3,118.2h-13.1c-1.1,0-2-0.9-2-2v0c0-1.1,0.9-2,2-2h13.1c1.1,0,2,0.9,2,2v0
		C238.3,117.3,237.4,118.2,236.3,118.2z"></path><path class="st1" d="M236.3,118.8h-13.1c-1.4-0.1-2.5-1.3-2.4-2.8c0.1-1.3,1.1-2.3,2.4-2.4h13.1c1.4-0.1,2.7,1,2.8,2.4
		c0.1,1.4-1,2.7-2.4,2.8C236.5,118.8,236.4,118.8,236.3,118.8z M223.2,114.7c-0.8,0.1-1.4,0.8-1.4,1.6c0.1,0.7,0.6,1.3,1.4,1.4h13.1
		c0.8,0.1,1.6-0.5,1.6-1.4c0.1-0.8-0.5-1.6-1.4-1.6c-0.1,0-0.2,0-0.3,0H223.2z"></path><rect class="st0" x="200.6" y="143.6" width="68.2" height="51.8"></rect><path class="st1" d="M268.8,196h-68.2c-0.3,0-0.5-0.2-0.5-0.5v-51.8c0-0.3,0.2-0.5,0.5-0.5h68.2c0.3,0,0.5,0.2,0.5,0.5v51.8
		C269.3,195.7,269.1,196,268.8,196z M201.1,194.9h67v-50.8h-67V194.9z"></path><path class="st1" d="M228,208.2h-27.4c-0.3,0-0.5-0.2-0.5-0.5c0-0.3,0.2-0.5,0.5-0.5H228c0.3,0,0.5,0.2,0.5,0.5
		C228.5,208,228.3,208.2,228,208.2z"></path><path class="st1" d="M268.8,220.5h-68.2c-0.3,0-0.5-0.2-0.5-0.5c0-0.3,0.2-0.5,0.5-0.5h68.2c0.3,0,0.5,0.2,0.5,0.5
		C269.3,220.3,269.1,220.5,268.8,220.5z"></path><path class="st1" d="M268.8,232.8h-68.2c-0.3,0-0.5-0.2-0.5-0.5c0-0.3,0.2-0.5,0.5-0.5h68.2c0.3,0,0.5,0.2,0.5,0.5
		C269.3,232.5,269.1,232.8,268.8,232.8z"></path></g><g id="character-1"><path class="st0" d="M160.3,214.7c9.9-18.8,14.5-31.4-1.7-43.2c-29.7-21.5-51.4,8.5-51.4,8.5c-28.7,9.4-28.2,97-28.2,97l82-2.6
		l3.4-6.6C173.2,250.7,171.6,230.2,160.3,214.7L160.3,214.7z"></path><path class="st1" d="M79.1,277.5c-0.1,0-0.3-0.1-0.4-0.2c-0.1-0.1-0.2-0.2-0.2-0.4c0.1-15.1,1.2-30.1,3.3-45.1
		c4.6-30.7,13-48.3,25.1-52.4c1.7-2.2,23.3-29.2,52-8.4c16.7,12.1,11.8,25.1,2,43.6c11.3,15.6,12.9,36.2,4,53.4l-3.4,6.6
		c-0.1,0.2-0.3,0.3-0.5,0.3L79.1,277.5L79.1,277.5z M137,164.3c-5.2,0.1-10.4,1.4-15,3.9c-5.6,3-10.5,7.2-14.4,12.1
		c-0.1,0.1-0.2,0.2-0.3,0.2c-26.9,8.8-27.7,88.4-27.8,95.9l81.2-2.6l3.2-6.3c8.7-16.9,7.1-37.2-4.2-52.5c-0.1-0.2-0.1-0.4,0-0.6
		c9.5-18.1,14.6-30.8-1.5-42.5C151.2,166.9,144.1,164.3,137,164.3L137,164.3z M161.1,274.4L161.1,274.4z"></path><path class="st2" d="M194.4,334.1l1.3,61.7c-0.1,3.1-2.1,5.7-5,6.7c-6.5,2.3-20.8,6.1-50.4,9.7c-46.3,5.7-86.1-8.1-86.1-8.1
		l1.3-15.1c-26.1-27.3,2.5-95.4,12.7-114.7s27.2-29.5,75.6-32.2c29.1-1.9,61.9,44.8,61.9,44.8L194.4,334.1z"></path><path class="st0" d="M162.4,314.4c2.4-17.8,6-34.3,6-34.3l75.2,0.1c0,0-17.1,90.5-18.8,92.3c-1.7,1.8-74.3,6.9-74.3,6.9
		L162.4,314.4z"></path><path class="st1" d="M150.5,379.9c-0.2,0-0.3-0.1-0.4-0.2c-0.1-0.1-0.2-0.3-0.1-0.5l11.9-65c2.4-17.6,6-34.2,6-34.4
		c0.1-0.2,0.3-0.4,0.5-0.4l0,0l75.2,0.1c0.2,0,0.3,0.1,0.4,0.2c0.1,0.1,0.2,0.3,0.1,0.4c-2.9,15.2-17.2,90.8-18.9,92.6
		C223.6,374.7,167.7,378.8,150.5,379.9L150.5,379.9z M168.8,280.6c-0.6,2.7-3.8,17.9-5.9,33.9l0,0l-11.7,64.4
		c28.6-2,71.3-5.4,73.3-6.7c1.2-2,11.7-55.5,18.4-91.4L168.8,280.6z M162.3,314.4L162.3,314.4z"></path><polygon class="st2" points="168.4,280 171.5,282.8 154.7,379.1 150.5,379.4 	"></polygon><path class="st1" d="M150.5,379.9c-0.2,0-0.3-0.1-0.4-0.2c-0.1-0.1-0.2-0.3-0.1-0.5l17.9-99.4c0-0.2,0.2-0.4,0.4-0.4
		c0.2-0.1,0.4,0,0.5,0.1l3.1,2.8c0.1,0.1,0.2,0.3,0.2,0.5l-16.8,96.3c0,0.2-0.3,0.4-0.5,0.4L150.5,379.9L150.5,379.9z M168.8,281.1
		l-17.6,97.8l3.1-0.2L171,283L168.8,281.1z"></path><path class="st0" d="M134.6,337c11.5-6.8,15.9-12.1,18.7-16.3c2.8-4.2,7.5-6.4,9.1-6.3l-1.9,10.7c0,0,8.8-2,15.4-4.3
		c6.6-2.3,10.4-6.6,12.6-5.7s-0.5,7.2-6.3,10s-12.6,5.3-12.6,5.3s8.3,1.2,13.8-1.3c5.5-2.5,8.4-4.2,8.6-1.7
		c0.2,2.5-8.9,10-21.3,11.9c3.6,0.7,7.4,0.5,10.9-0.5c6.3-1.7,6.2,2.9,2.8,4.5c-5.9,2.3-12.1,3.6-18.4,3.8c3,1.6,6.1,2.8,9.4,3.6
		c4.3,0.8,3.7,5.8-3.5,5.8s-19.2-2.6-22.7-5c0,0-1.7,5.3-4.7,5.9c-3,0.6-10.2-1.7-12.7-7.8C129.2,343.4,134.6,337,134.6,337z"></path><path class="st1" d="M143.4,357.9c-3.5,0-9.9-2.5-12.2-8.2c-2.6-6.4,2.8-12.8,3-13.1l0.1-0.1c11.2-6.6,15.6-11.9,18.5-16.2
		c2.9-4.3,7.9-6.7,9.6-6.5c0.2,0,0.3,0.1,0.4,0.2c0.1,0.1,0.1,0.3,0.1,0.4l-1.8,9.9c2.3-0.6,9.2-2.2,14.5-4.1c2.6-1,5.1-2.3,7.5-3.8
		c2.4-1.4,4.1-2.5,5.4-1.9c0.7,0.3,1.1,1,1.1,1.8c0.1,2.3-2.5,6.9-7.3,9.3c-3.8,1.8-8,3.5-10.4,4.5c2.8,0.2,7.7,0.1,11.2-1.5l2.1-1
		c3.4-1.6,5.3-2.4,6.5-1.8c0.5,0.3,0.8,0.9,0.8,1.5c0.3,2.8-7.6,9.2-18.2,11.8c2.4,0,4.8-0.3,7.1-0.9c4.4-1.2,5.4,0.7,5.7,1.3
		c0.5,1.5-0.6,3.3-2.5,4.2c-5.3,2.1-10.9,3.3-16.5,3.8c2.3,1.2,4.8,2,7.4,2.6c2.3,0.4,3.2,1.9,3.2,3.2c-0.2,1.8-2.3,3.6-6.7,3.6
		c-7.1,0-18.3-2.4-22.4-4.8c-0.6,1.5-2.3,5.1-4.9,5.6C144.1,357.9,143.8,358,143.4,357.9z M135,337.4c-0.6,0.7-5,6.5-2.8,11.9
		c2.4,5.9,9.2,8,12.1,7.5c2.2-0.4,3.9-4.1,4.3-5.5c0.1-0.2,0.2-0.3,0.3-0.3c0.2-0.1,0.3,0,0.5,0.1c3.3,2.3,15.1,4.9,22.2,4.9h0.1
		c3.7,0,5.5-1.4,5.7-2.7c0.1-1-0.8-1.8-2.3-2.1c-3.3-0.8-6.5-2-9.5-3.7c-0.2-0.1-0.3-0.4-0.3-0.6c0.1-0.2,0.3-0.4,0.5-0.4
		c6.2-0.3,12.4-1.6,18.2-3.8c1.5-0.7,2.2-2,1.9-2.8c-0.3-0.8-1.6-1.4-4.3-0.6c-3.6,1-7.5,1.2-11.2,0.6c-0.3,0-0.5-0.2-0.5-0.5
		c0-0.3,0.2-0.5,0.5-0.5c12.6-1.9,21-9.4,20.9-11.3c0-0.4-0.1-0.6-0.3-0.7c-0.7-0.4-2.9,0.6-5.4,1.8l-2.1,1
		c-5.6,2.5-13.8,1.4-14.1,1.4c-0.2,0-0.4-0.2-0.5-0.5c0-0.2,0.1-0.5,0.3-0.6c0.1,0,6.8-2.5,12.5-5.3c4.3-2.1,6.8-6.2,6.7-8.2
		c0-0.4-0.2-0.7-0.4-0.8c-0.9-0.3-2.5,0.6-4.5,1.9c-2.4,1.6-5,2.9-7.7,3.9c-6.5,2.3-15.3,4.3-15.4,4.3c-0.2,0-0.4,0-0.5-0.1
		c-0.1-0.1-0.2-0.3-0.2-0.5l1.8-10c-3.3,1-6.1,3.1-8,6C150.8,325.4,146.3,330.8,135,337.4L135,337.4z"></path><path class="st1" d="M149.1,352c-0.1,0-0.2,0-0.3-0.1c-3-2.3-6.4-6.3-5.8-12.2c0-0.3,0.3-0.5,0.6-0.5c0.3,0,0.5,0.3,0.5,0.6
		c-0.5,5.4,2.6,9.1,5.4,11.2c0.2,0.2,0.3,0.5,0.1,0.8C149.5,351.9,149.3,352,149.1,352L149.1,352z"></path><polygon class="st0" points="171.5,282.8 243.6,280.1 240.2,276.5 168.4,280 	"></polygon><path class="st1" d="M171.5,283.4c-0.1,0-0.3,0-0.4-0.1l-3.1-2.8c-0.2-0.2-0.2-0.4-0.1-0.6c0.1-0.2,0.3-0.3,0.5-0.4l71.8-3.6
		c0.2,0,0.3,0.1,0.4,0.2l3.4,3.7c0.1,0.2,0.2,0.4,0.1,0.6c-0.1,0.2-0.3,0.3-0.5,0.3L171.5,283.4L171.5,283.4z M169.7,280.5l2,1.8
		l70.7-2.7L240,277L169.7,280.5z"></path><path class="st1" d="M78.8,355.5c-0.1,0-0.2,0-0.2-0.1c-0.3-0.1-0.4-0.5-0.2-0.7c10.6-20.9,16.3-41.2,16.6-58.8
		c0.2-13.7-3-25.8-8.8-33.2c-0.2-0.2-0.2-0.6,0.1-0.8c0.2-0.2,0.6-0.2,0.8,0.1c0,0,0,0,0,0.1c5.9,7.6,9.2,19.9,9,33.8
		c-0.2,17.7-6,38.2-16.7,59.2C79.2,355.4,79,355.5,78.8,355.5z"></path><path class="st1" d="M69.5,358.8c-0.2,0-0.4-0.1-0.5-0.3c-0.1-0.3,0-0.6,0.3-0.7c0,0,0,0,0,0c1.1-0.4,5.2-1.9,10.5-3.7
		c12.1-4.3,30.3-10.7,33.5-12.4c0.5-0.3,1.1-0.6,1.7-1c9.5-5.5,18.7-10.2,22-7.4c0.2,0.2,0.3,0.5,0.1,0.8c-0.2,0.2-0.5,0.3-0.8,0.1
		c-3.2-2.7-15.5,4.5-20.8,7.5c-0.7,0.4-1.3,0.7-1.7,1c-3.2,1.8-21.5,8.2-33.7,12.5c-5.2,1.8-9.4,3.2-10.5,3.7
		C69.7,358.8,69.6,358.8,69.5,358.8z"></path><path class="st1" d="M74.3,393.3c-6.8,0-12.6-0.9-16.4-2.6c-0.3-0.1-0.4-0.4-0.3-0.7c0.1-0.3,0.4-0.4,0.7-0.3
		c8.7,4,32.6,4.3,58.2-7.3c23.6-10.7,33.2-21.2,32.3-26.9c-0.1-0.3,0.1-0.6,0.4-0.6c0,0,0,0,0,0c0.3,0,0.6,0.2,0.6,0.4
		c0.9,5.6-7.1,16.4-32.9,28.1c-11.2,5.2-23.3,8.4-35.6,9.6C78.9,393.2,76.5,393.3,74.3,393.3z"></path><path class="st1" d="M179.3,280c-0.3,0-0.5-0.2-0.5-0.5c-0.6-4.3-1.7-8.4-3.5-12.4c-0.1-0.3,0-0.6,0.3-0.7c0.3-0.1,0.6,0,0.7,0.3
		c0,0,0,0,0,0c1.9,4,3.1,8.3,3.6,12.7C179.8,279.7,179.6,280,179.3,280C179.3,280,179.3,280,179.3,280L179.3,280z"></path><path class="st0" d="M109.7,227.5c1.1,8.5,1,17.2-0.3,25.7c0,0,16.6,2.8,22.2-1.5l-0.9-15.7L109.7,227.5z"></path><path class="st1" d="M120.4,254.7c-3.7,0-7.4-0.3-11-0.9c-0.3,0-0.5-0.3-0.4-0.6c0,0,0,0,0,0c1.3-8.5,1.4-17.1,0.3-25.6
		c0-0.2,0-0.4,0.2-0.5c0.2-0.1,0.4-0.1,0.5-0.1l21,8.6c0.2,0.1,0.3,0.3,0.3,0.5l0.9,15.7c0,0.2-0.1,0.4-0.2,0.5
		C129.4,254.1,124.8,254.7,120.4,254.7z M110.1,252.8c2.8,0.4,16,2.2,21-1.3l-0.9-15.1l-19.9-8.1
		C111.3,236.4,111.2,244.7,110.1,252.8z"></path><path class="st0" d="M156.7,192.3c0,0,19.1,43.3-6.4,50.7c-25.6,7.3-43.5-10.6-43.5-10.6c-8.5,4.4-15.9-3.1-11.4-6.9
		c4.5-3.9,9.7,2.3,9.7,2.3"></path><path class="st1" d="M138.1,245.3c-17.3,0-29.3-10.4-31.3-12.3c-5.3,2.6-10.3,0.8-12.3-2.2c-1.4-1.8-1.1-4.4,0.7-5.8
		c1.1-1,2.6-1.5,4-1.4c3.4,0.3,6.3,3.6,6.4,3.8c0.2,0.2,0.1,0.6-0.1,0.8c-0.2,0.2-0.6,0.2-0.7-0.1c0,0,0,0,0,0c0,0-2.7-3.2-5.7-3.4
		c-1.2-0.1-2.4,0.3-3.2,1.1c-1.3,1.1-1.5,3-0.5,4.3c1.6,2.3,6.1,4.3,11.3,1.7c0.2-0.1,0.5-0.1,0.6,0.1c0.2,0.2,18,17.7,42.9,10.5
		c4.7-1.2,8.7-4.5,10.7-8.9c6.9-14.7-4.5-40.7-4.6-41c-0.1-0.3,0-0.6,0.3-0.7c0.3-0.1,0.6,0,0.7,0.3c0,0,0,0,0,0
		c2.1,4.9,3.7,10,5,15.2c2.7,11.4,2.6,20.4-0.4,26.7c-2.2,4.7-6.4,8.2-11.4,9.5C146.4,244.6,142.3,245.2,138.1,245.3z"></path><path class="st1" d="M103.6,230.4c-0.1,0-0.3-0.1-0.3-0.2c-0.1-0.2-2.7-3.9-5.7-2.2c-0.2,0.1-0.4,0-0.6-0.2c-0.1-0.2,0-0.4,0.2-0.6
		l0,0c3-1.7,5.8,0.8,6.8,2.4c0.1,0.2,0.1,0.4-0.1,0.6C103.8,230.4,103.7,230.4,103.6,230.4z"></path><path class="st1" d="M131.5,211.5c-0.8,0-1.6-0.1-2.4-0.1c-0.8,0-1.6,0-2.4,0.1c-0.8,0.1-1.6,0.2-2.4,0.3c-0.8,0.1-1.6,0.3-2.5,0.4
		l0,0c-0.3,0-0.6-0.2-0.7-0.5c0,0,0,0,0,0c0-0.2,0.1-0.5,0.3-0.6c1.5-1,3.3-1.6,5.1-1.7c0.9-0.1,1.8,0,2.7,0.1
		c0.9,0.1,1.8,0.4,2.6,0.8c0.3,0.2,0.4,0.5,0.3,0.9C132,211.3,131.8,211.4,131.5,211.5L131.5,211.5z"></path><path class="st1" d="M156.2,206.6c-0.9,0.1-1.9,0.3-2.8,0.4s-1.8,0.3-2.8,0.5l-2.8,0.6c-0.9,0.2-1.9,0.4-2.8,0.6l0,0
		c-0.3,0.1-0.7-0.2-0.7-0.5c0,0,0,0,0,0c0-0.3,0.1-0.5,0.3-0.6c1.7-1,3.6-1.7,5.6-2.1c1-0.2,2-0.3,3-0.3c1,0,2.1,0,3.1,0.2
		c0.3,0.1,0.6,0.4,0.5,0.7c0,0.3-0.3,0.5-0.5,0.5L156.2,206.6z"></path><path class="st1" d="M147.1,225.1L147.1,225.1c-2.3,0-4.1-1.7-4.4-3.9c0-0.3,0.2-0.6,0.5-0.6c0.3,0,0.6,0.2,0.6,0.5
		c0.2,1.7,1.6,2.9,3.3,2.9c1.2,0.1,2.2-0.8,2.3-2c0-0.1,0-0.1,0-0.2c0.1-0.6-0.1-1.2-0.5-1.6c-1.2-1.2-3.9-1.1-3.9-1.1
		c-0.3,0-0.5-0.2-0.6-0.5c-0.4-3.5-0.4-7.1-0.2-10.7c0-0.3,0.3-0.5,0.6-0.5c0.3,0,0.5,0.3,0.5,0.6c0,0,0,0,0,0
		c-0.2,3.3-0.2,6.6,0.1,10c1.5-0.1,3,0.4,4.2,1.4c0.6,0.7,0.9,1.6,0.8,2.5C150.4,223.8,149,225.2,147.1,225.1
		C147.1,225.1,147.1,225.1,147.1,225.1z"></path><path class="st1" d="M126.3,218.3c0.3,1.7,1.5,2.9,2.7,2.7c1.2-0.2,1.9-1.8,1.6-3.5c-0.1-0.5-0.3-1-0.5-1.4l-1.8,1.5l0.5-2.7
		c-0.3-0.1-0.6-0.1-0.9-0.1C126.7,215.1,126,216.6,126.3,218.3z"></path><path class="st1" d="M149.9,213.9c0.3,1.7,1.5,2.9,2.7,2.7c1.2-0.2,1.9-1.8,1.6-3.5c-0.1-0.5-0.3-1-0.5-1.4l-1.8,1.5l0.5-2.7
		c-0.3-0.1-0.6-0.1-0.9-0.1C150.3,210.7,149.6,212.2,149.9,213.9z"></path><path class="st1" d="M139.5,234.2c-0.3,0-0.5,0-0.8-0.1c-1.8-0.4-3.2-1.7-3.9-3.4c-0.1-0.3,0-0.6,0.3-0.7c0,0,0,0,0,0
		c0.3-0.1,0.6,0,0.7,0.3c0.5,1.4,1.6,2.4,3.1,2.8c1.5,0.3,3.2-0.5,4.7-2.2c0.2-0.2,0.6-0.2,0.8,0c0,0,0,0,0,0c0.2,0.2,0.2,0.5,0,0.8
		c0,0,0,0,0,0C143.2,233.2,141.4,234.1,139.5,234.2z"></path><path class="st1" d="M105.1,228.3c-0.1,0-0.3-0.1-0.4-0.2c-0.2-0.2-0.2-0.5,0-0.8c0,0,0,0,0,0c11.9-12.8,10.8-32.5,10.8-32.6
		c0-0.2,0.1-0.3,0.2-0.5c0.1-0.1,0.3-0.1,0.5-0.1c21,5.8,43.5-4,43.7-4.1c0.3-0.1,0.6,0,0.7,0.3c0.1,0.3,0,0.6-0.3,0.7
		c-0.2,0.1-22.5,9.8-43.7,4.3c0.1,3.8-0.3,21-11.1,32.7C105.4,228.2,105.2,228.3,105.1,228.3z"></path><path class="st2" d="M156.1,222.8c-0.4,0-0.8,0-1.1-0.1c-4.7-0.8-7.8-6.1-6.9-11.8c0.4-2.7,1.7-5.1,3.7-7c1.8-1.7,4.2-2.5,6.6-2.2
		c4.7,0.8,7.8,6.1,6.9,11.8l0,0C164.4,219,160.4,222.8,156.1,222.8z M157.2,202.8c-1.8,0-3.5,0.7-4.7,1.9c-1.8,1.7-3,3.9-3.3,6.3
		c-0.8,5.2,1.9,9.9,6,10.6c4.1,0.7,8.2-3,9-8.2c0.8-5.2-1.9-9.9-6-10.6C157.8,202.8,157.5,202.8,157.2,202.8L157.2,202.8z
		 M164.7,213.6L164.7,213.6z"></path><path class="st2" d="M130.9,226.8c-0.4,0-0.8,0-1.1-0.1c-2.4-0.4-4.5-1.9-5.6-4.1c-2.6-4.9-1.6-10.9,2.4-14.7c3-3,7.8-3,10.8,0
		c0.6,0.6,1,1.2,1.4,1.9c1.3,2.4,1.8,5.1,1.3,7.7l0,0c-0.4,2.7-1.7,5.1-3.7,7C134.9,226,133,226.8,130.9,226.8z M132,206.8
		c-1.8,0-3.5,0.7-4.7,1.9c-3.6,3.5-4.5,8.9-2.2,13.4c1.6,3.3,5.6,4.6,8.8,2.9c0.6-0.3,1.2-0.7,1.7-1.2c1.8-1.7,3-3.9,3.3-6.3l0,0
		c0.4-2.4,0-4.9-1.2-7c-1-1.9-2.8-3.2-4.8-3.6C132.6,206.8,132.3,206.8,132,206.8L132,206.8z"></path><path class="st2" d="M139.6,215.9c-0.1,0-0.3,0-0.4-0.1c-0.2-0.2-0.3-0.5-0.1-0.7c0,0,0,0,0,0c3.7-4.5,9.4-2,9.4-2
		c0.3,0.1,0.4,0.4,0.3,0.7c-0.1,0.3-0.5,0.4-0.7,0.3c-0.2-0.1-5-2.2-8.1,1.7C139.9,215.8,139.8,215.9,139.6,215.9z"></path><path class="st2" d="M103.7,223.8c-0.3,0-0.6-0.2-0.6-0.5c0-0.3,0.2-0.6,0.5-0.6l19.6-4.6c0.3-0.1,0.6,0.1,0.7,0.4
		c0.1,0.3-0.1,0.6-0.4,0.7l0,0l-19.6,4.6L103.7,223.8z"></path></g><g id="character-2"><path class="st0" d="M267.5,251.5c-6-10-0.8-16.7-3.3-21.5c-2.5-4.8-9.7-9.1-11.7-9.7c-1.9-0.7-1.1,3.1-1.1,3.1l-9.2-16.2
		c-3.2-5.7-5.1-9.5-7.5-8.3s-0.6,8.5,8.5,25.9c0,0-5.7-2.9-6.5,3c0,0-7.4-1.8-5.6,6.4c0,0-6.6,1.5-5.6,6.2s7.7,11.5,11.4,12.8
		s10.3,9.1,10.3,9.1S259.7,261.5,267.5,251.5z"></path><path class="st1" d="M247.5,262.8c-0.2,0-0.3-0.1-0.4-0.2c-0.1-0.1-6.5-7.7-10.1-8.9c-4-1.3-10.8-8.4-11.8-13.2
		c-0.8-3.8,3-6,5.5-6.7c-0.5-2.5-0.1-4.3,1.1-5.5c1.3-1.1,3-1.5,4.7-1.1c0.2-1.3,0.9-2.5,2.1-3.2c1.2-0.5,2.5-0.6,3.7-0.2
		c-6.8-13.2-9.6-21.1-8.7-24.1c0.2-0.6,0.6-1.1,1.1-1.3c2.7-1.4,4.6,2.1,7.5,7.3l8.7,15.4c0-0.4,0.2-0.8,0.5-1.1
		c0.4-0.3,0.9-0.4,1.4-0.2c1.7,0.6,9.3,4.9,11.9,10c1.1,2.1,0.8,4.3,0.6,7c-0.4,3.8-0.8,8.6,2.7,14.5c0.1,0.2,0.1,0.4,0,0.6
		C260.1,261.9,247.7,262.9,247.5,262.8L247.5,262.8z M235.3,228.2c-1-0.1-2,0.3-2.8,0.9c-1,0.9-1.2,2.6-0.6,5
		c0.1,0.3-0.1,0.6-0.4,0.6c0,0,0,0,0,0c-0.2,0.1-6.1,1.4-5.2,5.5c0.9,4.4,7.4,11.2,11.1,12.4c3.7,1.2,9.3,7.7,10.4,9
		c1.8-0.2,12.2-1.7,19.2-10.2c-3.5-6.1-3-10.9-2.7-14.8c0.2-2.5,0.4-4.6-0.5-6.4c-2.4-4.6-9.4-8.8-11.4-9.5c-0.1,0-0.3-0.1-0.3,0
		c-0.3,0.2-0.2,1.5,0,2.5c0.1,0.3-0.1,0.6-0.4,0.7c-0.3,0.1-0.5,0-0.6-0.3l-9.8-17.5c-2.8-5.1-4.4-7.7-6.1-6.8
		c-0.3,0.1-0.5,0.4-0.5,0.7c-0.6,1.9,0.5,7.7,9.3,24.5c0.1,0.3,0,0.6-0.2,0.7c-0.2,0.1-0.3,0.1-0.5,0c0,0-2.4-1.2-4.1-0.3
		c-1,0.7-1.6,1.8-1.6,2.9c0,0.1-0.1,0.3-0.2,0.4c-0.1,0.1-0.3,0.1-0.4,0.1C236.3,228.3,235.8,228.2,235.3,228.2L235.3,228.2z"></path><path class="st1" d="M258.6,236.9c-0.2,0-0.4-0.1-0.5-0.3c-4.7-8-7.1-13-7.1-13c-0.1-0.3,0-0.6,0.2-0.7s0.6,0,0.7,0.2
		c0,0,2.4,5,7.1,13c0.2,0.3,0.1,0.6-0.2,0.7c0,0,0,0,0,0C258.8,237,258.7,237,258.6,236.9z"></path><path class="st1" d="M246.2,240.2c-1.2-0.1-2.4-0.5-3.4-1.2c-0.2-0.2-0.3-0.5-0.1-0.7c0,0,0,0,0,0c0.2-0.2,0.5-0.3,0.7-0.2
		c0.9,0.7,2.1,1,3.2,1c0.4-0.1,0.8-0.3,1-0.7c1.1-1.7-0.5-7-3.9-12.3c-0.2-0.2-0.1-0.6,0.2-0.7c0,0,0,0,0,0c0.3-0.2,0.6-0.1,0.7,0.2
		c0,0,0,0,0,0c2.3,3.7,5.7,10.6,3.8,13.4c-0.4,0.6-1,1-1.7,1.1C246.6,240.1,246.4,240.2,246.2,240.2z"></path><path class="st1" d="M239.7,243.2c-0.2,0-0.3,0-0.5,0c-0.3,0-0.5-0.3-0.5-0.6c0-0.3,0.3-0.5,0.6-0.5c0.1,0,2.5,0.2,3.1-1.7
		s-1.4-7.8-5.4-11.3c-0.2-0.2-0.2-0.6,0-0.8c0,0,0,0,0,0c0.2-0.2,0.5-0.2,0.8,0c4,3.5,6.5,9.7,5.7,12.4
		C242.9,242.3,241.4,243.3,239.7,243.2z"></path><path class="st1" d="M237.7,246.9c-2.1,0-5.4-1.9-7.8-5.3c-0.2-0.2-0.1-0.6,0.1-0.8c0.2-0.2,0.6-0.1,0.8,0.1c0,0,0,0,0,0
		c2.5,3.6,5.8,5.1,7.3,4.8c0.4,0,0.7-0.3,0.7-0.7c0.5-2.3-1.9-8-6.6-9.7c-0.3-0.1-0.4-0.4-0.3-0.7c0,0,0,0,0,0
		c0.1-0.3,0.4-0.4,0.7-0.3c0,0,0,0,0,0c5.2,2,7.9,8.3,7.3,11c-0.2,0.8-0.8,1.4-1.6,1.5C238.1,246.9,237.9,246.9,237.7,246.9z"></path><path class="st1" d="M232.9,246.8c-0.1,0-0.3-0.1-0.4-0.1c-1.3-1.1-1.9-2.7-1.8-4.3c0-0.3,0.3-0.5,0.6-0.5c0.3,0,0.5,0.3,0.5,0.6
		c-0.1,1.3,0.5,2.5,1.4,3.3c0.2,0.2,0.3,0.5,0.1,0.8C233.2,246.7,233.1,246.7,232.9,246.8L232.9,246.8z"></path><path class="st1" d="M249.3,233.7c-0.1,0-0.3-0.1-0.4-0.2c-0.2-0.2-0.2-0.5,0-0.8c0,0,0,0,0,0c1.7-1.6,3.9-2.6,6.3-2.9
		c0.3,0,0.6,0.2,0.6,0.5c0,0,0,0,0,0c0,0.3-0.2,0.5-0.5,0.6c0,0,0,0,0,0c-2.1,0.2-4.1,1.2-5.6,2.6
		C249.5,233.6,249.4,233.7,249.3,233.7z"></path><path class="st2" d="M262.5,249.6c5.5-2.3,8.8,0.5,13.4,7.5c4.6,7,17.1,30.5,17.1,30.5s33.5-28.3,56.3-29.9
		c22.8-1.5,66.7,12.8,79.5,39.6c12.8,26.8,11.7,97.7,11.7,97.7H303.8c0,0-2.3-41.9,3.2-68.2c0,0-21.1,15.7-35.7-0.4
		c-14.6-16.1-31-61.3-31-61.3s0-4.1,6.3-7.6C252.9,254,262.5,249.6,262.5,249.6z"></path><path class="st1" d="M408.1,389c-0.3,0-0.5-0.2-0.5-0.5l-4.8-89.2c0-0.3,0.2-0.5,0.5-0.6c0.3,0,0.5,0.2,0.6,0.5c0,0,0,0,0,0
		l4.8,89.2C408.7,388.7,408.5,388.9,408.1,389L408.1,389z"></path><path class="st1" d="M308.5,322.4L308.5,322.4c-0.4,0-0.6-0.3-0.5-0.6c0-0.2,3.1-21.2,7.4-35.4c0.1-0.3,0.4-0.5,0.7-0.4
		c0.3,0.1,0.5,0.4,0.4,0.7c-4.3,14.1-7.3,35-7.3,35.2C309,322.3,308.8,322.5,308.5,322.4z"></path><path class="st0" d="M327.6,219.7c0,0-8.5-7.7-8.9-12.7c-0.4-5,2.3-10.1,2.3-10.1s5.4-22,25.7-17.3c0,0,16.7-3.1,24.4,2.5
		c7.6,5.6,10.5,8.7,10.5,8.7s12.2,2.7,13.5,10.3c1.3,7.6,4.6,6.3,4.9,11.4c0.3,5.2-2.3,6.8-1.2,10.2c1.1,3.5,2.2,6.3,0,9
		s-5.4,4.5-3.7,7.1c1.7,2.6,0.1,7.4-3.4,8s-3.6,4-9.2,4.2s-12.9-4.2-12.9-4.2L327.6,219.7z"></path><path class="st1" d="M382,251.6c-5.7,0-12.4-4.1-12.7-4.3l-41.9-27.2l-0.1-0.1c-0.4-0.3-8.7-7.9-9.1-13.1c-0.4-4.8,2-9.7,2.4-10.4
		c0.4-1.3,6.3-22.2,26.2-17.6c1.6-0.3,17.2-2.9,24.7,2.6c3.7,2.6,7.2,5.5,10.4,8.7c1.6,0.4,12.5,3.2,13.8,10.7
		c0.3,2.4,1.3,4.7,2.9,6.6c1.3,1.3,2,3.1,2,4.9c0.1,2-0.2,4-0.9,5.8c-0.6,1.3-0.7,2.8-0.3,4.3l0.2,0.6c1.1,3.2,1.9,6.1-0.3,8.9
		c-0.6,0.7-1.2,1.4-1.9,2c-1.8,1.8-2.8,3-1.8,4.4c1,1.7,1.1,3.7,0.2,5.4c-0.7,1.8-2.2,3.1-4,3.4c-1.2,0.2-2.2,0.8-3,1.7
		c-1.7,1.6-3.9,2.5-6.3,2.5L382,251.6z M328,219.3l41.9,27.2c0.1,0,7.1,4.3,12.6,4.1c2.1,0,4.1-0.8,5.6-2.3c1-1,2.2-1.6,3.5-1.9
		c1.5-0.3,2.7-1.3,3.2-2.8c0.7-1.4,0.6-3.1-0.2-4.4c-1.5-2.3,0.2-4.1,2-5.8c0.6-0.6,1.2-1.2,1.8-1.9c1.9-2.4,1.1-4.8,0.1-7.9
		l-0.2-0.6c-0.5-1.6-0.3-3.4,0.3-4.9c0.6-1.7,0.9-3.6,0.8-5.4c0-1.6-0.7-3.1-1.8-4.3c-1.7-2-2.8-4.5-3.1-7.1
		c-1.2-7.2-13-9.8-13.1-9.9c-0.1,0-0.2-0.1-0.3-0.2c-3.2-3.2-6.7-6.1-10.4-8.7c-7.4-5.4-23.8-2.4-23.9-2.4c-0.1,0-0.1,0-0.2,0
		c-8.2-1.9-14.9,0.3-19.9,6.6c-2.4,3-4.1,6.5-5.1,10.2c0,0,0,0.1,0,0.1s-2.6,5.1-2.3,9.8C319.6,211.5,327.4,218.8,328,219.3z"></path><path class="st0" d="M376.7,245.2c-0.6,9.4-0.5,20.3-0.5,20.3s-3.3,8.5-12.6,8.2c-9.3-0.3-8.6-8.2-8.4-9.7c0.2-1.6,2.2-6.7,2.6-8.4
		S376.7,245.2,376.7,245.2z"></path><path class="st1" d="M364.1,274.3h-0.6c-3.2-0.1-5.5-1.1-7.1-2.9c-2.2-2.6-2-6.1-1.8-7.5c0.4-1.8,0.9-3.5,1.6-5.2
		c0.4-1.3,0.9-2.6,1-3.2c0.4-1.8,13.6-8.1,19.2-10.7c0.2-0.1,0.4-0.1,0.5,0c0.2,0.1,0.2,0.3,0.2,0.5c-0.6,9.2-0.5,20.2-0.5,20.3
		c0,0.1,0,0.1,0,0.2C376.6,265.8,373.2,274.3,364.1,274.3z M376.1,246.1c-8.5,4-17.3,8.6-17.8,9.6c-0.2,0.7-0.6,1.9-1.1,3.2
		c-0.6,1.6-1.1,3.3-1.5,5c-0.2,1.2-0.3,4.3,1.6,6.6c1.3,1.6,3.5,2.4,6.3,2.5c8.4,0.3,11.6-6.8,12-7.7
		C375.6,264.3,375.5,254.6,376.1,246.1L376.1,246.1z"></path><path class="st0" d="M346.2,260.5c23.1,3.2,37.5-23.3,37.5-23.3s10.6,0.7,10.2-9.3c-0.3-6.9-6.5-6.9-6.5-6.9l-4.7,12.9l-4.3-0.2
		c0,0,2.3-5.6,1.9-7.7c-0.5-2.1-4.5-9.3-18.5-10.6c-4.7-0.4-8.3-3.6-10.8-7.3c-4.2-0.2-8.1-2.1-10.8-5.3c-3.4,3.2-8,6.9-13.2,8.6
		C322.6,233.2,326,257.6,346.2,260.5z"></path><path class="st1" d="M350,261.3c-1.3,0-2.7-0.1-4-0.3l0,0c-6-0.7-11.5-4-15-9c-6.3-8.8-8.1-23.7-4.8-40.8c0-0.2,0.2-0.4,0.4-0.4
		c5.2-1.7,10-5.5,13-8.4c0.1-0.1,0.3-0.2,0.4-0.2c0.2,0,0.3,0.1,0.4,0.2c2.6,3.1,6.4,5,10.5,5.2c0.2,0,0.3,0.1,0.4,0.2
		c3.1,4.3,6.6,6.7,10.5,7c13.9,1.3,18.4,8.4,19,11c0.4,1.8-1,5.7-1.6,7.3l3.2,0.2l4.6-12.5c0.1-0.2,0.3-0.4,0.5-0.4l0,0
		c0.2,0,6.7,0.1,7,7.4c0.3,2.6-0.6,5.2-2.4,7.1c-2.7,2.7-6.8,2.8-8,2.8C382.4,240.5,369.7,261.3,350,261.3z M346.2,259.9
		c22.5,3.2,36.8-22.7,37-23c0.1-0.2,0.3-0.3,0.5-0.3c0,0,4.7,0.3,7.5-2.5c1.6-1.7,2.3-4,2.1-6.3c-0.3-5.4-4.3-6.2-5.6-6.3l-4.6,12.6
		c-0.1,0.2-0.3,0.4-0.5,0.4l-4.3-0.2c-0.2,0-0.3-0.1-0.4-0.2c-0.1-0.2-0.1-0.3,0-0.5c0.6-1.5,2.2-5.8,1.8-7.4c0-0.1-2.3-8.7-18-10.2
		c-4.1-0.4-7.9-2.8-11.1-7.3c-4.1-0.2-7.9-2.1-10.6-5.1c-3,2.9-7.6,6.5-12.7,8.2c-3.1,16.7-1.4,31.1,4.7,39.6
		C335.3,256.1,340.5,259.2,346.2,259.9L346.2,259.9z"></path><path class="st1" d="M353,222.6c0.8-0.8,1.7-1.4,2.8-1.8c1.1-0.4,2.3-0.6,3.4-0.5c1.2,0.1,2.3,0.5,3.2,1.2c0.5,0.3,0.9,0.7,1.3,1.1
		c0.4,0.4,0.7,0.8,1,1.3c0.2,0.2,0.1,0.6-0.1,0.7c0,0,0,0,0,0c-0.2,0.1-0.4,0.1-0.6,0l-0.1-0.1c-0.4-0.3-0.8-0.6-1.2-0.9l-0.6-0.4
		c-0.2-0.1-0.4-0.3-0.6-0.4c-1.6-0.9-3.4-1.1-5.2-0.6c-0.9,0.3-1.8,0.6-2.6,1.1h-0.1c-0.3,0.1-0.6,0-0.7-0.2c0,0,0,0,0,0
		C352.9,223.1,352.9,222.8,353,222.6z"></path><path class="st1" d="M331.6,217.7c0.4-0.6,1-1,1.7-1.3c0.6-0.3,1.2-0.4,1.9-0.5c1.3-0.2,2.6-0.1,3.8,0.3c1.2,0.4,2.4,0.9,3.3,1.7
		c1,0.7,1.8,1.7,2.5,2.7c0.2,0.2,0.1,0.6-0.1,0.8c-0.2,0.1-0.5,0.1-0.7,0l0,0c-0.8-0.7-1.7-1.4-2.7-2c-0.9-0.6-1.9-1-2.9-1.4
		c-1-0.3-2.1-0.4-3.1-0.4c-0.5,0-1,0.1-1.5,0.2c-0.5,0.1-0.9,0.3-1.3,0.6l-0.1,0.1c-0.2,0.2-0.6,0.1-0.7-0.1c0,0,0,0,0,0
		C331.4,218.2,331.4,217.9,331.6,217.7z"></path><path class="st1" d="M341.1,239.4H341c-1.9,0-3.5-1.5-3.5-3.4c0,0,0-0.1,0-0.1c-0.1-1,0.3-1.9,1-2.6c1.3-1.3,3.7-1.3,4.7-1.3
		c0.5-3.6,0.7-7.3,0.6-10.9c0-0.3,0.2-0.5,0.5-0.6l0,0c0.3,0,0.5,0.2,0.5,0.5c0.1,3.9-0.1,7.8-0.7,11.6c-0.1,0.3-0.3,0.5-0.6,0.4
		c0,0-3-0.3-4.3,1c-0.5,0.5-0.7,1.1-0.6,1.8c-0.1,1.3,1,2.5,2.3,2.5c0.1,0,0.1,0,0.2,0c1.9,0.1,3.5-1.2,3.8-3.1
		c0-0.3,0.3-0.5,0.6-0.5c0.3,0,0.5,0.3,0.5,0.6C345.6,237.7,343.5,239.5,341.1,239.4z"></path><path class="st1" d="M359.2,230.5c-0.2,1.9-1.5,3.2-2.8,3.1s-2.2-1.8-1.9-3.7c0.1-0.5,0.2-1.1,0.5-1.5l2,1.5l-0.7-2.9
		c0.3-0.1,0.6-0.2,0.9-0.2C358.5,227,359.3,228.7,359.2,230.5z"></path><path class="st1" d="M338.5,225.7c-0.1,1.9-1.2,3.4-2.5,3.3c-1.3-0.1-2.3-1.6-2.2-3.5c0-0.5,0.1-1.1,0.3-1.6l2.2,1.3l-1-2.8
		c0.3-0.2,0.6-0.2,0.9-0.2C337.6,222.2,338.6,223.8,338.5,225.7z"></path><path class="st1" d="M351.9,247.5c-1.6,0-3.2-1.1-4.8-3.2c-0.2-0.2-0.1-0.6,0.1-0.8c0.2-0.2,0.6-0.1,0.8,0.1
		c1.4,1.9,2.9,2.9,4.2,2.7c2.1-0.2,3.5-2.8,3.5-2.8c0.1-0.3,0.5-0.4,0.7-0.2c0.3,0.1,0.4,0.5,0.2,0.7c-0.1,0.1-1.7,3.2-4.3,3.4
		L351.9,247.5z"></path><path class="st0" d="M385.9,225.1c3.6-0.9,5.1,2.4,5.2,3.9"></path><path class="st1" d="M391.1,229.5c-0.3,0-0.5-0.2-0.5-0.5c-0.1-1.2-0.8-2.3-1.7-3c-0.8-0.6-1.9-0.7-2.9-0.4
		c-0.3,0.1-0.6-0.1-0.7-0.4c-0.1-0.3,0.1-0.6,0.4-0.7c1.3-0.4,2.7-0.2,3.8,0.6c1.2,0.9,2,2.3,2.2,3.8
		C391.7,229.2,391.5,229.4,391.1,229.5C391.2,229.5,391.2,229.5,391.1,229.5L391.1,229.5z"></path><path class="st2" d="M359.3,237.3c-6.1,0-10.7-2.2-11.6-5.5c-0.4-2.2-0.5-4.5-0.3-6.8c0.1-0.8,0.5-1.5,1.1-1.9
		c0.6-0.5,1.4-0.7,2.2-0.5l15.2,2.9c1.4,0.3,2.4,1.8,2,3.2c0,0.1-0.1,0.2-0.1,0.3c-1.1,3.1-3.5,8.3-8.1,8.3H359.3z M350,223.6
		c-0.3,0-0.7,0.1-1,0.3c-0.3,0.3-0.6,0.7-0.6,1.1c-0.2,2.2-0.2,4.4,0.2,6.5c0.8,2.9,5.3,4.8,11,4.7c3.9-0.1,6.2-4.8,7.1-7.6
		c0.2-0.4,0.1-0.9-0.1-1.3c-0.2-0.4-0.6-0.7-1.1-0.8l-15.3-2.9l0,0L350,223.6z"></path><path class="st2" d="M336.1,233.5c-5.8,0-10.2-2.2-11-5.5c-0.4-2.3-0.5-4.5-0.2-6.8c0.1-0.8,0.5-1.5,1.1-1.9c0.6-0.4,1.3-0.6,2-0.5
		l13.1,2.7c0.3,0.1,0.5,0.3,0.4,0.6c-0.1,0.3-0.3,0.5-0.6,0.4c0,0,0,0,0,0l-13.1-2.7c-0.4-0.1-0.8,0-1.1,0.3
		c-0.4,0.3-0.6,0.7-0.6,1.2c-0.2,2.2-0.2,4.4,0.2,6.5c0.7,2.9,5,4.8,10.4,4.7c0.3,0,0.5,0.3,0.6,0.5c0,0.3-0.2,0.5-0.5,0.5
		L336.1,233.5z"></path><path class="st2" d="M349.1,227.5c-0.1,0-0.2,0-0.2-0.1c0,0-4.5-2.4-7.3-0.4c-0.2,0.2-0.6,0.1-0.8-0.1c-0.2-0.2-0.1-0.6,0.1-0.8
		c3.2-2.4,8.2,0.2,8.4,0.3c0.3,0.1,0.4,0.4,0.2,0.7c0,0,0,0,0,0C349.5,227.4,349.3,227.5,349.1,227.5z"></path><path class="st2" d="M367.3,229.4c-0.3,0-0.6-0.2-0.6-0.5c0-0.3,0.2-0.6,0.5-0.6l11.7-1.9c0.3,0,0.6,0.2,0.6,0.4
		c0,0.3-0.2,0.6-0.4,0.6L367.3,229.4L367.3,229.4z"></path></g></svg>