<svg transform="scale(1)" id="_0954_Log_In" xmlns="http://www.w3.org/2000/svg" viewBox="0 0 500 500" class="show_show__wrapper__graphic__5Waiy "><title>React</title><g id="character"><path d="M146.48,214.08c-38.42,6.22-70.31,26.67-79.35,56.3s-33.9,121.73,0,125.12v23.73h193.38s-3.99-127.7-20.48-175.16l2.26-53.55s-16.58,2.7-18.75,3.83-37.54,12.05-77.06,19.74Z" fill="#ed5454" stroke-width="0"></path><path d="M73.21,395.38c-.25,0-.46-.18-.5-.43-.04-.27.15-.53.43-.56,1.03-.14,103.38-14.13,111.78-16.51,8.03-2.27,7.86-10.01,7.84-10.34,0-.04,0-.08,0-.12l2.67-13.29c-1.27-1.09-7.32-6.45-9.88-11.34-1.4-2.68-3.35-4.12-4.73-4.85-1.21-.65-2.67-.88-4.11-.65l-71.95,11.43c-.15.02-.3-.02-.41-.12-.11-.1-.17-.25-.16-.4.04-.67,3.65-67-2.22-90.09-.07-.27.09-.54.36-.61.27-.07.54.09.61.36,5.6,22.03,2.63,82.95,2.28,89.78l71.34-11.33c1.65-.26,3.33,0,4.73.76,1.51.8,3.62,2.37,5.14,5.27,2.72,5.19,9.79,11.17,9.87,11.23.14.12.2.3.17.48l-2.72,13.53c0,.81-.17,8.9-8.57,11.27-8.46,2.39-107.69,15.96-111.91,16.53-.02,0-.05,0-.07,0Z" fill="#732a09" stroke-width="0"></path><path d="M220.5,349.7c7.06-6.08,6.12-13.79,2.42-13.15s-8.86,13.05-18.2,16.43,15.78-3.28,15.78-3.28Z" fill="#fff" stroke-width="0"></path><path d="M202.81,354.38c-.54,0-.59-.16-.64-.33-.17-.56.27-.77,2.39-1.54,5.39-1.95,9.34-6.97,12.52-11,2.27-2.88,4.06-5.16,5.77-5.45,1.28-.23,2.36.37,2.96,1.63,1.32,2.79.03,8.08-4.96,12.39-.06.05-.12.08-.2.1-12.69,3.36-16.57,4.2-17.83,4.2ZM223.35,337.02c-.11,0-.22,0-.34.03-1.33.23-3.1,2.48-5.15,5.09-2.9,3.68-6.43,8.16-11.16,10.54,3.79-.88,9.49-2.34,13.57-3.42,4.83-4.21,5.62-9.03,4.63-11.12-.25-.52-.71-1.11-1.54-1.11ZM220.5,349.7h0,0Z" fill="#732a09" stroke-width="0"></path><path d="M232.07,347.25c7.06-6.08,6.12-13.79,2.42-13.15s-8.86,13.05-18.2,16.43,15.78-3.28,15.78-3.28Z" fill="#fff" stroke-width="0"></path><path d="M214.37,351.93c-.54,0-.59-.16-.64-.33-.17-.55.27-.77,2.39-1.54,5.39-1.95,9.34-6.97,12.52-11,2.27-2.88,4.06-5.16,5.77-5.45,1.28-.22,2.36.37,2.96,1.63,1.32,2.79.03,8.08-4.96,12.39-.06.05-.13.08-.2.1-12.69,3.36-16.57,4.19-17.83,4.19ZM234.91,334.57c-.11,0-.22,0-.34.03-1.33.23-3.1,2.48-5.15,5.09-2.9,3.68-6.43,8.16-11.16,10.54,3.79-.88,9.49-2.34,13.57-3.42,4.83-4.21,5.62-9.03,4.63-11.13-.25-.52-.71-1.11-1.54-1.11ZM232.07,347.25h0,0Z" fill="#732a09" stroke-width="0"></path><path d="M241.73,346.29c7.06-6.08,6.12-13.79,2.42-13.15s-8.86,13.05-18.2,16.43c-9.34,3.38,15.78-3.28,15.78-3.28Z" fill="#fff" stroke-width="0"></path><path d="M224.03,350.96c-.54,0-.59-.16-.64-.33-.17-.55.27-.77,2.39-1.54,5.39-1.95,9.34-6.97,12.52-11,2.27-2.88,4.06-5.16,5.77-5.45,1.29-.23,2.36.37,2.96,1.63,1.32,2.79.03,8.08-4.96,12.39-.06.05-.12.08-.2.1-12.69,3.36-16.57,4.19-17.83,4.19ZM244.57,333.6c-.11,0-.22,0-.34.03-1.33.23-3.1,2.48-5.15,5.09-2.9,3.68-6.43,8.16-11.16,10.54,3.79-.88,9.49-2.34,13.57-3.42,4.83-4.21,5.62-9.03,4.63-11.12-.25-.52-.71-1.11-1.54-1.11ZM241.73,346.29h0,0Z" fill="#732a09" stroke-width="0"></path><path d="M186,342.56c11.57-2.72,24.28-14.3,28.37-13.62s5.22,6.13,0,10.89-8.85,8.85-8.85,8.85c0,0,21.79,1.13,28.82,0s17.7-10.87,22.47-9.63-11.57,17.35-19.74,21.66-43.8,6.81-43.8,6.81c0,0-.68-14.75-7.26-24.96Z" fill="#fff" stroke-width="0"></path><path d="M193.26,368.02c-.12,0-.24-.04-.33-.13-.1-.09-.16-.22-.17-.35,0-.15-.75-14.74-7.18-24.72-.09-.14-.1-.31-.04-.46.06-.15.19-.26.35-.3,6.17-1.45,12.76-5.51,18.06-8.77,4.72-2.9,8.45-5.2,10.51-4.85,1.84.31,3.19,1.48,3.7,3.22.78,2.65-.5,5.84-3.45,8.53-3.81,3.48-6.8,6.63-8.1,8.03,4.45.21,21.64.92,27.66-.04,3.16-.51,7.14-2.84,10.98-5.1,4.59-2.7,8.93-5.24,11.69-4.52.71.18,1.14.66,1.22,1.34.48,4.15-13.96,17.61-20.85,21.25-8.17,4.31-42.54,6.76-44,6.87-.01,0-.02,0-.04,0ZM186.79,342.88c5.57,9.09,6.74,21.46,6.94,24.11,4.36-.33,35.64-2.78,43.1-6.72,7.59-4,20.7-17.06,20.33-20.25-.03-.22-.12-.39-.47-.48-2.36-.61-6.72,1.95-10.93,4.42-3.92,2.3-7.98,4.68-11.33,5.22-7.01,1.13-28.03.05-28.93,0-.19,0-.36-.13-.44-.31-.07-.18-.04-.38.09-.53.04-.04,3.71-4.16,8.89-8.89,3.12-2.85,3.68-5.75,3.16-7.51-.4-1.36-1.46-2.28-2.91-2.52-1.7-.28-5.46,2.04-9.82,4.72-5.17,3.18-11.55,7.11-17.68,8.72Z" fill="#732a09" stroke-width="0"></path><path d="M135.66,180.86c-.61,19.75.37,34.26,1.07,41.55.32,3.33,2.88,6,6.19,6.46,5.45.74,13.96.84,21.33-3.71,2.46-1.52,3.83-4.32,3.43-7.18l-2.2-16.07-29.83-21.05Z" fill="#fff" stroke-width="0"></path><path d="M148.53,229.76c-2.06,0-3.98-.16-5.68-.39-3.56-.48-6.28-3.32-6.62-6.9-.67-6.97-1.69-21.64-1.07-41.61,0-.18.11-.35.28-.43.17-.08.36-.07.51.04l29.83,21.05c.11.08.19.2.21.34l2.2,16.07c.41,3.04-1.03,6.05-3.67,7.68-5.23,3.22-11,4.17-15.98,4.17ZM136.13,181.81c-.56,19.44.44,33.72,1.09,40.56.3,3.12,2.67,5.59,5.76,6.01,5.64.77,13.87.76,21-3.64,2.31-1.42,3.56-4.05,3.2-6.69l-2.17-15.85-28.89-20.38Z" fill="#732a09" stroke-width="0"></path><path d="M181.72,145.29c1.96-9.15,2.86-16.81,2.16-19.12s-21.33-25.28-41.14-23.89c-19.81,1.4-34.4,7.49-40.99,16.64,0,0-20.26,7.24-14.98,37.31,5.27,30.07,16.13,44.33,22.2,46.01s33.2-2.34,33.2-2.34l39.55-54.62Z" fill="#fff" stroke-width="0"></path><path d="M113.76,203.16c-2.12,0-3.85-.12-4.94-.42-6.09-1.68-17.13-15.43-22.56-46.4-5.04-28.76,13.29-37.05,15.16-37.81,6.86-9.4,21.51-15.34,41.28-16.73,20.18-1.41,40.96,22,41.65,24.24.87,2.83-.54,11.86-2.15,19.37-.01.07-.04.13-.08.19l-39.56,54.62c-.08.11-.2.18-.33.2-.91.14-18.75,2.75-28.47,2.75ZM144.52,102.73c-.58,0-1.17.02-1.75.06-19.27,1.36-34.08,7.35-40.62,16.44-.06.08-.14.14-.24.18-.2.07-19.79,7.47-14.66,36.75,5.31,30.3,16.21,44.06,21.84,45.61,5.62,1.55,30.26-1.96,32.79-2.32l39.37-54.37c1.94-9.09,2.8-16.62,2.15-18.76-.65-2.11-19.74-23.59-38.87-23.59ZM181.72,145.29h0,0Z" fill="#732a09" stroke-width="0"></path><path d="M171.98,129.54s28.92,37.91,18.75,60.33c-8.85,19.51-41.21,28.33-67.52,3.55,0,0-5.68,5.12-12.4,3.71s-11.59-19.77-1.47-20.86l9.79,10.19,4.8-4.23s-7.27-14.64-7.8-22.23c0,0,7.29-16.08,23.96-24.05l-10.66-12.47,19.74,9.38,9.73-2.39-7.91-12.1,15.17,11.78,5.83-.6Z" fill="#fff" stroke-width="0"></path><path d="M158.35,209.08c-12.23,0-24.67-5.24-35.16-14.98-1.37,1.11-6.48,4.8-12.48,3.53-4.58-.97-7.93-8.62-7.64-14.32.22-4.38,2.49-7.13,6.22-7.53.16-.02.31.04.41.15l9.45,9.85,4.16-3.66c-1.13-2.31-7.19-15.03-7.68-22.08,0-.08,0-.17.04-.24.07-.16,7.38-15.96,23.61-24.01l-10.24-11.98c-.15-.18-.16-.44-.02-.63.14-.19.4-.25.61-.15l19.58,9.3,8.87-2.17-7.53-11.51c-.13-.2-.1-.48.08-.64.18-.17.45-.18.65-.03l15.01,11.65,5.63-.58c.17-.02.34.06.45.19.07.1,7.33,9.66,13.24,21.84,5.48,11.3,10.9,27.24,5.56,39-4.16,9.17-13.4,15.98-24.7,18.21-2.68.53-5.4.79-8.12.79ZM123.21,192.93c.12,0,.25.05.34.14,12.65,11.92,28.22,17.11,42.73,14.25,10.99-2.17,19.96-8.76,23.99-17.64,9.53-21.01-16.18-56.44-18.52-59.6l-5.55.57c-.13.01-.26-.02-.36-.1l-12.81-9.94,6.28,9.6c.09.14.11.31.05.46-.06.15-.19.26-.35.3l-9.73,2.39c-.11.03-.23.02-.33-.03l-17.62-8.37,9.14,10.69c.1.12.14.28.11.43s-.13.28-.27.35c-15.57,7.45-22.97,22.25-23.67,23.7.6,7.45,7.67,21.77,7.74,21.92.1.2.05.45-.12.6l-4.8,4.23c-.2.18-.51.16-.69-.03l-9.61-10.01c-4.16.58-4.98,4.34-5.09,6.56-.29,5.81,3.16,12.51,6.85,13.29,6.37,1.35,11.9-3.54,11.96-3.59.1-.08.21-.13.33-.13Z" fill="#732a09" stroke-width="0"></path><path d="M148.19,156.31c-4.69-.57-11.44-.53-12.64,5.21-.13.59-1.03.47-.99-.13.15-7,8.68-7.95,13.87-6.05.57.2.35,1.07-.25.97h0Z" fill="#732a09" stroke-width="0"></path><path d="M175.96,139.86c-3.32-.37-6.88.74-8.98,3.41-.35.35-.72.97-1.02,1.36-.33.5-.59,1.05-.94,1.57-.15.23-.46.29-.69.14-.19-.12-.27-.36-.2-.56.19-.6.39-1.2.63-1.79,1.81-4.32,7.02-6.65,11.46-5.09.59.2.35,1.09-.26.97h0Z" fill="#732a09" stroke-width="0"></path><path d="M173.51,167.79c-2.19,0-4.51-1.08-5.46-3.37-.11-.25.01-.55.27-.65.25-.11.55.01.65.27,1.02,2.45,3.99,3.21,6.14,2.51,1.93-.63,2.78-2.24,2.29-4.3-.24-1.02-.75-1.71-1.55-2.12-2.24-1.14-5.92.35-5.96.36-.24.1-.52,0-.64-.24-.03-.06-3-6.06-5.15-14.16-.07-.27.09-.54.36-.61.27-.07.54.09.61.36,1.8,6.81,4.19,12.1,4.88,13.57,1.14-.39,4.19-1.27,6.35-.16,1.06.54,1.76,1.48,2.07,2.78.74,3.09-1.04,4.86-2.95,5.48-.6.2-1.25.29-1.92.29Z" fill="#732a09" stroke-width="0"></path><path d="M143.56,165.79c1.24,2.16,3.44,3.2,4.93,2.35s1.7-3.28.47-5.44c-.37-.64-.84-1.2-1.35-1.62l-1.77,2.85-.59-3.85c-.44-.02-.83.07-1.2.29-1.48.85-1.7,3.28-.48,5.42Z" fill="#732a09" stroke-width="0"></path><path d="M174.13,151.43c1.24,2.16,3.44,3.2,4.93,2.35s1.7-3.28.47-5.44c-.37-.64-.84-1.2-1.35-1.62l-1.77,2.85-.59-3.85c-.44-.02-.83.07-1.2.29-1.48.85-1.7,3.28-.48,5.42Z" fill="#732a09" stroke-width="0"></path><path d="M167.63,183.53c-1.97,0-3.96-.97-5.58-2.74-.19-.2-.17-.52.03-.71.2-.19.52-.17.71.03,1.66,1.81,3.72,2.67,5.65,2.35,2.22-.37,4.18-2.24,5.51-5.28.11-.25.41-.37.66-.26.25.11.37.41.26.66-1.47,3.36-3.7,5.44-6.26,5.86-.32.05-.64.08-.97.08Z" fill="#732a09" stroke-width="0"></path><path d="M110.02,192.17c-.16,0-.31-.07-.41-.21-1.86-2.63-4-7.89-.25-10.98.21-.18.53-.14.7.07.18.21.14.53-.07.7-3.18,2.62-1.22,7.28.43,9.62.16.23.11.54-.12.7-.09.06-.19.09-.29.09Z" fill="#732a09" stroke-width="0"></path><path d="M171.98,129.54c4.21-.2,5.63.32,5.63.32" fill="#fff" stroke-width="0"></path><path d="M177.6,130.37c-.06,0-.12,0-.17-.03-.01,0-1.43-.49-5.43-.29-.27.03-.51-.2-.52-.47-.01-.28.2-.51.48-.52,4.26-.21,5.76.33,5.83.35.26.1.39.38.29.64-.08.2-.27.33-.47.33Z" fill="#732a09" stroke-width="0"></path><path d="M116.13,160c-3.31,4.9-5.24,11.02-5.24,11.02" fill="#fff" stroke-width="0"></path><path d="M110.89,171.51s-.1,0-.15-.02c-.26-.08-.41-.36-.33-.63.02-.06,1.99-6.24,5.3-11.15.15-.23.46-.29.69-.13.23.15.29.46.13.69-3.23,4.79-5.16,10.83-5.18,10.89-.07.21-.26.35-.48.35Z" fill="#732a09" stroke-width="0"></path></g><g id="password"><rect x="223.54" y="138.59" width="215.96" height="197.93" rx="9.5" ry="9.5" fill="#fff" stroke-width="0"></rect><path d="M430,337.02h-196.96c-5.51,0-10-4.49-10-10v-178.93c0-5.51,4.49-10,10-10h196.96c5.51,0,10,4.49,10,10v178.93c0,5.51-4.49,10-10,10ZM233.04,139.09c-4.96,0-9,4.04-9,9v178.93c0,4.96,4.04,9,9,9h196.96c4.96,0,9-4.04,9-9v-178.93c0-4.96-4.04-9-9-9h-196.96Z" fill="#732a09" stroke-width="0"></path><path d="M335.92,181.42h-8.81c-7.62,0-13.79,6.17-13.79,13.79v4.4s36.39,0,36.39,0v-4.4c0-7.62-6.17-13.79-13.79-13.79Z" fill="#f75454" stroke-width="0"></path><path d="M349.71,200.11h-36.39c-.28,0-.5-.22-.5-.5v-4.4c0-7.88,6.41-14.29,14.29-14.29h8.81c7.88,0,14.29,6.41,14.29,14.29v4.4c0,.28-.22.5-.5.5ZM313.83,199.11h35.39v-3.9c0-7.33-5.96-13.29-13.29-13.29h-8.81c-7.33,0-13.29,5.96-13.29,13.29v3.9Z" fill="#f75454" stroke-width="0"></path><circle cx="331.52" cy="168.71" r="7.36" fill="#f75454" stroke-width="0"></circle><path d="M331.52,176.57c-4.33,0-7.86-3.53-7.86-7.86s3.53-7.86,7.86-7.86,7.86,3.53,7.86,7.86-3.53,7.86-7.86,7.86ZM331.52,161.85c-3.78,0-6.86,3.08-6.86,6.86s3.08,6.86,6.86,6.86,6.86-3.08,6.86-6.86-3.08-6.86-6.86-6.86Z" fill="#f75454" stroke-width="0"></path><path d="M335.92,181.42h-8.81c-7.62,0-13.79,6.17-13.79,13.79v4.4s36.39,0,36.39,0v-4.4c0-7.62-6.17-13.79-13.79-13.79Z" fill="#f75454" stroke-width="0"></path><path d="M349.71,200.11h-36.39c-.28,0-.5-.22-.5-.5v-4.4c0-7.88,6.41-14.29,14.29-14.29h8.81c7.88,0,14.29,6.41,14.29,14.29v4.4c0,.28-.22.5-.5.5ZM313.83,199.11h35.39v-3.9c0-7.33-5.96-13.29-13.29-13.29h-8.81c-7.33,0-13.29,5.96-13.29,13.29v3.9Z" fill="#732a09" stroke-width="0"></path><circle cx="331.52" cy="168.71" r="7.36" fill="#f75454" stroke-width="0"></circle><path d="M331.52,176.57c-4.33,0-7.86-3.53-7.86-7.86s3.53-7.86,7.86-7.86,7.86,3.53,7.86,7.86-3.53,7.86-7.86,7.86ZM331.52,161.85c-3.78,0-6.86,3.08-6.86,6.86s3.08,6.86,6.86,6.86,6.86-3.08,6.86-6.86-3.08-6.86-6.86-6.86Z" fill="#732a09" stroke-width="0"></path><path d="M335.92,181.42h-8.81c-7.62,0-13.79,6.17-13.79,13.79v4.4s36.39,0,36.39,0v-4.4c0-7.62-6.17-13.79-13.79-13.79Z" fill="none" stroke="#732a09" stroke-linecap="round" stroke-linejoin="round"></path><path d="M349.71,200.11h-36.39c-.28,0-.5-.22-.5-.5v-4.4c0-7.88,6.41-14.29,14.29-14.29h8.81c7.88,0,14.29,6.41,14.29,14.29v4.4c0,.28-.22.5-.5.5ZM313.83,199.11h35.39v-3.9c0-7.33-5.96-13.29-13.29-13.29h-8.81c-7.33,0-13.29,5.96-13.29,13.29v3.9Z" fill="none" stroke="#732a09" stroke-linecap="round" stroke-linejoin="round"></path><circle cx="331.52" cy="168.71" r="7.36" fill="none" stroke="#732a09" stroke-linecap="round" stroke-linejoin="round"></circle><path d="M331.52,176.57c-4.33,0-7.86-3.53-7.86-7.86s3.53-7.86,7.86-7.86,7.86,3.53,7.86,7.86-3.53,7.86-7.86,7.86ZM331.52,161.85c-3.78,0-6.86,3.08-6.86,6.86s3.08,6.86,6.86,6.86,6.86-3.08,6.86-6.86-3.08-6.86-6.86-6.86Z" fill="none" stroke="#732a09" stroke-linecap="round" stroke-linejoin="round"></path><rect x="250" y="216.03" width="163.04" height="37.93" rx="3.95" ry="3.95" fill="#fff" stroke-width="0"></rect><path d="M409.09,254.46h-155.13c-2.46,0-4.45-2-4.45-4.45v-30.02c0-2.46,2-4.45,4.45-4.45h155.13c2.46,0,4.45,2,4.45,4.45v30.02c0,2.46-2,4.45-4.45,4.45ZM253.95,216.53c-1.9,0-3.45,1.55-3.45,3.45v30.02c0,1.9,1.55,3.45,3.45,3.45h155.13c1.9,0,3.45-1.55,3.45-3.45v-30.02c0-1.9-1.55-3.45-3.45-3.45h-155.13Z" fill="#732a09" stroke-width="0"></path><rect x="250" y="270.38" width="163.04" height="37.93" rx="3.95" ry="3.95" fill="#fff" stroke-width="0"></rect><path d="M409.09,308.81h-155.13c-2.46,0-4.45-2-4.45-4.45v-30.02c0-2.46,2-4.45,4.45-4.45h155.13c2.46,0,4.45,2,4.45,4.45v30.02c0,2.46-2,4.45-4.45,4.45ZM253.95,270.88c-1.9,0-3.45,1.55-3.45,3.45v30.02c0,1.9,1.55,3.45,3.45,3.45h155.13c1.9,0,3.45-1.55,3.45-3.45v-30.02c0-1.9-1.55-3.45-3.45-3.45h-155.13Z" fill="#732a09" stroke-width="0"></path><path d="M334.41,295.29c-.28,0-.5-.22-.5-.5v-10.89c0-.28.22-.5.5-.5s.5.22.5.5v10.89c0,.28-.22.5-.5.5Z" fill="#732a09" stroke-width="0"></path><path d="M339.86,289.84h-10.89c-.28,0-.5-.22-.5-.5s.22-.5.5-.5h10.89c.28,0,.5.22.5.5s-.22.5-.5.5Z" fill="#732a09" stroke-width="0"></path><path d="M330.56,293.69c-.13,0-.26-.05-.35-.15-.2-.2-.2-.51,0-.71l7.7-7.7c.2-.2.51-.2.71,0s.2.51,0,.71l-7.7,7.7c-.1.1-.23.15-.35.15Z" fill="#732a09" stroke-width="0"></path><path d="M338.26,293.69c-.13,0-.26-.05-.35-.15l-7.7-7.7c-.2-.2-.2-.51,0-.71s.51-.2.71,0l7.7,7.7c.2.2.2.51,0,.71-.1.1-.23.15-.35.15Z" fill="#732a09" stroke-width="0"></path><path d="M351.53,295.29c-.28,0-.5-.22-.5-.5v-10.89c0-.28.22-.5.5-.5s.5.22.5.5v10.89c0,.28-.22.5-.5.5Z" fill="#732a09" stroke-width="0"></path><path d="M356.97,289.84h-10.89c-.28,0-.5-.22-.5-.5s.22-.5.5-.5h10.89c.28,0,.5.22.5.5s-.22.5-.5.5Z" fill="#732a09" stroke-width="0"></path><path d="M347.68,293.69c-.13,0-.26-.05-.35-.15-.2-.2-.2-.51,0-.71l7.7-7.7c.2-.2.51-.2.71,0s.2.51,0,.71l-7.7,7.7c-.1.1-.23.15-.35.15Z" fill="#732a09" stroke-width="0"></path><path d="M355.38,293.69c-.13,0-.26-.05-.35-.15l-7.7-7.7c-.2-.2-.2-.51,0-.71s.51-.2.71,0l7.7,7.7c.2.2.2.51,0,.71-.1.1-.23.15-.35.15Z" fill="#732a09" stroke-width="0"></path><path d="M368.64,295.29c-.28,0-.5-.22-.5-.5v-10.89c0-.28.22-.5.5-.5s.5.22.5.5v10.89c0,.28-.22.5-.5.5Z" fill="#732a09" stroke-width="0"></path><path d="M374.09,289.84h-10.89c-.28,0-.5-.22-.5-.5s.22-.5.5-.5h10.89c.28,0,.5.22.5.5s-.22.5-.5.5Z" fill="#732a09" stroke-width="0"></path><path d="M364.79,293.69c-.13,0-.26-.05-.35-.15-.2-.2-.2-.51,0-.71l7.7-7.7c.2-.2.51-.2.71,0s.2.51,0,.71l-7.7,7.7c-.1.1-.23.15-.35.15Z" fill="#732a09" stroke-width="0"></path><path d="M372.49,293.69c-.13,0-.26-.05-.35-.15l-7.7-7.7c-.2-.2-.2-.51,0-.71s.51-.2.71,0l7.7,7.7c.2.2.2.51,0,.71-.1.1-.23.15-.35.15Z" fill="#732a09" stroke-width="0"></path><path d="M327.62,133.26c2.48-2.48,6.96-2.88,8.94,3.18s-1.66,11.42-5.66,8.25c-4.01-3.17-3.28-11.43-3.28-11.43Z" fill="#fff" stroke-width="0"></path><path d="M333.29,146.13c-.89,0-1.81-.35-2.7-1.05-4.17-3.3-3.5-11.52-3.47-11.86.01-.12.06-.23.14-.31,1.5-1.5,3.46-2.15,5.25-1.72,1.41.34,3.34,1.5,4.52,5.1,1.39,4.25.15,7.85-1.8,9.21-.61.42-1.27.63-1.96.63ZM328.11,133.48c-.07,1.21-.33,8.09,3.1,10.81,1.21.96,2.44,1.09,3.46.38,1.61-1.12,2.65-4.33,1.42-8.08-.82-2.51-2.14-4.04-3.81-4.44-1.39-.33-2.94.16-4.18,1.33Z" fill="#732a09" stroke-width="0"></path><path d="M320.89,132.09c2.79-2.79,7.8-3.23,10.03,3.57s-1.86,12.82-6.36,9.25-3.68-12.82-3.68-12.82Z" fill="#fff" stroke-width="0"></path><path d="M327.25,146.47c-.98,0-2.01-.39-2.99-1.17-4.66-3.69-3.9-12.87-3.87-13.26.01-.12.06-.23.14-.31,1.67-1.67,3.85-2.39,5.83-1.92,1.57.38,3.72,1.66,5.03,5.68,1.56,4.74.17,8.76-2,10.27-.67.47-1.4.7-2.16.7ZM321.38,132.31c-.08,1.29-.39,9.12,3.5,12.21,1.38,1.09,2.78,1.25,3.95.43,1.82-1.27,3.01-4.9,1.62-9.14-.93-2.83-2.42-4.57-4.31-5.02-1.59-.38-3.36.19-4.76,1.52Z" fill="#732a09" stroke-width="0"></path><path d="M313.02,131.84c4.76-3.71,8.47-2.79,11.03,2.44s2.79,9.29.93,11.61-6.62.23-6.96-1.51-4.99-12.54-4.99-12.54Z" fill="#fff" stroke-width="0"></path><path d="M322.56,147.42c-.44,0-.9-.06-1.39-.18-1.58-.38-3.4-1.48-3.65-2.77-.27-1.34-3.36-8.72-4.96-12.44-.09-.21-.03-.45.15-.59,2.48-1.94,4.76-2.69,6.77-2.22,1.98.46,3.67,2.08,5.01,4.84,2.59,5.29,2.9,9.61.87,12.14-.64.8-1.62,1.22-2.8,1.22ZM313.63,132c.82,1.92,4.55,10.67,4.87,12.28.13.64,1.35,1.61,2.91,1.99.66.16,2.29.41,3.18-.7,1.77-2.22,1.42-6.15-.99-11.08-1.21-2.47-2.67-3.92-4.34-4.3-1.62-.37-3.51.23-5.62,1.8Z" fill="#732a09" stroke-width="0"></path><path d="M299.53,138.58c5.46-7.47,11.6-11.4,15.28-7.5s7.58,15.16,2.56,16.39c-3.91.95-6.02-2.44-7.25-9.02l-10.59.12Z" fill="#fff" stroke-width="0"></path><path d="M316.13,148.13c-.87,0-1.67-.23-2.38-.69-1.86-1.2-3.15-3.9-4.04-8.48l-10.17.12c-.2.03-.36-.1-.45-.27-.09-.17-.07-.37.04-.52,4.19-5.73,8.41-9.01,11.88-9.22,1.61-.1,3.02.46,4.16,1.68,3.08,3.26,5.96,10.84,4.82,14.7-.4,1.35-1.26,2.22-2.5,2.52-.47.12-.92.17-1.36.17ZM310.12,137.95c.24,0,.45.17.49.41.83,4.48,2.04,7.18,3.68,8.24.84.54,1.81.67,2.95.39.9-.22,1.48-.82,1.78-1.83,1.03-3.47-1.72-10.68-4.59-13.73-.93-.99-2.06-1.44-3.37-1.37-2.96.18-6.77,3.09-10.53,8.01l9.58-.11h0Z" fill="#732a09" stroke-width="0"></path><path d="M265.95,295.29c-.28,0-.5-.22-.5-.5v-10.89c0-.28.22-.5.5-.5s.5.22.5.5v10.89c0,.28-.22.5-.5.5Z" fill="#732a09" stroke-width="0"></path><path d="M271.4,289.84h-10.89c-.28,0-.5-.22-.5-.5s.22-.5.5-.5h10.89c.28,0,.5.22.5.5s-.22.5-.5.5Z" fill="#732a09" stroke-width="0"></path><path d="M262.1,293.69c-.13,0-.26-.05-.35-.15-.2-.2-.2-.51,0-.71l7.7-7.7c.2-.2.51-.2.71,0s.2.51,0,.71l-7.7,7.7c-.1.1-.23.15-.35.15Z" fill="#732a09" stroke-width="0"></path><path d="M269.8,293.69c-.13,0-.26-.05-.35-.15l-7.7-7.7c-.2-.2-.2-.51,0-.71s.51-.2.71,0l7.7,7.7c.2.2.2.51,0,.71-.1.1-.23.15-.35.15Z" fill="#732a09" stroke-width="0"></path><path d="M283.07,295.29c-.28,0-.5-.22-.5-.5v-10.89c0-.28.22-.5.5-.5s.5.22.5.5v10.89c0,.28-.22.5-.5.5Z" fill="#732a09" stroke-width="0"></path><path d="M288.51,289.84h-10.89c-.28,0-.5-.22-.5-.5s.22-.5.5-.5h10.89c.28,0,.5.22.5.5s-.22.5-.5.5Z" fill="#732a09" stroke-width="0"></path><path d="M279.22,293.69c-.13,0-.26-.05-.35-.15-.2-.2-.2-.51,0-.71l7.7-7.7c.2-.2.51-.2.71,0s.2.51,0,.71l-7.7,7.7c-.1.1-.23.15-.35.15Z" fill="#732a09" stroke-width="0"></path><path d="M286.92,293.69c-.13,0-.26-.05-.35-.15l-7.7-7.7c-.2-.2-.2-.51,0-.71s.51-.2.71,0l7.7,7.7c.2.2.2.51,0,.71-.1.1-.23.15-.35.15Z" fill="#732a09" stroke-width="0"></path><path d="M300.18,295.29c-.28,0-.5-.22-.5-.5v-10.89c0-.28.22-.5.5-.5s.5.22.5.5v10.89c0,.28-.22.5-.5.5Z" fill="#732a09" stroke-width="0"></path><path d="M305.63,289.84h-10.89c-.28,0-.5-.22-.5-.5s.22-.5.5-.5h10.89c.28,0,.5.22.5.5s-.22.5-.5.5Z" fill="#732a09" stroke-width="0"></path><path d="M296.33,293.69c-.13,0-.26-.05-.35-.15-.2-.2-.2-.51,0-.71l7.7-7.7c.2-.2.51-.2.71,0s.2.51,0,.71l-7.7,7.7c-.1.1-.23.15-.35.15Z" fill="#732a09" stroke-width="0"></path><path d="M304.03,293.69c-.13,0-.26-.05-.35-.15l-7.7-7.7c-.2-.2-.2-.51,0-.71s.51-.2.71,0l7.7,7.7c.2.2.2.51,0,.71-.1.1-.23.15-.35.15Z" fill="#732a09" stroke-width="0"></path><path d="M317.3,295.29c-.28,0-.5-.22-.5-.5v-10.89c0-.28.22-.5.5-.5s.5.22.5.5v10.89c0,.28-.22.5-.5.5Z" fill="#732a09" stroke-width="0"></path><path d="M322.74,289.84h-10.89c-.28,0-.5-.22-.5-.5s.22-.5.5-.5h10.89c.28,0,.5.22.5.5s-.22.5-.5.5Z" fill="#732a09" stroke-width="0"></path><path d="M313.45,293.69c-.13,0-.26-.05-.35-.15-.2-.2-.2-.51,0-.71l7.7-7.7c.2-.2.51-.2.71,0s.2.51,0,.71l-7.7,7.7c-.1.1-.23.15-.35.15Z" fill="#732a09" stroke-width="0"></path><path d="M321.15,293.69c-.13,0-.26-.05-.35-.15l-7.7-7.7c-.2-.2-.2-.51,0-.71s.51-.2.71,0l7.7,7.7c.2.2.2.51,0,.71-.1.1-.23.15-.35.15Z" fill="#732a09" stroke-width="0"></path></g></svg>