<svg transform="scale(1)" version="1.1" id="_x30_397_x5F_Social_Media_1" xmlns="http://www.w3.org/2000/svg" xmlns:xlink="http://www.w3.org/1999/xlink" x="0px" y="0px" viewBox="0 0 500 500" xml:space="preserve" class="show_show__wrapper__graphic__5Waiy "><title>React</title><style type="text/css">
	.st0{fill:#FFFFFF;}
	.st1{fill:#732A09;}
	.st2{fill:#F75454;}
</style><g id="instagram-UI"><rect class="st0" x="75.8" y="52.2" width="313.8" height="335"></rect><path class="st1" d="M389.6,387.7H75.8c-0.3,0-0.5-0.2-0.5-0.5v-335c0-0.3,0.2-0.5,0.5-0.5h313.8c0.3,0,0.5,0.2,0.5,0.5v335
		C390.1,387.5,389.9,387.7,389.6,387.7z M76.4,386.7h312.8v-334H76.3L76.4,386.7z"></path><path class="st1" d="M368.4,265.9H97.1c-0.3,0-0.5-0.2-0.5-0.5V122.8c0-0.3,0.2-0.5,0.5-0.5h271.3c0.3,0,0.5,0.2,0.5,0.5v142.6
		C368.9,265.7,368.7,265.9,368.4,265.9z M97.6,264.9h270.3V123.3H97.6L97.6,264.9z"></path><path class="st1" d="M368.4,387.7H97.1c-0.3,0-0.5-0.2-0.5-0.5v-69.8c0-0.3,0.2-0.5,0.5-0.5h271.3c0.3,0,0.5,0.2,0.5,0.5v69.8
		C368.9,387.5,368.7,387.7,368.4,387.7z M97.6,386.7h270.3V318H97.6L97.6,386.7z"></path><path class="st2" d="M114.8,289.2c-1.3,0-2.5-0.5-3.4-1.4l-3-3c-1.8-1.9-1.8-4.9,0-6.7c1.7-1.7,4.4-1.8,6.3-0.4
		c2.1-1.6,5.1-1.1,6.6,1c1.3,1.8,1.2,4.3-0.3,6l-3,3C117.2,288.7,116,289.2,114.8,289.2z"></path><path class="st1" d="M114.8,289.7c-1.4,0-2.7-0.6-3.7-1.5l-3-3c-2.1-2-2.1-5.4,0-7.4c1.8-1.8,4.6-2.1,6.7-0.6
		c2.4-1.6,5.7-1,7.3,1.4c1.4,2.1,1.1,4.8-0.6,6.6l-3,3C117.5,289.1,116.2,289.7,114.8,289.7z M111.8,277.3c-2.4,0-4.2,1.9-4.2,4.3
		c0,1.1,0.4,2.2,1.2,3l3,3c1.7,1.7,4.3,1.7,6,0c0,0,0,0,0,0l3-3c1.7-1.7,1.7-4.4,0-6c-1.5-1.5-4-1.7-5.7-0.3c-0.2,0.1-0.4,0.1-0.6,0
		C113.7,277.6,112.8,277.3,111.8,277.3L111.8,277.3z"></path><path class="st0" d="M144.7,286.1l1.6,3.5l-3.8-1l0,0c-1.1,0.7-2.3,1.1-3.6,1.1c-3.6,0-6.5-2.9-6.4-6.5c0-3.6,2.9-6.5,6.5-6.4
		c3.6,0,6.5,2.9,6.4,6.5C145.3,284.3,145.1,285.2,144.7,286.1L144.7,286.1z"></path><path class="st1" d="M138.8,290.2c-3.9,0-7-3.1-7-7c0-3.9,3.1-7,7-7c3.9,0,7,3.1,7,7c0,1-0.2,2-0.6,2.9l1.5,3.3
		c0.1,0.2,0,0.4-0.1,0.5c-0.1,0.1-0.3,0.2-0.5,0.1l-3.6-1C141.4,289.9,140.1,290.2,138.8,290.2z M138.8,277.2c-3.3,0-6,2.7-6,6
		s2.7,6,6,6c1.2,0,2.4-0.3,3.4-1c0.1-0.1,0.3-0.1,0.4-0.1l2.8,0.7l-1.2-2.6c-0.1-0.1-0.1-0.3,0-0.4c1.5-3,0.2-6.6-2.7-8
		C140.6,277.5,139.7,277.3,138.8,277.2L138.8,277.2z"></path><polygon class="st0" points="156.1,285.1 160.8,285.5 164.1,289.2 165.9,276.8 	"></polygon><path class="st1" d="M164.1,289.7c-0.1,0-0.3-0.1-0.4-0.2l-3.1-3.5l-4.6-0.5c-0.2,0-0.4-0.2-0.4-0.4c-0.1-0.2,0-0.4,0.2-0.5
		l9.9-8.3c0.2-0.1,0.4-0.1,0.6,0c0.2,0.1,0.3,0.3,0.2,0.5l-1.9,12.4c0,0.2-0.2,0.3-0.4,0.4C164.2,289.6,164.1,289.7,164.1,289.7z
		 M157.3,284.7l3.6,0.4c0.1,0,0.2,0.1,0.3,0.2l2.6,2.8l1.5-10L157.3,284.7z"></path><path class="st1" d="M160.8,286c-0.1,0-0.2,0-0.2-0.1c-0.2-0.1-0.3-0.4-0.2-0.7l5.1-8.7c0.1-0.2,0.5-0.3,0.7-0.2
		c0.2,0.1,0.3,0.4,0.2,0.7c0,0,0,0,0,0l-5.1,8.7C161.2,286,161,286,160.8,286z"></path><polygon class="st0" points="335,292 341.5,287.9 347.9,292 347.9,279.1 335,279.1 	"></polygon><path class="st1" d="M347.9,292.5c-0.1,0-0.2,0-0.3-0.1l-6.2-3.9l-6.2,3.9c-0.2,0.1-0.4,0.1-0.5,0c-0.2-0.1-0.3-0.3-0.3-0.4v-12.9
		c0-0.3,0.2-0.5,0.5-0.5h12.9c0.3,0,0.5,0.2,0.5,0.5V292c0,0.2-0.1,0.4-0.3,0.4C348.1,292.5,348,292.5,347.9,292.5z M341.5,287.4
		c0.1,0,0.2,0,0.3,0.1l5.7,3.6v-11.5h-11.9v11.5l5.7-3.6C341.3,287.4,341.4,287.4,341.5,287.4z"></path><path class="st2" d="M141.4,92.3c0,12.2-9.9,22.2-22.2,22.2s-22.2-9.9-22.2-22.2s9.9-22.2,22.2-22.2c0,0,0,0,0,0
		c12.2,0,22.1,9.8,22.2,22.1C141.4,92.3,141.4,92.3,141.4,92.3z"></path><path class="st1" d="M119.3,115c-12.5,0-22.6-10.2-22.6-22.7s10.2-22.6,22.7-22.6s22.6,10.2,22.6,22.7c0,5.4-2,10.7-5.5,14.8
		C132.1,112.1,125.8,115,119.3,115z M119.3,70.7c-12,0-21.7,9.7-21.7,21.7s9.7,21.7,21.7,21.7s21.7-9.7,21.7-21.7c0,0,0,0,0,0
		C140.9,80.4,131.2,70.7,119.3,70.7L119.3,70.7z"></path><path class="st0" d="M136,106.9c-8,9.3-22,10.3-31.3,2.2c-0.8-0.7-1.5-1.4-2.2-2.2c8-9.3,22-10.3,31.2-2.3
		C134.5,105.3,135.3,106.1,136,106.9z"></path><path class="st1" d="M119.3,115c-6.6,0-12.8-2.9-17.1-7.8c-0.2-0.2-0.2-0.5,0-0.7c8.2-9.5,22.5-10.5,32-2.3
		c0.8,0.7,1.6,1.5,2.3,2.3c0.2,0.2,0.2,0.5,0,0.7C132.1,112.1,125.8,115,119.3,115z M103.2,106.8c8,8.9,21.7,9.6,30.6,1.6
		c0.5-0.5,1.1-1,1.6-1.6c-8-8.9-21.7-9.6-30.6-1.6C104.2,105.8,103.7,106.3,103.2,106.8z"></path><circle class="st0" cx="119.3" cy="85.5" r="7.2"></circle><path class="st1" d="M119.3,93.2c-4.2,0-7.7-3.5-7.6-7.7c0-4.2,3.5-7.7,7.7-7.6c4.2,0,7.6,3.5,7.6,7.7
		C127,89.7,123.5,93.2,119.3,93.2C119.3,93.2,119.3,93.2,119.3,93.2z M119.3,78.8c-3.7,0-6.7,3-6.6,6.7c0,3.7,3,6.7,6.7,6.6
		c3.7,0,6.6-3,6.6-6.7C126,81.8,123,78.8,119.3,78.8C119.3,78.8,119.3,78.8,119.3,78.8z"></path><path class="st1" d="M222.6,90.2h-65.3c-0.3,0-0.5-0.2-0.5-0.5s0.2-0.5,0.5-0.5h65.3c0.3,0,0.5,0.2,0.5,0.5S222.8,90.2,222.6,90.2z
		"></path><path class="st1" d="M256.5,104.7h-99.2c-0.3,0-0.5-0.2-0.5-0.5s0.2-0.5,0.5-0.5h99.2c0.3,0,0.5,0.2,0.5,0.5
		S256.8,104.7,256.5,104.7L256.5,104.7z"></path></g><g id="character-2"><path class="st2" d="M402.3,152.6c9.2-0.9,18.6,6.5,22.7,32.5s9.4,73.6-5.4,78.4s-30-10.9-30-10.9v-100L402.3,152.6z"></path><path class="st0" d="M400.7,149c-4.1-3.2-3.8-21.4-11.1-21.1V149H400.7z"></path><path class="st1" d="M400.7,149.5h-11.1c-0.3,0-0.5-0.2-0.5-0.5v-21.1c0-0.3,0.2-0.5,0.5-0.5h0.2c4.6,0,6.3,6.7,7.8,12.5
		c1,3.9,1.9,7.5,3.4,8.7c0.2,0.1,0.2,0.4,0.2,0.6C401.1,149.4,400.9,149.5,400.7,149.5z M390.2,148.5h9.4c-1.3-1.8-2.1-5-2.9-8.3
		c-1.4-5.4-2.9-11.4-6.5-11.8V148.5z"></path><path class="st0" d="M410.3,164.1c-0.8-6.8-6.5-16.1-12.6-19.5s-11.7-0.5-16.2,2s-6.3,11.8-4.6,13.9c0,0-1.1,5.7,3.9,7.6
		c0.5,2.7,2.4,4.9,5,5.8c0,0-0.3,4.1,4.6,3.8s4.7,1,4.7,1S409.9,176.1,410.3,164.1z"></path><path class="st1" d="M395.2,179.1c-0.1,0-0.3,0-0.4-0.1c-0.1-0.1-0.1-0.2-0.1-0.3c-0.1-0.1-0.7-0.7-4.2-0.5c-1.4,0.2-2.9-0.2-4-1.2
		c-0.7-0.7-1.1-1.7-1.1-2.7c-2.6-1-4.4-3.2-5-5.8c-4.5-1.9-4.2-6.7-4-7.8c-0.7-1-0.8-3.1-0.4-5.5c0.6-3.2,2.3-7.3,5.2-8.9
		c4.6-2.5,10.3-5.7,16.7-2.1c6,3.4,12,12.7,12.9,19.9c0,0,0,0.1,0,0.1c-0.2,5.1-3,9.3-8,12.2C400.4,177.6,397.9,178.6,395.2,179.1
		L395.2,179.1z M391.9,177.1c1.8,0,3,0.3,3.5,0.8l0.1,0.1c2.3-0.5,13.9-3.6,14.3-13.9c-0.8-6.9-6.6-15.9-12.4-19.1
		c-6-3.4-11.4-0.4-15.7,2c-2.6,1.4-4.2,5.3-4.7,8.2c-0.5,2.6-0.2,4.3,0.3,4.9c0.1,0.1,0.1,0.3,0.1,0.4c0,0.2-1,5.3,3.6,7
		c0.2,0.1,0.3,0.2,0.3,0.4c0.4,2.5,2.3,4.6,4.7,5.4c0.2,0.1,0.4,0.3,0.4,0.5c0,0.9,0.3,1.7,0.9,2.4c0.9,0.7,2,1.1,3.2,0.9
		C391,177.1,391.5,177.1,391.9,177.1L391.9,177.1z"></path><path class="st1" d="M376.9,161c-0.1,0-0.1,0-0.2,0c-0.3-0.1-0.4-0.4-0.3-0.6c0,0,0,0,0,0c0.8-2.6,5.5-7.7,10.7-8.2
		c0.3,0,0.5,0.2,0.5,0.4c0,0.3-0.2,0.5-0.4,0.5c0,0,0,0,0,0c-4.7,0.4-9.1,5.2-9.9,7.5C377.3,160.9,377.1,161,376.9,161z"></path><path class="st1" d="M380.9,168.6c-0.1,0-0.1,0-0.2,0c-0.3-0.1-0.4-0.4-0.2-0.7c0.4-0.9,4.2-9.2,7.3-9.6c0.3,0,0.5,0.1,0.6,0.4
		c0,0,0,0,0,0c0,0.3-0.2,0.5-0.4,0.6c-1.9,0.2-5,5.6-6.5,9C381.2,168.5,381,168.6,380.9,168.6z"></path><path class="st1" d="M385.9,174.4c0,0-0.1,0-0.1,0c-0.3-0.1-0.4-0.4-0.3-0.6c0.1-0.3,2.5-8.1,6.4-9.3c0.3-0.1,0.5,0.1,0.6,0.3
		c0,0,0,0,0,0c0.1,0.3-0.1,0.5-0.3,0.6c-3.4,1-5.7,8.6-5.8,8.6C386.3,174.3,386.1,174.4,385.9,174.4z"></path><path class="st0" d="M155.7,186.8c5.9-5.3,8.2-13.5,6-21.1c-1.6-5.9-2.9-11.6-2.4-13.5s-7.2-2.5-9.1,6.7l-7-8.9
		c0,0-7.4-16.3-10.3-18.9s-7.2,3-3.5,10.3c2.7,5.1,5.8,10,9.2,14.6l-18.6-10c-1.9-0.5-3.9,0.6-4.5,2.5C114.4,151.9,131,163,131,163
		s-7.2,0.9-3.3,6.4c0,0-6.4,3.4,0.5,10.6c0,0,7.2,8.9,14.5,10.4S155.7,186.8,155.7,186.8z"></path><path class="st1" d="M145.4,191.2c-0.9,0-1.9-0.1-2.8-0.3c-7.4-1.5-14.5-10.2-14.8-10.6c-2.5-2.6-3.6-5.1-3.3-7.4
		c0.3-1.5,1.2-2.8,2.5-3.7c-1-1.6-1.2-2.9-0.7-4.1c0.7-1.3,2-2.2,3.4-2.4c-4.2-2.9-15.8-11.2-14.6-14.4c0.7-2.2,2.9-3.4,5.1-2.8h0.1
		l16.6,9c-3-4.1-5.6-8.4-8-12.9c-2.5-5-1.6-9.4,0.6-11.1c1.1-0.9,2.7-0.8,3.7,0.2c2.9,2.6,9.8,17.8,10.4,19l6.3,8.1
		c1.4-5,4.5-6.5,5.8-7c1.2-0.5,2.6-0.4,3.7,0.3c0.3,0.3,0.5,0.7,0.4,1.1c-0.2,0.9-0.2,3.7,2.4,13.3c0.8,3,2.8,13.5-6.1,21.6
		C153.1,189.6,149.3,191.1,145.4,191.2z M119.1,146.4c-1.4,0-2.7,0.9-3.1,2.3c-0.8,2.1,8.4,9.4,15.2,13.9c0.2,0.1,0.3,0.3,0.2,0.5
		c0,0.2-0.2,0.4-0.4,0.4c0,0-3.1,0.4-3.8,2.1c-0.4,0.9-0.1,2.1,0.9,3.6c0.1,0.1,0.1,0.3,0.1,0.4c0,0.1-0.1,0.3-0.2,0.3
		c-1.2,0.7-2.1,1.9-2.4,3.3c-0.3,1.9,0.7,4.1,3,6.5c0.1,0.1,7.2,8.9,14.3,10.3s12.5-3.5,12.6-3.6l0,0c8.5-7.7,6.6-17.7,5.8-20.6
		c-2-7.4-2.9-12.1-2.4-13.8c0,0,0-0.1-0.1-0.2c-0.8-0.4-1.8-0.5-2.7-0.1c-1.2,0.4-4.2,1.9-5.4,7.2c0,0.2-0.2,0.3-0.4,0.4
		c-0.2,0-0.4,0-0.5-0.2l-7-8.9l-0.1-0.1c-0.1-0.2-7.4-16.2-10.2-18.8c-0.6-0.7-1.7-0.7-2.4-0.1c-1.6,1.2-2.7,5.1-0.3,9.9
		c2.7,5.1,5.8,9.9,9.2,14.6c0.1,0.2,0.1,0.4,0,0.6c-0.2,0.2-0.4,0.2-0.6,0.1l-18.5-10C119.6,146.5,119.4,146.4,119.1,146.4
		L119.1,146.4z"></path><path class="st1" d="M142.3,166.9c-0.1,0-0.2,0-0.3-0.1c-0.2-0.2-0.3-0.5-0.1-0.7c2.4-3.2,7.7-7.4,7.9-7.6c0.2-0.2,0.5-0.1,0.7,0.1
		c0,0,0,0,0,0c0.2,0.2,0.1,0.5-0.1,0.7c0,0,0,0,0,0c-0.1,0-5.4,4.3-7.7,7.4C142.6,166.8,142.5,166.9,142.3,166.9z"></path><path class="st1" d="M133.6,161.5c-0.1,0-0.2,0-0.3-0.1c-0.2-0.1-0.3-0.4-0.1-0.7c0,0,0,0,0,0c3.4-5.1,9.3-8.2,9.5-8.3
		c0.2-0.1,0.5,0,0.7,0.2s0,0.5-0.2,0.7c-0.1,0-5.9,3.1-9.2,8C133.9,161.4,133.8,161.5,133.6,161.5z"></path><path class="st1" d="M137.9,176.7c-0.3,0-0.7,0-1-0.1c-4.4-0.6-9.4-6.6-9.6-6.9c-0.2-0.2-0.1-0.5,0.1-0.7c0.2-0.2,0.5-0.1,0.7,0.1
		c0,0,0,0,0,0c0,0.1,4.9,5.9,9,6.5c1.7,0.4,3.5-0.3,4.6-1.6c0.5-0.7,0.6-1.5,0.3-2.3c-0.6-1.1-1.5-1.6-3.1-2.6
		c-1-0.6-2.3-1.4-3.9-2.6c-0.2-0.2-0.3-0.5-0.1-0.7c0.2-0.2,0.5-0.3,0.7-0.1c1.6,1.2,2.9,1.9,3.9,2.5c1.6,1,2.7,1.6,3.4,2.9
		c0.5,1.1,0.4,2.4-0.3,3.4C141.4,176,139.7,176.8,137.9,176.7z"></path><path class="st1" d="M135.9,184.8c-2.6,0-6.1-2.2-6.6-2.6c-0.2-0.1-0.3-0.5-0.1-0.7c0,0,0,0,0,0c0.2-0.2,0.5-0.3,0.7-0.1
		c1.6,1.1,6.2,3.6,7.5,1.8c1.6-2.3-0.9-6.7-0.9-6.8c-0.2-0.2-0.1-0.5,0.1-0.7s0.5-0.1,0.7,0.1c0,0,0,0.1,0.1,0.1
		c0.1,0.2,2.9,5,0.9,7.8C137.7,184.4,136.8,184.8,135.9,184.8z"></path><path class="st2" d="M367.9,187.5v77.5H233.6c0,0,1.6-20.7,6.2-36.1c0,0-33,26.8-53.6,21.5c-17.8-4.6-39.4-42.9-45-53.3
		c-0.9-1.7-0.9-3.7,0.1-5.4c2.9-5.1,10.1-15.5,21.9-18.9c2-0.6,4.1,0,5.5,1.5l31.3,31.9c0,0,43.8-38.8,81.4-42.3
		S351.1,170.9,367.9,187.5z"></path><path class="st1" d="M241.2,225.3h-0.1c-0.3-0.1-0.4-0.3-0.4-0.6c2.9-11.4,6.4-22.6,10.5-33.7c0.1-0.3,0.4-0.4,0.6-0.3
		c0.3,0.1,0.4,0.4,0.3,0.6c-4.1,11-7.6,22.2-10.5,33.6C241.6,225.1,241.4,225.3,241.2,225.3z"></path><path class="st0" d="M283.3,109.3c-5.8,17.8-14,33.1-15.7,42.9s2.5,19.8,2.5,19.8l32.6-0.9l3.5-16.2L283.3,109.3z"></path><path class="st1" d="M270.1,172.5c-0.2,0-0.4-0.1-0.5-0.3c-0.2-0.4-4.3-10.2-2.6-20.1c0.9-5.4,3.9-12.5,7.3-20.7
		c2.8-6.7,5.9-14.2,8.5-22.2c0.1-0.2,0.2-0.3,0.4-0.3c0.2,0,0.4,0.1,0.5,0.3l23,45.6c0,0.1,0,0.2,0,0.3l-3.5,16.2
		c0,0.2-0.2,0.4-0.5,0.4L270.1,172.5L270.1,172.5z M283.4,110.6c-2.5,7.6-5.5,14.8-8.1,21.2c-3.4,8.1-6.3,15.2-7.2,20.5
		c-1.5,8.6,1.7,17.4,2.4,19.2l31.9-0.8l3.4-15.7L283.4,110.6z"></path><path class="st0" d="M325.2,150.7c-0.8,11.5-0.7,25-0.7,25s-4.1,10.5-15.5,10.1s-10.6-10.1-10.3-12.1s4.9-13.2,5.4-15.4
		S325.2,150.7,325.2,150.7z"></path><path class="st1" d="M309.6,186.4h-0.7c-3.9-0.1-6.8-1.3-8.6-3.5c-2.7-3.1-2.4-7.4-2.2-9.1c0.9-3.1,1.9-6.2,3.2-9.2
		c1-2.8,2-5.4,2.2-6.2c0.6-2.2,16.6-6.7,21.5-8c0.2,0,0.3,0,0.4,0.1c0.1,0.1,0.2,0.3,0.2,0.4c-0.8,11.4-0.7,24.9-0.7,25
		c0,0.1,0,0.1,0,0.2C324.9,176.1,320.7,186.4,309.6,186.4z M324.6,151.4c-9.6,2.6-19.6,6-20.1,7.1c-0.2,0.9-1.2,3.4-2.3,6.3
		c-1.2,2.9-2.2,5.9-3.1,9c-0.2,1.6-0.4,5.5,2,8.3c1.7,2,4.3,3.1,7.9,3.2c10.5,0.4,14.5-8.6,15-9.7
		C324,174.4,323.9,162.1,324.6,151.4L324.6,151.4z"></path><path class="st0" d="M280.3,147.4c7.9,11,28.3,15,42.6,7.4l0,0c2.5-1.9,4.5-4.3,5.9-7c5.6-10.5,1.6-23.6-8.6-29.7l-0.6-0.3
		c-1.3-0.7-2.5-1.4-3.6-2.2l0,0c-3.2-2-6.1-4.4-8.8-7c0,0-0.1-0.1-0.1-0.2c-2.5-2.4-4.8-5.1-6.7-8.1l0,0L300,100v-0.1
		c-3,7.3-16.3,9.3-16.7,9.3C279.7,117.4,272.5,136.6,280.3,147.4z"></path><path class="st1" d="M306.3,159.1c-10.6,0-21.2-4.1-26.4-11.4l0,0c-7.9-11.1-0.5-30.7,3-38.6c0.1-0.2,0.2-0.3,0.4-0.3
		c0.1,0,13.3-2,16.3-9c0.1-0.2,0.2-0.3,0.4-0.3c0.2,0,0.4,0.1,0.5,0.2c0,0,0,0.1,0,0.1l0.1,0.2c1.9,2.9,4.1,5.6,6.7,8l0.1,0.1
		c2.7,2.6,5.6,5,8.8,7c1.2,0.8,2.4,1.5,3.6,2.2l0.6,0.4c10.5,6.2,14.4,19.5,8.8,30.3c-1.4,2.8-3.5,5.2-6,7.1
		C318,157.8,312.2,159.2,306.3,159.1z M280.7,147.1c7.9,11,28.3,14.5,41.9,7.2c2.4-1.8,4.3-4.1,5.7-6.8c5.3-10.4,1.6-23.1-8.5-29
		l-0.6-0.3c-1.2-0.7-2.5-1.4-3.6-2.2c-3.2-2.1-6.2-4.4-8.9-7.1l-0.1-0.1c-2.4-2.3-4.6-4.9-6.5-7.8c-3.5,6.4-14.4,8.4-16.4,8.8
		C280.2,117.7,273.1,136.6,280.7,147.1L280.7,147.1z"></path><path class="st1" d="M309.3,122.8c0.8-0.7,1.8-1.2,2.9-1.5c1.1-0.3,2.2-0.4,3.3-0.2c1.1,0.2,2.1,0.7,3,1.4c0.4,0.3,0.8,0.7,1.1,1.2
		c0.3,0.4,0.6,0.9,0.9,1.3c0.1,0.2,0.1,0.5-0.2,0.7c-0.2,0.1-0.4,0.1-0.6,0h-0.1c-0.4-0.3-0.7-0.7-1-1l-0.5-0.4
		c-0.2-0.1-0.4-0.3-0.5-0.4l-0.6-0.4l-0.6-0.3c-0.2-0.1-0.4-0.2-0.6-0.2c-0.2-0.1-0.4-0.1-0.6-0.2c-0.9-0.2-1.7-0.2-2.6,0
		c-0.9,0.2-1.8,0.4-2.6,0.8h0c-0.2,0.1-0.5,0-0.7-0.2c0,0,0,0,0,0C309.1,123.2,309.2,123,309.3,122.8z"></path><path class="st1" d="M284.3,114.3c0.5-0.5,1-0.9,1.7-1.1c0.6-0.2,1.2-0.3,1.8-0.3c1.2-0.1,2.5,0.2,3.6,0.6c1.1,0.4,2.2,1.1,3.1,1.9
		c0.9,0.8,1.6,1.7,2.2,2.8c0.1,0.2,0.1,0.5-0.1,0.7c0,0,0,0,0,0c-0.2,0.1-0.4,0.1-0.6-0.1l0,0c-0.7-0.8-1.5-1.5-2.4-2.2
		c-0.8-0.6-1.7-1.2-2.7-1.6c-1-0.4-2-0.6-3-0.7c-0.5,0-1,0-1.5,0.1c-0.5,0.1-0.9,0.2-1.3,0.4L285,115c-0.2,0.2-0.5,0.1-0.7-0.1
		C284.1,114.7,284.1,114.5,284.3,114.3L284.3,114.3z"></path><path class="st1" d="M292.1,135.9c-0.2,0-0.3,0-0.5,0c-1.8-0.1-3.2-1.7-3.1-3.6c0,0,0-0.1,0-0.1c0-0.9,0.4-1.8,1.1-2.4
		c1.4-1.1,3.6-1,4.6-0.9c0.8-3.4,1.3-6.9,1.5-10.5c0-0.3,0.2-0.5,0.5-0.5c0,0,0,0,0,0c0.3,0,0.5,0.3,0.5,0.5
		c-0.2,3.7-0.8,7.5-1.7,11.1c-0.1,0.3-0.3,0.4-0.6,0.4c0,0-2.9-0.5-4.3,0.6c-0.5,0.4-0.8,1-0.8,1.7c-0.2,1.3,0.7,2.5,2,2.6
		c0.1,0,0.1,0,0.2,0c1.8,0.3,3.5-0.9,4-2.6c0.1-0.3,0.3-0.4,0.6-0.4c0.3,0.1,0.4,0.3,0.4,0.6c0,0,0,0,0,0
		C296.2,134.5,294.2,136,292.1,135.9z"></path><path class="st1" d="M311.1,129.2c0.2,1.8-0.7,3.4-2,3.5s-2.4-1.3-2.6-3.1c0-0.5,0-1.1,0.1-1.6l2.3,1l-1.3-2.6
		c0.2-0.2,0.5-0.3,0.9-0.3C309.8,126,310.9,127.4,311.1,129.2z"></path><path class="st1" d="M289,123.2c0.3,1.8-0.4,3.5-1.7,3.7s-2.5-1-2.9-2.9c-0.1-0.5-0.1-1.1,0-1.6l2.4,0.8l-1.5-2.5
		c0.2-0.2,0.5-0.4,0.8-0.4C287.4,120.1,288.7,121.4,289,123.2z"></path><path class="st1" d="M303.8,147.5c-2.3-0.1-4.2-1.5-5.2-3.6c-0.1-0.2,0-0.5,0.2-0.7c0.2-0.1,0.5,0,0.7,0.2c1.1,2.1,3,3.3,4.9,3
		c1.9-0.4,3.2-2,3.4-3.9c0.1-0.3,0.3-0.5,0.6-0.4c0.3,0,0.5,0.3,0.4,0.6c-0.2,2.3-1.9,4.2-4.2,4.7
		C304.3,147.5,304,147.5,303.8,147.5z"></path><path class="st1" d="M315.9,116c-0.1,0-0.2,0-0.2-0.1c-3.3-2-6.2-4.4-8.9-7.1c-0.2-0.2-0.2-0.5,0-0.7c0,0,0,0,0,0
		c0.2-0.2,0.5-0.2,0.7,0c2.7,2.6,5.6,5,8.7,7c0.2,0.1,0.3,0.5,0.1,0.7C316.2,116,316.1,116.1,315.9,116L315.9,116z"></path><path class="st0" d="M274.8,109.3c0,0,19.3,2.7,25.2-9.3v0.1c0,0,0.1,0.1,0.1,0.2l0,0c2,2.9,4.2,5.6,6.7,8.1c0,0,0.1,0.1,0.1,0.2
		c2.7,2.6,5.7,5,8.8,7l0,0l3.6,2.2l0.6,0.3c10.2,6.1,14.2,19.2,8.6,29.7c-1.4,2.7-3.4,5.1-5.9,7l0,0c-5.8,4.2-9.9,10.4-11.5,17.4
		c0,0,18.9-2.4,35.5,4.1s8.9-56.8-4.8-76.4S312.7,81.3,308.3,83c0,0-6-7-16.4,2.2C282.1,93.9,274.8,109.3,274.8,109.3z"></path><path class="st1" d="M349.1,177.3c-0.8,0-1.6-0.2-2.4-0.5c-16.3-6.4-35.1-4.1-35.2-4.1c-0.2,0-0.3,0-0.4-0.1
		c-0.1-0.1-0.2-0.3-0.1-0.4c1.6-7.1,5.8-13.4,11.7-17.7c2.4-1.8,4.4-4.1,5.8-6.8c5.3-10.4,1.6-23.1-8.5-29l-4.2-2.5
		c-3.2-2.1-6.2-4.5-8.9-7.1l-0.1-0.1c-2.4-2.4-4.6-5-6.5-7.8c-6.4,11.4-24.5,9-25.3,8.9c-0.3,0-0.5-0.3-0.4-0.6c0,0,0-0.1,0-0.1
		c0.1-0.2,7.4-15.6,17.2-24.2c3.9-3.5,7.7-5.1,11.2-4.9c2.1,0.1,4.1,1,5.7,2.4c4.9-1.7,20.6-2,34.1,17.2
		c12,17.2,18.9,65.1,10.8,75.5C352.3,176.5,350.7,177.3,349.1,177.3z M319.8,171.3c7.1,0,17.6,0.8,27.3,4.6c1.9,1,4.2,0.4,5.4-1.4
		c7.8-9.9,0.8-57.8-10.8-74.3c-13.4-19.1-28.8-18.5-33.2-16.7c-0.2,0.1-0.4,0-0.6-0.1c-1.4-1.4-3.3-2.2-5.3-2.4
		c-3.3-0.2-6.8,1.3-10.5,4.6c-8.5,7.5-15.1,20.2-16.6,23.2c3.5,0.3,18.9,1.2,24-9.2c0.1-0.2,0.4-0.3,0.7-0.2c0.1,0,0.1,0.1,0.2,0.2
		c0,0,0,0.1,0,0.1l0.1,0.2l0,0c2,2.9,4.2,5.5,6.7,8l0.1,0.1c2.7,2.6,5.6,5,8.8,7l4.2,2.5c10.6,6.2,14.4,19.5,8.9,30.4
		c-1.4,2.8-3.5,5.2-6,7.1c-5.5,4.1-9.5,9.9-11.2,16.5C313.2,171.5,316,171.3,319.8,171.3L319.8,171.3z"></path><polygon class="st0" points="301.9,387.2 362.6,453.2 409.4,420.2 389.6,387.2 	"></polygon><path class="st1" d="M362.6,453.7c-0.1,0-0.3-0.1-0.4-0.2l-60.7-65.9c-0.1-0.1-0.2-0.4-0.1-0.5c0.1-0.2,0.3-0.3,0.5-0.3h87.7
		c0.2,0,0.3,0.1,0.4,0.2l19.8,33c0.1,0.2,0.1,0.5-0.1,0.7l-46.8,33C362.8,453.7,362.7,453.7,362.6,453.7z M303,387.7l59.6,64.8
		l46-32.5l-19.4-32.3H303z"></path><path class="st0" d="M267.1,387.2c-6.8,21.2-8.5,59.4-8.5,59.4l-56.8-4.2c-2.5-36.4,3-55.1,3-55.1H267.1z"></path><path class="st1" d="M258.7,447.1L258.7,447.1l-56.8-4.2c-0.2,0-0.4-0.2-0.5-0.5c-2.5-36.1,2.9-55.1,3-55.3
		c0.1-0.2,0.3-0.4,0.5-0.4h62.3c0.2,0,0.3,0.1,0.4,0.2c0.1,0.1,0.1,0.3,0.1,0.4c-6.7,20.9-8.4,58.9-8.5,59.2c0,0.1-0.1,0.3-0.2,0.4
		C259,447.1,258.8,447.1,258.7,447.1z M202.4,441.9l55.8,4.2c0.2-4.6,2.1-38.5,8.3-58.3h-61.2C204.5,390.5,200.1,409,202.4,441.9
		L202.4,441.9z"></path></g></svg>