<svg transform="scale(1)" version="1.1" id="_x30_206_x5F_Augmented_x5F_Reality_x5F_2" xmlns="http://www.w3.org/2000/svg" xmlns:xlink="http://www.w3.org/1999/xlink" x="0px" y="0px" viewBox="0 0 500 500" xml:space="preserve" class="show_show__wrapper__graphic__5Waiy "><title>React</title><style type="text/css">
	.st0{fill:#FFFFFF;}
	.st1{fill:#732A09;}
	.st2{fill:#F75454;}
	.st3{fill:none;stroke:#732A09;stroke-linecap:round;stroke-linejoin:round;}
	.st4{fill:#FFFFFF;stroke:#732A09;stroke-linecap:round;stroke-linejoin:round;}
</style><g id="laptop"><polygon class="st0" points="220.3,239.3 416.2,239.3 463.1,264.9 173.4,264.9 	"></polygon><path class="st1" d="M463.1,265.4H173.4c-0.2,0-0.4-0.2-0.4-0.4c-0.1-0.2,0-0.5,0.2-0.6l46.9-25.6c0.1,0,0.2-0.1,0.2-0.1h195.9
		c0.1,0,0.2,0,0.2,0.1l46.9,25.6c0.2,0.1,0.3,0.4,0.2,0.7C463.5,265.3,463.3,265.4,463.1,265.4L463.1,265.4z M175.4,264.4h285.7
		l-45-24.6H220.4L175.4,264.4z"></path><path class="st0" d="M417.5,109.8l-1.3,126.3c0,1.7-1.4,3.2-3.2,3.1H223.5c-1.7,0-3.2-1.4-3.2-3.1L219,109.8c0-1.8,1.4-3.2,3.1-3.2
		c0,0,0,0,0,0h192.1C416.1,106.6,417.5,108,417.5,109.8C417.5,109.8,417.5,109.8,417.5,109.8z"></path><path class="st1" d="M413.1,239.8H223.5c-2,0-3.7-1.6-3.7-3.6l-1.3-126.3c0-2,1.6-3.7,3.6-3.7c0,0,0,0,0,0h192.1
		c2,0,3.7,1.7,3.7,3.7c0,0,0,0,0,0l-1.3,126.3C416.7,238.1,415.1,239.8,413.1,239.8z M222.2,107.1c-1.5,0-2.7,1.2-2.7,2.7
		c0,0,0,0,0,0.1l1.3,126.3c0,1.5,1.2,2.6,2.7,2.6h189.6c1.5,0,2.7-1.2,2.7-2.6l1.2-126.3l0,0c0-1.5-1.2-2.7-2.7-2.7c0,0,0,0,0,0
		H222.2z"></path><polygon class="st0" points="225.2,234.3 224,111.6 412.5,111.6 411.3,234.3 	"></polygon><path class="st1" d="M411.3,234.8h-186c-0.3,0-0.5-0.2-0.5-0.5c0,0,0,0,0,0l-1.2-122.7c0-0.1,0-0.3,0.1-0.3
		c0.1-0.1,0.2-0.2,0.4-0.2h188.5c0.1,0,0.3,0.1,0.4,0.2c0.1,0.1,0.1,0.2,0.1,0.3l-1.2,122.7C411.8,234.6,411.6,234.8,411.3,234.8
		C411.3,234.8,411.3,234.8,411.3,234.8z M225.7,233.8h185.1l1.2-121.7H224.5L225.7,233.8z"></path><rect class="st0" x="173.4" y="264.9" width="289.6" height="7.4"></rect><path class="st1" d="M463.1,272.8H173.4c-0.3,0-0.5-0.2-0.5-0.5v-7.4c0-0.3,0.2-0.5,0.5-0.5h289.6c0.3,0,0.5,0.2,0.5,0.5v7.4
		C463.6,272.6,463.4,272.8,463.1,272.8z M173.9,271.8h288.6v-6.4H174L173.9,271.8z"></path></g><g id="people-puzzle-icon"><path class="st2" d="M211,186.3h37.6c4.5,0,8.2,3.7,8.2,8.2v45.8h-54v-45.8C202.8,190,206.5,186.3,211,186.3
		C211,186.3,211,186.3,211,186.3z"></path><path class="st2" d="M256.8,240.8h-54c-0.3,0-0.5-0.2-0.5-0.5v-45.8c0-4.8,3.9-8.7,8.7-8.7h37.6c4.8,0,8.7,3.9,8.7,8.7v45.8
		C257.2,240.6,257,240.8,256.8,240.8z M203.3,239.8h53v-45.3c0-4.2-3.4-7.7-7.7-7.7H211c-4.2,0-7.7,3.5-7.7,7.7L203.3,239.8z"></path><circle class="st2" cx="229.8" cy="157.4" r="20.7"></circle><path class="st2" d="M229.8,178.6c-11.7,0-21.2-9.5-21.2-21.2c0-11.7,9.5-21.2,21.2-21.2c11.7,0,21.2,9.5,21.2,21.2
		C251,169.1,241.5,178.6,229.8,178.6z M229.8,137.2c-11.2,0-20.2,9.1-20.2,20.2c0,11.2,9.1,20.2,20.2,20.2
		c11.1,0,20.2-9.1,20.2-20.2C250,146.2,240.9,137.2,229.8,137.2z"></path><path class="st2" d="M211,186.3h37.6c4.5,0,8.2,3.7,8.2,8.2v45.8h-54v-45.8C202.8,190,206.5,186.3,211,186.3
		C211,186.3,211,186.3,211,186.3z"></path><path class="st1" d="M256.8,240.8h-54c-0.3,0-0.5-0.2-0.5-0.5v-45.8c0-4.8,3.9-8.7,8.7-8.7h37.6c4.8,0,8.7,3.9,8.7,8.7v45.8
		C257.2,240.6,257,240.8,256.8,240.8z M203.3,239.8h53v-45.3c0-4.2-3.4-7.7-7.7-7.7H211c-4.2,0-7.7,3.5-7.7,7.7L203.3,239.8z"></path><circle class="st2" cx="229.8" cy="157.4" r="20.7"></circle><path class="st1" d="M229.8,178.6c-11.7,0-21.2-9.5-21.2-21.2c0-11.7,9.5-21.2,21.2-21.2c11.7,0,21.2,9.5,21.2,21.2
		C251,169.1,241.5,178.6,229.8,178.6z M229.8,137.2c-11.2,0-20.2,9.1-20.2,20.2c0,11.2,9.1,20.2,20.2,20.2
		c11.1,0,20.2-9.1,20.2-20.2C250,146.2,240.9,137.2,229.8,137.2z"></path><path class="st3" d="M211,186.3h37.6c4.5,0,8.2,3.7,8.2,8.2v45.8h-54v-45.8C202.8,190,206.5,186.3,211,186.3
		C211,186.3,211,186.3,211,186.3z"></path><path class="st3" d="M256.8,240.8h-54c-0.3,0-0.5-0.2-0.5-0.5v-45.8c0-4.8,3.9-8.7,8.7-8.7h37.6c4.8,0,8.7,3.9,8.7,8.7v45.8
		C257.2,240.6,257,240.8,256.8,240.8z M203.3,239.8h53v-45.3c0-4.2-3.4-7.7-7.7-7.7H211c-4.2,0-7.7,3.5-7.7,7.7L203.3,239.8z"></path><circle class="st3" cx="229.8" cy="157.4" r="20.7"></circle><path class="st3" d="M229.8,178.6c-11.7,0-21.2-9.5-21.2-21.2c0-11.7,9.5-21.2,21.2-21.2c11.7,0,21.2,9.5,21.2,21.2
		C251,169.1,241.5,178.6,229.8,178.6z M229.8,137.2c-11.2,0-20.2,9.1-20.2,20.2c0,11.2,9.1,20.2,20.2,20.2
		c11.1,0,20.2-9.1,20.2-20.2C250,146.2,240.9,137.2,229.8,137.2z"></path></g><g id="phone"><path class="st1" d="M318.5,298.9H147.2c-3.3,0-6-2.7-6-6V89.5c0-3.3,2.7-6,6-6h171.2c3.3,0,6,2.7,6,6v203.5
		C324.5,296.3,321.8,298.9,318.5,298.9z M147.2,84.5c-2.8,0-5,2.2-5,5v203.5c0,2.8,2.2,5,5,5h171.2c2.8,0,5-2.2,5-5V89.5
		c0-2.8-2.2-5-5-5H147.2z"></path><path class="st1" d="M314.7,288H151c-0.3,0-0.5-0.2-0.5-0.5V94.9c0-0.3,0.2-0.5,0.5-0.5h163.7c0.3,0,0.5,0.2,0.5,0.5v192.6
		C315.2,287.8,314.9,288,314.7,288z M151.5,287h162.6V95.4H151.5L151.5,287z"></path><circle class="st2" cx="218.1" cy="89.8" r="2"></circle><path class="st1" d="M218.1,92.4c-1.4,0-2.5-1.1-2.5-2.5s1.1-2.5,2.5-2.5s2.5,1.1,2.5,2.5l0,0C220.7,91.2,219.5,92.4,218.1,92.4z
		 M218.1,88.3c-0.8,0-1.5,0.7-1.5,1.5s0.7,1.5,1.5,1.5c0.8,0,1.5-0.7,1.5-1.5l0,0C219.7,89,219,88.3,218.1,88.3z"></path><path class="st2" d="M225.7,88.5h26.6c0.7,0,1.3,0.6,1.3,1.3v0c0,0.7-0.6,1.3-1.3,1.3h-26.6c-0.7,0-1.3-0.6-1.3-1.3v0
		C224.3,89.1,224.9,88.5,225.7,88.5z"></path><path class="st1" d="M252.3,91.7h-26.6c-1,0.1-1.9-0.7-2-1.7s0.7-1.9,1.7-2c0.1,0,0.2,0,0.3,0h26.6c1,0.1,1.8,1,1.7,2
		C253.9,90.9,253.2,91.6,252.3,91.7z M225.7,89c-0.5-0.1-0.9,0.3-0.9,0.7c-0.1,0.5,0.3,0.9,0.7,0.9c0.1,0,0.1,0,0.2,0h26.6
		c0.5-0.1,0.8-0.5,0.7-0.9c0-0.4-0.3-0.7-0.7-0.7H225.7z"></path><path class="st2" d="M165.3,108.5h8c0.7,0,1.3,0.6,1.3,1.3v0c0,0.7-0.6,1.3-1.3,1.3h-8c-0.7,0-1.3-0.6-1.3-1.3v0
		C164,109.1,164.6,108.5,165.3,108.5z"></path><path class="st2" d="M165.3,112.3h8c0.7,0,1.3,0.6,1.3,1.3v0c0,0.7-0.6,1.3-1.3,1.3h-8c-0.7,0-1.3-0.6-1.3-1.3v0
		C164,112.9,164.6,112.3,165.3,112.3z"></path><path class="st2" d="M165.3,116.1h8c0.7,0,1.3,0.6,1.3,1.3v0c0,0.7-0.6,1.3-1.3,1.3h-8c-0.7,0-1.3-0.6-1.3-1.3v0
		C164,116.7,164.6,116.1,165.3,116.1z"></path><path class="st2" d="M166.4,127.9v5.8c0,0.6,0.5,1.2,1.1,1.2c0.2,0,0.4-0.1,0.6-0.2l4.8-2.9c0.6-0.3,0.7-1,0.4-1.6
		c-0.1-0.2-0.2-0.3-0.4-0.4l-4.8-2.9c-0.5-0.3-1.3-0.2-1.6,0.4C166.5,127.5,166.4,127.7,166.4,127.9z"></path><circle class="st2" cx="170" cy="146.5" r="3.6"></circle></g><g id="left-hand"><path class="st2" d="M139.6,321.1c5.3,5,4.3,12.5,0.6,20.1s-24.7,52.6-24.7,52.6s-42.1-8.6-61.6-26.5c0,0,32.1-55.6,37.1-60.2
		s14.1-1.2,14.1-1.2S128,309.9,139.6,321.1z"></path><path class="st0" d="M141.7,253.9c0,0,16.7-19.9,23.3-18s4.3,15-2.8,26.3c-7.1,11.3-6.4,23.7-6.9,31.6s-4,18.8-8.9,21.6
		s-6.8,5.6-6.8,5.6s-17.6-13.5-34.4-15.2c5.2-10.5,8.4-21.9,9.4-33.6c1.9-19.9-1.1-25.9,4.3-36.5s22.7-30,22.7-30L141.7,253.9z"></path><path class="st1" d="M139.6,321.6c-0.1,0-0.2,0-0.3-0.1c-0.2-0.1-17.6-13.4-34.2-15.1c-0.3,0-0.5-0.3-0.4-0.5c0-0.1,0-0.1,0.1-0.2
		c5.1-10.5,8.3-21.8,9.3-33.4c0.7-7.3,0.8-12.8,0.8-17.1c0.1-7.7,0.1-12.7,3.6-19.5c5.3-10.5,22.6-29.9,22.8-30.1
		c0.1-0.2,0.4-0.2,0.6-0.1c0.2,0.1,0.3,0.3,0.3,0.5l0.2,46.8c3.6-4.1,16.9-18.9,23-17.1c1.7,0.5,3.1,1.8,3.6,3.5
		c1.9,5-0.6,14.7-6.1,23.6c-5.9,9.4-6.3,19.8-6.6,27.3c-0.1,1.5-0.1,2.8-0.2,4.1c-0.5,7.3-3.7,18.9-9.2,22c-2.6,1.3-4.8,3.2-6.7,5.4
		c-0.1,0.1-0.2,0.2-0.3,0.2L139.6,321.6z M105.9,305.5c15.2,1.8,30.9,12.9,33.6,14.9c1.9-2.2,4.2-4,6.7-5.3c4.6-2.6,8.1-13,8.7-21.2
		c0.1-1.2,0.1-2.6,0.2-4.1c0.3-7.7,0.8-18.2,6.8-27.8c5.4-8.6,7.9-17.9,6-22.7c-0.5-1.4-1.6-2.5-3-2.9c-5.2-1.5-18.2,12.4-22.8,17.8
		c-0.1,0.2-0.4,0.2-0.6,0.1c-0.2-0.1-0.3-0.3-0.3-0.5l-0.2-46.8c-3.6,4.1-17.2,19.9-21.7,28.9c-3.3,6.6-3.4,11.3-3.4,19.1
		c0,4.4-0.1,9.9-0.8,17.2C113.9,283.9,110.9,295.1,105.9,305.5z"></path><path class="st1" d="M132.5,267.6c-0.1,0-0.2,0-0.2-0.1c-0.2-0.1-0.3-0.4-0.2-0.7c2.2-4.2,4.8-8.2,7.8-11.8
		c0.2-0.2,0.5-0.2,0.7-0.1c0.2,0.2,0.2,0.5,0.1,0.7c-2.9,3.6-5.5,7.5-7.6,11.6C132.9,267.5,132.7,267.6,132.5,267.6z"></path><path class="st1" d="M141.7,246.8c-0.1,0-0.2,0-0.3-0.1c-0.1-0.1-7.8-6.1-14.2-7.8c-0.3-0.1-0.4-0.3-0.4-0.6s0.3-0.4,0.6-0.4
		c6.6,1.7,14.2,7.7,14.6,7.9c0.2,0.2,0.3,0.5,0.1,0.7c0,0,0,0,0,0C142,246.7,141.9,246.8,141.7,246.8z"></path><path class="st1" d="M137.1,243.6c-0.1,0-0.1,0-0.2,0c-0.3-0.1-0.4-0.4-0.3-0.6c1.1-2.8,2.7-5.3,4.7-7.6c0.2-0.2,0.5-0.2,0.7-0.1
		c0.2,0.2,0.2,0.5,0.1,0.7c-1.9,2.2-3.4,4.6-4.5,7.3C137.5,243.4,137.3,243.6,137.1,243.6z"></path></g><g id="right-hand"><path class="st2" d="M396.5,333.9c-35.7-39.2-46.5-53.9-46.2-58s6.4-12.1,6.4-12.1s19.1-19.4,25.5-16.9s80.9,58.5,80.9,58.5
		S442.4,333.5,396.5,333.9z"></path><path class="st0" d="M326.3,202.6c-6.5,1.2-15.4,14.2-15.4,14.2l3.3,11.8l12.8,10.6l14.6,1.2l-4.4-36.2L326.3,202.6z"></path><path class="st1" d="M341.7,240.8L341.7,240.8l-14.6-1.2c-0.1,0-0.2-0.1-0.3-0.1L314,228.9c-0.1-0.1-0.1-0.2-0.2-0.2l-3.3-11.8
		c0-0.1,0-0.3,0.1-0.4c0.4-0.5,9.1-13.2,15.7-14.4h0.2l11,1.5c0.2,0,0.4,0.2,0.4,0.4l4.4,36.2c0,0.1,0,0.3-0.1,0.4
		C342,240.8,341.9,240.8,341.7,240.8z M327.3,238.6l13.9,1.1l-4.3-35.2l-10.6-1.4c-5.8,1.2-13.8,12.2-14.9,13.8l3.2,11.4
		L327.3,238.6z"></path><path class="st1" d="M317.9,226.8c-0.1,0-0.2,0-0.2-0.1c-0.2-0.1-0.3-0.4-0.2-0.7c0,0,0,0,0,0c4.7-8.2,15.2-17.1,15.3-17.1
		c0.2-0.2,0.5-0.2,0.7,0.1c0.2,0.2,0.2,0.5-0.1,0.7l0,0c-0.1,0.1-10.4,8.8-15.1,16.9C318.3,226.7,318.1,226.8,317.9,226.8z"></path><path class="st1" d="M326.3,232.9L326.3,232.9c-0.3,0-0.5-0.2-0.5-0.5c0,0,0,0,0,0c0.5-8.8,1.2-17.9,1.2-18c0-0.3,0.3-0.5,0.5-0.4
		c0.3,0,0.5,0.3,0.5,0.5c0,0,0,0,0,0c0,0.1-0.8,9.2-1.2,18C326.8,232.7,326.6,232.9,326.3,232.9z"></path><path class="st2" d="M265.3,178.8v41.9c0,1.1,0.9,2,2,2h52.9c1.1-0.1,1.9-1,1.9-2.1c0-0.5-0.3-1-0.7-1.4l-52.9-41.9
		c-0.8-0.7-2.1-0.5-2.7,0.3C265.5,178,265.3,178.4,265.3,178.8z"></path><path class="st1" d="M320.1,223.1h-52.9c-1.4,0-2.5-1.1-2.5-2.4c0,0,0,0,0,0v-41.9c0-0.9,0.5-1.8,1.4-2.2c0.8-0.4,1.9-0.3,2.6,0.3
		l52.9,41.9c1.1,0.8,1.2,2.4,0.4,3.4C321.6,222.8,320.9,223.1,320.1,223.1L320.1,223.1z M267.3,177.3c-0.8,0-1.4,0.6-1.5,1.4v41.9
		c0,0.8,0.6,1.4,1.5,1.4l0,0h52.9c0.8,0,1.4-0.7,1.4-1.5c0-0.4-0.2-0.8-0.5-1.1l-52.9-41.9C267.9,177.5,267.6,177.4,267.3,177.3
		L267.3,177.3z"></path><path class="st4" d="M331.6,206.7c-7.7-2-15.8-2.3-23.6-1c-3.5,0.7-6.4,2.2-8.7,0.1s0.1-7.9,9.6-10.4s26.3-2.1,30.6,0
		s14.1,11.9,17.6,20.4s8,21.6,12.1,26.3c3.2,3.4,6.7,6.3,10.6,8.9c0,0-6.7,18.3-21.1,24.1c0,0-5.7-7.3-18.6-12.6s-26-12-31.6-22.1
		s-7-15.9-3.4-19s10,1.9,14,6.1s20.1,11.1,20.1,11.1S336.6,212.7,331.6,206.7z"></path><path class="st1" d="M358.7,275.5c-0.2,0-0.3-0.1-0.4-0.2c-0.1-0.1-5.8-7.2-18.4-12.4c-11.8-4.8-26-11.7-31.8-22.4
		c-5-9.1-7.5-15.9-3.3-19.6c4.5-4,12.4,3.7,14.7,6.2c3.4,3.6,15.9,9.2,19.1,10.7c-0.5-4.5-3-25.2-7.2-30.6c-7.6-2-15.5-2.3-23.2-1
		c-0.7,0.1-1.4,0.3-2.1,0.5c-2.6,0.7-5.1,1.3-7-0.5c-0.9-0.9-1.2-2.2-0.8-3.4c0.6-2.6,3.8-6.1,10.6-7.9c9.4-2.5,26.4-2.1,30.9,0
		s14.5,12.4,17.8,20.6c0.7,1.7,1.4,3.5,2.1,5.4c3,7.6,6.6,17,9.9,20.7c3.1,3.3,6.6,6.3,10.5,8.8c0.2,0.1,0.3,0.4,0.2,0.6
		c-0.1,0.2-7,18.6-21.4,24.4C358.8,275.5,358.7,275.5,358.7,275.5z M307.8,220.8c-0.9,0-1.7,0.3-2.4,0.9c-3.2,2.8-2.2,7.9,3.5,18.4
		s19.7,17.2,31.3,21.9s17.3,11,18.5,12.4c12.7-5.4,19.4-20.8,20.4-23.4c-3.8-2.5-7.2-5.4-10.3-8.7c-3.4-3.9-7-13-10.1-21
		c-0.7-1.9-1.5-3.8-2.1-5.4c-3.5-8.6-13.3-18.2-17.3-20.1s-20.4-2.6-30.2,0c-6.5,1.7-9.4,5-9.9,7.2c-0.3,0.8-0.1,1.7,0.5,2.4
		c1.6,1.4,3.6,0.9,6.1,0.3c0.7-0.2,1.4-0.4,2.1-0.5c7.9-1.4,16.1-1,23.8,1c0.1,0,0.2,0.1,0.2,0.2c5,6.1,7.6,31.1,7.7,32.1
		c0,0.2-0.1,0.3-0.2,0.4c-0.1,0.1-0.3,0.1-0.5,0.1c-0.7-0.3-16.2-6.9-20.2-11.3C315.3,224.1,311,220.8,307.8,220.8z"></path></g></svg>