<svg transform="scale(1)" id="_0323_notifications" xmlns="http://www.w3.org/2000/svg" xmlns:xlink="http://www.w3.org/1999/xlink" viewBox="0 0 500 500" class="show_show__wrapper__graphic__5Waiy "><title>React</title><defs><style>.cls-1{fill:none;}.cls-1,.cls-2,.cls-3,.cls-4,.cls-5,.cls-6,.cls-7,.cls-8,.cls-9,.cls-10,.cls-11,.cls-12,.cls-13,.cls-14,.cls-15,.cls-16,.cls-17,.cls-18,.cls-19{stroke-width:0px;}.cls-2{fill:url(#linear-gradient);}.cls-3{isolation:isolate;opacity:.18;}.cls-3,.cls-19{fill:#fd6868;}.cls-4{fill:url(#linear-gradient-11);}.cls-5{fill:url(#linear-gradient-10);}.cls-6{fill:url(#linear-gradient-4);}.cls-7{fill:url(#linear-gradient-2);}.cls-8{fill:url(#linear-gradient-3);}.cls-9{fill:url(#linear-gradient-8);}.cls-10{fill:url(#linear-gradient-9);}.cls-11{fill:url(#linear-gradient-7);}.cls-12{fill:url(#linear-gradient-5);}.cls-13{fill:url(#linear-gradient-6);}.cls-14{fill:#f2f2f2;}.cls-15{fill:#525263;}.cls-16{fill:#3d3d54;}.cls-17{fill:#231f20;}.cls-18{fill:#ffaa71;}</style><linearGradient id="linear-gradient" x1="521.73" y1="2948.17" x2="144.92" y2="2554.58" gradientTransform="translate(-87.44 3053.11) scale(1 -1)" gradientUnits="userSpaceOnUse"><stop offset="0" stop-color="#231f20" stop-opacity="0"></stop><stop offset="1" stop-color="#231f20"></stop></linearGradient><linearGradient id="linear-gradient-2" x1="421.27" y1="2800.51" x2="313.11" y2="2687.53" xlink:href="#linear-gradient"></linearGradient><linearGradient id="linear-gradient-3" x1="263.69" y1="2817.03" x2="409.87" y2="2725.48" xlink:href="#linear-gradient"></linearGradient><linearGradient id="linear-gradient-4" x1="371.87" y1="2899.71" x2="421.39" y2="2900.47" xlink:href="#linear-gradient"></linearGradient><linearGradient id="linear-gradient-5" x1="333.07" y1="2767.04" x2="446.87" y2="2767.04" xlink:href="#linear-gradient"></linearGradient><linearGradient id="linear-gradient-6" x1="435.47" y1="2659.26" x2="404.16" y2="2667.3" xlink:href="#linear-gradient"></linearGradient><linearGradient id="linear-gradient-7" x1="421.95" y1="2645.66" x2="454.41" y2="2645.66" xlink:href="#linear-gradient"></linearGradient><linearGradient id="linear-gradient-8" x1="312.67" y1="2951.08" x2="346.14" y2="2923.24" gradientTransform="translate(-31 3058.45) scale(1 -1)" xlink:href="#linear-gradient"></linearGradient><linearGradient id="linear-gradient-9" x1="391.15" y1="2946.98" x2="329.3" y2="2922.49" xlink:href="#linear-gradient"></linearGradient><linearGradient id="linear-gradient-10" x1="286.83" y1="2875.31" x2="363.46" y2="2877.97" xlink:href="#linear-gradient"></linearGradient><linearGradient id="linear-gradient-11" x1="350.86" y1="2749.83" x2="436.8" y2="2785.97" xlink:href="#linear-gradient"></linearGradient></defs><g id="background"><path class="cls-3" d="M462.16,181.08c6.16,24.41,1.22,50.3-13.5,70.72-10.86,14.78-26.34,25.84-35.99,41.4-20.84,33.61-9.65,79.5-28.77,114.12-15.98,28.96-49.08,43.19-79.82,55.4-24.14,9.58-48.51,19.22-74.1,23.09-25.58,3.86-53.1,1.41-75.27-11.9-18.28-10.95-31.71-28.3-44.12-45.63-30.49-42.63-58.06-89.06-67.42-140.64-9.36-51.58,2.32-109.43,40.72-145.11,18.69-17.38,43.18-29.36,56.37-51.21,13.84-22.93,14.03-54.92,35.55-70.9,7.94-5.9,17.81-8.64,27.61-9.94,23.59-3.04,47.53,1.57,68.31,13.14,21.08,11.81,38.39,30.59,61.35,38.15,29.72,9.79,67.87,2.27,87.62,31.23,15.87,23.29,34.39,60.95,41.44,88.08Z"></path></g><g id="ball"><path class="cls-19" d="M335.61,354.01c0,3.69-.18,7.33-.51,10.93-6.06,66.51-64.9,115.51-131.41,109.45-61.77-5.63-109.26-57.08-109.94-119.1v-1.21c-.67-66.79,52.94-121.48,119.73-122.14,66.79-.67,121.48,52.94,122.14,119.73,0,.81,0,1.61,0,2.42v-.07Z"></path><path class="cls-2" d="M335.61,354.01c0,3.69-.18,7.33-.51,10.93-27.83,18.93-68.79,30.88-114.46,30.88-53.1,0-99.75-16.13-126.89-40.6v-1.21c-.67-66.79,52.94-121.48,119.73-122.14,66.79-.67,121.48,52.94,122.14,119.73,0,.81,0,1.61,0,2.42h-.01Z"></path></g><g id="character"><path class="cls-7" d="M270.13,306.73c4.83,1.74,10.08,2.98,14.03,6.28,3.51,2.91,5.65,7.12,7.37,11.33,5.75,14.13,7.83,29.5,6.03,44.65-.48,4.03-1.21,8.18-.16,12.07s4.63,7.53,8.66,7.05c5.59-11.1,5.71-24.06,5.72-36.49,0-9.07,0-18.34-3.04-26.9-2.49-7.05-6.88-13.27-11.42-19.2-16.54-21.72-36.56-41.98-62.05-51.75-1.06-.54-2.27-.69-3.43-.42-5.25,1.92-4.39,11.26-2.35,15.01,2.9,5.18,6.12,10.18,9.65,14.95,7.75,10.72,18.54,18.88,30.97,23.42Z"></path><path class="cls-8" d="M222.4,279.46c.07-1.62.28-3.24.63-4.83.38-1.61,1.62-2.87,3.22-3.27.66-.02,1.32-.08,1.98-.18,1.34-.41,1.91-1.97,2.29-3.31l4.28-14.96c.82-2.9,1.65-5.94,1.03-8.87-.99-4.59-5.2-7.69-9.3-9.93-2.98-1.64-6.34-3.1-9.65-2.49-5.14.95-8.12,6.26-10.04,11.13-2.23,5.21-3.61,10.75-4.07,16.4-.34,6.53-.89,22.52,3.15,28.23,5.6,8.01,15.59-.68,16.48-7.92Z"></path><path class="cls-19" d="M335.69,164.6c-.34.73-.81,1.39-1.39,1.95-4.6,4.86-10.55,8.22-17.09,9.65-2.31.53-4.67.8-7.04.8-1.39-8.95-2.8-17.92-3.89-26.91h0c-.86-7.02-1.5-14.03-1.8-21.08-.21-4.42-9.77-19.82-7.82-23.94,2.16-4.54,17.72,10.99,19.47,13.95,9.71,16.29,13.2,28.89,19.86,42.9.25.9.14,1.86-.31,2.68Z"></path><path class="cls-6" d="M318.79,174.56c-.47.61-.99,1.16-1.57,1.67-2.31.53-4.67.8-7.04.8-1.39-8.95-2.8-17.92-3.89-26.91h0c.41-7.06,1.15-14.1,2.23-21.11-.46,2.93,3.15,9.33,4.13,12.2l4.24,12.51c2.21,6.53,6.93,14.47,1.89,20.84Z"></path><path class="cls-18" d="M313.58,189.88c.97,5.89,2.2,11.85,5.1,17.06,1.5,2.68,3.73,5.31,6.76,5.78,1.68.16,3.38-.09,4.95-.74,3.24-1.12,6.3-2.71,9.07-4.73,2.65-2.03,5.15-4.25,7.47-6.65,3.46-3.26,6.66-6.79,9.57-10.55,1.34-1.81,2.56-3.72,4.02-5.44,6.03-7.18,15.69-10.4,22.53-16.81,1.85-1.71,5.59-9.56,5.31-12.07-2.51-1.45-7.66,4.38-10.44,5.23s-5.37,2.22-8.16,3c-3.34.93-6.86.98-10.22.13-1.13-.29-2.49-18.19-3.62-17.78-.57.24-1.08.6-1.5,1.06-2.34,2.41-3.62,23.01-5.56,25.69-2.67,3.62-6.36,6.37-10.02,9-.33.23-.74.47-1.1.29-.24-.18-.4-.45-.43-.75-.95-3.54-2.03-7.05-3.2-10.51-.82-2.41-1.98-5.07-4.4-5.79-2.16-.64-4.4.58-6.34,1.75-2.49,1.52-5,3.02-7.47,4.55-1.38.84-3.04,1.67-3.69,3.22-.8,1.87-.12,4.45.11,6.37.36,2.91.78,5.79,1.25,8.66Z"></path><path class="cls-15" d="M287.49,260.57c10.95,3.7,22.61,5.26,33.16,9.98.69.21,1.26.69,1.57,1.34.09.52.02,1.06-.19,1.54-8.91,26.49-13.93,54.13-14.92,82.06,6.31,1.14,12.76,1.28,19.12.42.71-.04,1.41-.26,2.02-.64.59-.51,1.03-1.17,1.28-1.91,10.21-22.92,19.37-46.27,27.49-70.05,1.44-4.21,2.86-8.62,2.28-13.03-.83-6.43-5.67-11.5-10.27-16.07l-35.83-35.74c-.91-1.03-2.03-1.85-3.28-2.41-1.44-.43-2.96-.5-4.44-.22-14.13,1.75-33.43,2.29-59.4,1.21-3.37-.14,13.27,19.03,14.66,22.71,1.11,2.92,4.62,6.69,6.77,8.95,5.38,5.65,12.65,9.38,19.98,11.86Z"></path><path class="cls-12" d="M287.49,260.57c10.95,3.7,22.61,5.26,33.16,9.98.69.21,1.26.69,1.57,1.34.09.52.02,1.06-.19,1.54-8.91,26.49-13.93,54.13-14.92,82.06,6.31,1.14,12.76,1.28,19.12.42.71-.04,1.41-.26,2.02-.64.59-.51,1.03-1.17,1.28-1.91,10.21-22.92,19.37-46.27,27.49-70.05,1.44-4.21,2.86-8.62,2.28-13.03-.83-6.43-5.67-11.5-10.27-16.07l-35.83-35.74c-.91-1.03-2.03-1.85-3.28-2.41-1.44-.43-2.96-.5-4.44-.22-14.13,1.75-33.43,2.29-59.4,1.21-3.37-.14,13.27,19.03,14.66,22.71,1.11,2.92,4.62,6.69,6.77,8.95,5.38,5.65,12.65,9.38,19.98,11.86Z"></path><path class="cls-17" d="M305.28,371.34c-.88,1.37-1.47,2.9-1.75,4.5-.64,2.81-1.12,5.65-1.42,8.51-.24,2.22-.33,4.63.94,6.46s3.35,2.49,5.31,3.25c4.92,2.03,9.7,4.38,14.31,7.04,3.11,1.71,6.36,3.49,9.91,3.62,3.55.13,7.47-1.81,8.28-5.26.28-1.66.14-3.37-.41-4.96-1.94-6.92-5.74-13.18-10.98-18.1-.92-.9-1.94-1.68-3.05-2.33-1.06-.55-2.17-1-3.32-1.35-3.22-1.18-6.53-2.13-9.88-2.84-2.93-.47-5.9-1.34-7.93,1.47Z"></path><path class="cls-13" d="M305.28,371.34c-.88,1.37-1.47,2.9-1.75,4.5-.64,2.81-1.12,5.65-1.42,8.51-.24,2.22-.33,4.63.94,6.46s3.35,2.49,5.31,3.25c4.92,2.03,9.7,4.38,14.31,7.04,3.11,1.71,6.36,3.49,9.91,3.62,3.55.13,7.47-1.81,8.28-5.26.28-1.66.14-3.37-.41-4.96-1.94-6.92-5.74-13.18-10.98-18.1-.92-.9-1.94-1.68-3.05-2.33-1.06-.55-2.17-1-3.32-1.35-3.22-1.18-6.53-2.13-9.88-2.84-2.93-.47-5.9-1.34-7.93,1.47Z"></path><path class="cls-18" d="M308.87,356.4c-.91,4.77-1.39,9.62-1.42,14.48,0,2.14.14,4.5,1.68,6.03,1.45,1.15,3.3,1.68,5.14,1.47,2.22-.08,4.41-.53,6.48-1.34.46-.14.87-.4,1.21-.75.24-.34.41-.73.49-1.15,1.84-6.91,2.82-14.02,2.91-21.17.12-1.12-.11-2.25-.66-3.23-1.15-1.6-3.52-1.53-5.45-1.15-2.47.53-4.89,1.27-7.24,2.21-2.22.77-2.68,2.29-3.13,4.59Z"></path><path class="cls-18" d="M332.66,379.09c.87,2.14,1.58,4.35,2.12,6.6.37,1.75.59,3.62,1.71,5.02,1.42,1.75,3.9,2.2,6.15,2.23,1.86.11,3.72-.21,5.44-.92.9-.35,1.65-1,2.12-1.83.34-.83.45-1.72.34-2.61-.18-6.13-1.71-12.15-4.48-17.62-1.59-2.83-3.38-5.54-5.36-8.11-.62-1.16-1.68-2.02-2.93-2.41-1.3-.05-2.57.44-3.51,1.34-1.99,1.5-6.37,3.99-5.91,6.83.58,3.78,2.94,7.89,4.3,11.48Z"></path><path class="cls-17" d="M347.29,383.54c-1.37.76-2.69,1.6-3.97,2.5-1.99,1.1-4.33,1.32-6.52,1.94-.58.11-1.11.39-1.52.81-.3.41-.49.89-.54,1.39-.41,3.29-.28,6.63.4,9.88,1.11,7.03,2.41,14.03,3.89,21.01.62,2.87,1.35,5.9,3.44,7.96s5.26,2.78,8.23,2.86c2.78.16,5.55-.36,8.09-1.51,4.08-2.18,6.94-6.11,7.77-10.67.79-4.52.23-9.17-1.59-13.38-1.24-2.88-2.68-5.67-4.32-8.34-2.17-3.73-4.34-7.47-6.49-11.2-1.64-2.85-3.14-4.84-6.85-3.26Z"></path><path class="cls-11" d="M347.29,383.54c-1.37.76-2.69,1.6-3.97,2.5-1.99,1.1-4.33,1.32-6.52,1.94-.58.11-1.11.39-1.52.81-.3.41-.49.89-.54,1.39-.41,3.29-.28,6.63.4,9.88,1.11,7.03,2.41,14.03,3.89,21.01.62,2.87,1.35,5.9,3.44,7.96s5.26,2.78,8.23,2.86c2.78.16,5.55-.36,8.09-1.51,4.08-2.18,6.94-6.11,7.77-10.67.79-4.52.23-9.17-1.59-13.38-1.24-2.88-2.68-5.67-4.32-8.34-2.17-3.73-4.34-7.47-6.49-11.2-1.64-2.85-3.14-4.84-6.85-3.26Z"></path><path class="cls-18" d="M201.08,162.65c-1.06,2.66-1.76,5.44-2.1,8.28-1.15,7.35-1.88,14.76-2.2,22.19-.6,14.19.31,28.41-.08,42.6-.41,14.76-2.15,30.06,3.16,43.83.83,2.5,2.22,4.77,4.08,6.64,1.91,1.87,4.65,2.62,7.24,1.98,2.34-.9,4.12-2.84,4.83-5.25.67-2.38.96-4.85.87-7.31l.19-13.49c0-.28,0-.6.28-.72.24-.08.5-.03.69.13,1.04.9,2.03,1.85,2.96,2.86,1.07.87,2.79,1.29,3.74.29.53-.71.74-1.61.57-2.49-.58-5.84-5.67-10.05-8.7-15.08-4.37-7.24-4.37-16.36-3.27-24.79,1.36-10.55,4.21-20.84,7.05-31.1l2.41-8.68c1.82-6.59,3.62-13.78.97-20.09-2.16-4.92-6.54-8.5-11.79-9.65-5.04-.93-9.06,5.76-10.88,9.86Z"></path><path class="cls-19" d="M313.11,217.52c-1.56,4.19-10.34-.7-15.36,1.81-9.58,4.83-20.51-.13-31.19,0-11.37.21-19.21,11.4-30.49,12.83-.82.17-1.67.17-2.49,0-1.56-.46-2.47-2.02-3.14-3.48-.97-2.25-1.67-4.61-2.08-7.04-1.4-8.01,0-16.61,1.5-24.75,1.26-6.9,2.51-13.81,3.75-20.72,1.45-8.05,2.91-16.14,4.38-24.28.86-5.37,2.07-10.68,3.62-15.89.29-.91.59-1.79.92-2.65,2.81-7.08,6.19-13.91,10.12-20.43,2.41-4.19,4.83-8.45,8.56-11.62,4.16-3.51,9.53-5.26,14.93-6.11,4.85-.91,9.85-.62,14.57.84,2.69.94,3.7,3.79,5.84,5.54,2.71,2.01,5.12,4.38,7.18,7.05,2.09,3.22,3.58,6.8,4.4,10.55,7.57,29.42-3.38,61.16,3.81,90.66.82,3.46,2.41,4.38,1.17,7.69Z"></path><polygon class="cls-9" points="302.83 114.18 303.77 120.34 300.15 118.33 300.15 134.67 296.03 116.52 300.02 110.7 302.83 114.18"></polygon><path class="cls-10" d="M272.18,113.78l2.28,1.21,3.62,3.15-9.65,25.9s14.02-21.58,14.48-32.58c.28-6.77-.56-13.54-2.5-20.03l-8.23,22.36Z"></path><path class="cls-5" d="M241.26,188.01c-.77,5.93-.77,11.93,0,17.86.49,3.73,1.29,7.45,1.04,11.19.01.73-.22,1.44-.66,2.03-.57.46-1.26.73-1.99.78-3.77.6-7.55,1.2-11.33,1.82-1.4-8.01,0-16.61,1.5-24.75,1.26-6.9,2.51-13.81,3.75-20.72,1.45-8.05,2.91-16.14,4.38-24.28.86-5.37,2.07-10.68,3.62-15.89.29-.91.59-1.79.92-2.65,3.74-2.08,8.94-3.62,11.26-.27,2.41,3.62-.76,12.07-1.7,15.69-3.43,13.12-9.05,25.66-10.78,39.2Z"></path><path class="cls-18" d="M328.07,83.38c.13,1.5.08,3.01-.13,4.5-.25,1.53-1.53,2.68-3.08,2.78-3.77-.28-6.48,3.33-9.47,5.65-4.79,3.59-11.18,4.2-16.56,1.58-1.09-.39-2.29.14-2.74,1.21-.38,1.06-.46,2.21-.24,3.32l1.39,13.2c.27,2.55.29,5.66-1.87,7.04-2.16,1.38-4.72.18-6.5-1.38-2.81-2.7-4.84-6.11-5.88-9.86-4.8-15.47-1.08-32.33,9.79-44.35,2.01-2.24,4.36-4.15,6.96-5.65,2.73-1.42,5.66-2.41,8.69-2.93,2.71-.64,5.51-.8,8.28-.46,3.71.68,7.09,2.58,9.58,5.42,1.83,2,3.62,7.98,5.55,8.95-1.44,3.64-3.7,6.87-3.77,10.98Z"></path><path class="cls-17" d="M299.34,31.56c-1.77-.41-3.62-.36-5.36.16-3.4,1.21-5.31,4.77-6.54,8.16-1.23,3.39-2.24,7.1-4.92,9.5-2.3,2.08-5.58,2.91-7.65,5.2-2.41,2.67-2.64,6.61-2.41,10.2,0,2.69.76,5.32,2.18,7.6,1.28,1.74,3.25,2.94,4.25,4.83,1.13,2.16,1.52,5.5,3.96,5.65,1.02-.05,1.98-.48,2.69-1.21,2.46-2.13,4.32-4.87,5.38-7.95.59-1.71.98-3.62,2.28-4.83,1.3-1.21,3.96-1.28,4.55.43.17,1.09,0,2.21-.48,3.2-.31,1.06-.18,2.5.86,2.86,1.95-3.02,3.05-6.56,5.37-9.3,4.76-5.58,13.14-6.24,18.71-1.48.85.73,1.61,1.56,2.25,2.47,1.21,1.73,2.03,3.78,3.72,5.01,1.59.97,3.41,1.5,5.27,1.54,4.15.41,8.54.57,12.28-1.28s6.5-6.32,5.07-10.25c-1.13-3.08-4.37-4.83-7.51-5.82s-6.49-1.48-9.26-3.25c-3.75-2.41-5.76-6.71-7.94-10.61-2.18-3.9-5.14-7.9-9.51-8.82-1.78-.28-3.6-.28-5.38,0-1.74.37-3.52.51-5.3.41-2.17-.45-4.27-1.92-6.56-2.43Z"></path><path class="cls-14" d="M299.34,130.72c2.76,13.96,3.57,28.23,2.41,42.42-.95,11.8-3.22,23.52-3.14,35.36.18,3.33.08,6.67-.3,9.98-.53,3.28-22.54,2.03-25.75,1.99-5.41-.07,1.45,7.24-2.62,3.72-6.38-5.56-9.23-14.24-10.02-22.66-1.12-12.01,1.34-24.03,4.02-35.79,1.86-8.15,3.84-16.32,7.17-23.98,4.13-9.47,10.66-21.53,12.76-31.65.3-1.48-4.83-6.88-2.62-6.81,1.44,0,.76,2.23,1.01,3.34.45,1.69,1.32,3.24,2.52,4.51,1.68,1.97,3.96,3.33,6.49,3.87,1.63.3,3.49.23,4.67,1.39,1.44,1.4,1.21,4.13,1.62,6.03.59,2.73,1.22,5.49,1.77,8.28Z"></path><path class="cls-19" d="M250.48,94.82c-5.84,2.68-10.86,6.83-15.6,11.17-3.93,3.54-7.63,7.31-11.1,11.3-3.07,3.62-5.86,7.37-9.1,10.79-4.47,4.69-10.04,9.23-10.92,15.69-.27,3.37.32,6.75,1.71,9.82,1.15,3.14,2.84,6.05,5.01,8.6,2.75,3.04,6.37,5.15,10.37,6.03,1.25.33,2.56.38,3.84.17,1.8-.51,3.45-1.44,4.83-2.7,3.15-2.38,6.13-4.97,8.92-7.76,2.85-2.96,5.26-6.32,8.04-9.35,2.41-2.61,4.98-4.96,7.4-7.52,2.88-3.07,5.45-6.41,8.02-9.75,3.64-4.53,6.97-9.3,9.98-14.28,2.51-4.39,4.51-9.05,5.95-13.9.93-3.16,2.41-7.17-.8-9.45-6.82-4.8-19.74-2.04-26.54,1.13Z"></path><path class="cls-19" d="M250.48,94.82c-5.84,2.68-10.86,6.83-15.6,11.17-3.93,3.54-7.63,7.31-11.1,11.3-3.07,3.62-5.86,7.37-9.1,10.79-4.47,4.69-10.04,9.23-10.92,15.69-.27,3.37.32,6.75,1.71,9.82,1.15,3.14,2.84,6.05,5.01,8.6,2.75,3.04,6.37,5.15,10.37,6.03,1.25.33,2.56.38,3.84.17,1.8-.51,3.45-1.44,4.83-2.7,3.15-2.38,6.13-4.97,8.92-7.76,2.85-2.96,5.26-6.32,8.04-9.35,2.41-2.61,4.98-4.96,7.4-7.52,2.88-3.07,5.45-6.41,8.02-9.75,3.64-4.53,6.97-9.3,9.98-14.28,2.51-4.39,4.51-9.05,5.95-13.9.93-3.16,2.41-7.17-.8-9.45-6.82-4.8-19.74-2.04-26.54,1.13Z"></path><path class="cls-16" d="M351.65,149.92c-2.71,1.71-3.57,5.27-1.94,8.04,2.03,3.52,4.74,6.6,7.99,9.05,1.93,2.08,6.28,2.41,10.14.14s22.29-12.3,31.5-18.85c2.75-1.89,3.44-5.64,1.55-8.39-.06-.09-.12-.18-.19-.26l-7.71-9.65c-1.89-2.37-5.26-2.93-7.82-1.3l-33.51,21.23Z"></path><path class="cls-1" d="M230.84,232.39l-.28-.28"></path><path class="cls-15" d="M229.17,253.93c1.36,5,3.78,9.65,7.08,13.64,3.62,4.22,8.54,7.24,13.27,10.11l19.92,12.13c2.92,1.68,5.72,3.57,8.36,5.66,6.53,5.38,10.86,12.89,15.07,20.23l29.06,50.65c1.47,2.59,3.54,5.53,6.52,5.43,1.6-.21,3.11-.88,4.34-1.93,3.73-2.62,7.74-5.6,8.85-10.03.77-3.09,0-6.34-.93-9.4-4.47-15.1-11.46-29.31-18.49-43.44-11.16-22.37-22.48-44.69-33.97-66.96-3.05-5.91-6.76-15.12-11.8-19.47,0,0-46.87-2.85-48.05,1.8-2.63,10.4-2.37,21.33.76,31.59Z"></path><path class="cls-4" d="M229.17,253.93c1.36,5,3.78,9.65,7.08,13.64,3.62,4.22,8.54,7.24,13.27,10.11l19.92,12.13c2.92,1.68,5.72,3.57,8.36,5.66,6.53,5.38,10.86,12.89,15.07,20.23l29.06,50.65c1.47,2.59,3.54,5.53,6.52,5.43,1.6-.21,3.11-.88,4.34-1.93,3.73-2.62,7.74-5.6,8.85-10.03.77-3.09,0-6.34-.93-9.4-4.47-15.1-11.46-29.31-18.49-43.44-11.16-22.37-22.48-44.69-33.97-66.96-3.05-5.91-6.76-15.12-11.8-19.47,0,0-46.87-2.85-48.05,1.8-2.63,10.4-2.37,21.33.76,31.59Z"></path><polygon class="cls-19" points="281.88 88.21 275.26 90.83 271.24 113.31 284.6 112.71 281.88 88.21"></polygon><path class="cls-19" d="M295.91,112.16v3.04c0,.44.02.88.07,1.32.07.44.17.88.29,1.32l1.67,6.56.69-10.67c1.97.95,3.98,1.82,6.03,2.58-.15-1.6-.56-3.16-1.21-4.63-1.21-3.09-2.32-6.19-3.62-9.22-.3-.81-.75-1.56-1.3-2.22-.57-.66-1.42-1.02-2.29-.97-1.21.51-.45,5.03-.43,6.03l.11,6.85Z"></path><path class="cls-19" d="M393.53,144.64l-24.52,15.51c-.89.48-1.98.28-2.64-.48l-7.8-8.79c-.58-.55-.62-1.46-.07-2.05.08-.08.17-.16.26-.22l24.57-15.49c.89-.48,1.98-.28,2.64.48l7.8,8.77c.57.56.59,1.47.03,2.05-.08.08-.17.16-.27.22Z"></path></g></svg>