<svg transform="scale(1)" id="_0927_Error_2" xmlns="http://www.w3.org/2000/svg" viewBox="0 0 500 500" class="show_show__wrapper__graphic__5Waiy "><title>React</title><g id="character"><path d="M472.5,387.02H44.4c-.28,0-.5-.22-.5-.5s.22-.5.5-.5h428.1c.28,0,.5.22.5.5s-.22.5-.5.5Z" fill="#732a09" stroke-width="0"></path><path d="M412.28,268.03c11.4,12.78,10.02,33.85,10.02,55.62v62.87h-38.35l9.33-121.77,19,3.28Z" fill="#f75454" stroke-width="0"></path><path d="M422.3,387.02h-38.35c-.14,0-.27-.06-.37-.16s-.14-.24-.13-.38l9.33-121.77c.01-.14.08-.27.19-.36.11-.09.25-.12.39-.1l19,3.28c.11.02.21.08.29.16,10.41,11.67,10.29,30.08,10.17,49.57-.01,2.12-.03,4.25-.03,6.38v62.87c0,.28-.22.5-.5.5ZM384.49,386.02h37.31v-62.37c0-2.14.01-4.27.03-6.39.12-19.22.23-37.38-9.8-48.77l-18.29-3.15-9.25,120.68Z" fill="#732a09" stroke-width="0"></path><path d="M453.05,224.85c0,24.22-56.97,61.34-56.97,61.34-.49,43.47,3.76,100.33,3.76,100.33h-155.29s5.65-16.95,11.2-41.1c5.55-24.16,12.41-53.57,17.61-74.58-13.21-17.13-59.05-73.88-41.21-89.7,17.84-15.82,88.89-38.16,88.89-38.16l14.36,24.08-63.1,26.92s14.88,21.1,28.4,28.76c.15.08.29.17.45.25.16.09.31.18.47.25,1.66.88,3.29,1.52,4.85,1.9h.01c4.09,1.28,9.22,2.27,14.9,3.03,13.93,1.85,31.09,2.23,43.88,1.72h.01c6.83-.26,12.41-.78,15.59-1.47t.02-.01c16.32-2.23,29.27-9.15,29.27-9.15l-45.95-47.74,6.27-27.19s79.83,54.77,82.5,78.9c.06.53.08,1.07.08,1.62Z" fill="#fff" stroke-width="0"></path><path d="M399.84,387.02h-155.29c-.16,0-.31-.08-.41-.21-.09-.13-.12-.3-.07-.45.06-.17,5.71-17.2,11.19-41.05,5.01-21.82,12.12-52.4,17.56-74.35-.69-.89-1.46-1.89-2.31-2.98-16.73-21.53-55.91-71.95-38.69-87.21,7.45-6.6,24.7-15.05,51.29-25.1,19.78-7.48,37.6-13.1,37.78-13.16.22-.07.46.02.58.22l14.36,24.08c.07.12.09.27.05.41-.04.14-.15.25-.28.3l-62.53,26.67c2.36,3.24,15.76,21.25,27.88,28.12.19.11.31.18.44.24.16.1.3.17.45.24,1.67.88,3.25,1.5,4.73,1.86.03,0,.05,0,.07.02,3.83,1.2,8.81,2.21,14.82,3.01,14.82,1.97,32.34,2.18,43.8,1.72,6.83-.26,12.31-.77,15.46-1.45.04-.01.07-.02.11-.03,14.09-1.93,25.79-7.44,28.5-8.79l-45.48-47.26c-.12-.12-.17-.29-.13-.46l6.27-27.19c.04-.16.15-.29.31-.35.15-.06.33-.04.46.05,3.27,2.24,80.04,55.17,82.71,79.26.06.49.09,1.04.09,1.67,0,10.2-9.64,23.7-28.66,40.13-13.14,11.35-26.44,20.24-28.31,21.48-.46,42.92,3.72,99.46,3.76,100.02,0,.14-.04.28-.13.38-.09.1-.23.16-.37.16ZM245.24,386.02h154.07c-.43-5.92-4.18-59.09-3.72-99.84,0-.17.09-.32.23-.41.57-.37,56.74-37.25,56.74-60.92,0-.59-.03-1.1-.08-1.56-1.08-9.74-15.62-26.39-42.07-48.17-18.09-14.89-36.12-27.53-39.61-29.96l-6.04,26.21,45.76,47.55c.11.11.16.27.13.42s-.12.29-.26.36c-.13.07-13.18,6.97-29.38,9.2-.01,0-.03,0-.04.01h0c-3.2.69-8.76,1.22-15.67,1.48-11.51.46-29.1.25-43.98-1.73-6.04-.8-11.06-1.82-14.94-3.03,0,0-.01,0-.02,0-1.57-.38-3.24-1.03-4.97-1.94-.15-.07-.32-.16-.49-.26-.11-.06-.24-.13-.37-.2-13.54-7.68-28.48-28.74-28.63-28.95-.09-.12-.11-.28-.07-.42.04-.15.15-.26.29-.32l62.58-26.69-13.86-23.25c-5.61,1.79-71.44,22.96-88.33,37.93-16.51,14.64,23.69,66.37,38.82,85.85.91,1.17,1.73,2.23,2.46,3.17.09.12.13.28.09.43-5.44,21.96-12.58,52.68-17.61,74.57-4.89,21.27-9.91,37.13-11,40.49Z" fill="#732a09" stroke-width="0"></path><path d="M365.26,229.9l-16.18,7.61-1.84.86-13.95,6.56c-2.7,1.27-5.92-.06-6.93-2.87l-4.99-13.88c2.29.3,4.66.56,7.1.79l1.82-10.96,22.59-15.02c.04,11.83-.62,21.11-1.23,27.1,4.83.05,9.45-.02,13.62-.19Z" fill="#fff" stroke-width="0"></path><path d="M331.14,245.9c-.72,0-1.45-.14-2.13-.42-1.45-.6-2.58-1.79-3.11-3.26l-4.99-13.88c-.06-.16-.03-.35.08-.48.11-.14.29-.21.46-.18,2.04.27,4.21.52,6.61.75l1.74-10.5c.02-.14.1-.26.22-.33l22.59-15.02c.15-.1.35-.11.51-.03.16.09.26.26.26.44.04,11.71-.61,20.85-1.18,26.6,4.47.04,8.86-.03,13.04-.19.24,0,.45.15.51.38s-.06.47-.27.57l-31.97,15.02c-.75.35-1.56.53-2.37.53ZM322.12,228.78l4.71,13.11c.43,1.21,1.37,2.18,2.55,2.67,1.18.49,2.53.46,3.69-.09l29.76-13.99c-3.63.11-7.39.14-11.2.1-.14,0-.27-.06-.37-.17s-.14-.24-.12-.38c.57-5.54,1.24-14.52,1.23-26.11l-21.63,14.39-1.78,10.74c-.04.26-.28.43-.54.42-2.28-.22-4.35-.44-6.3-.69Z" fill="#732a09" stroke-width="0"></path><path d="M376.92,197.55c-5.06,3.1-11.18.58-11.18.58-14.26,27.84-43.2,30.06-56.08,16.74-9.54-9.88-7.73-29.72-5.24-42.56,0,0-.52-1.62-.75-4.45-.33-3.94-.09-10.25,2.96-17.81.48-1.21,1.13-2.46,1.92-3.74,3.37-5.45,8.82-9.31,15-10.98,1.88-.51,3.81-.86,5.74-1.03,21.91-1.86,28.87,3.94,28.87,3.94,0,0,25.96,5.93,18.72,43.06,4.02,3.7,3.9,13.88.03,16.26Z" fill="#fff" stroke-width="0"></path><path d="M329.71,223.27c-8,0-15.38-2.86-20.41-8.06-5.2-5.38-10.36-17.2-5.39-42.89-.13-.44-.54-2-.74-4.44-.34-4-.09-10.38,2.99-18.04.5-1.24,1.16-2.52,1.96-3.82,3.39-5.48,8.82-9.46,15.3-11.2,1.95-.53,3.91-.88,5.83-1.04,20.79-1.76,28.21,3.27,29.14,3.98,1.89.5,25.87,7.67,19.04,43.34,2.43,2.43,3.19,6.91,2.85,10.34-.3,3.11-1.43,5.48-3.11,6.51h0c-4.49,2.76-9.68,1.3-11.2.78-7.01,13.44-18.37,22.23-31.21,24.14-1.7.25-3.4.38-5.06.38ZM337.47,134.42c-2.44,0-5.15.11-8.13.36-1.86.16-3.76.5-5.66,1.01-6.23,1.68-11.45,5.5-14.71,10.76-.77,1.24-1.4,2.48-1.88,3.66-3.01,7.48-3.25,13.69-2.92,17.58.22,2.73.73,4.33.73,4.34.03.08.03.17.01.25-2.22,11.46-4.52,32.16,5.1,42.12,5.84,6.05,15.04,8.81,24.6,7.39,12.65-1.88,23.83-10.63,30.67-24,.12-.23.39-.33.64-.24.06.03,5.95,2.39,10.73-.54h0c1.38-.85,2.37-3,2.63-5.75.32-3.28-.41-7.56-2.74-9.71-.13-.12-.19-.29-.15-.46,7.06-36.23-18.09-42.42-18.34-42.48-.08-.02-.15-.05-.21-.1-.06-.05-5.3-4.19-20.39-4.19ZM376.92,197.54h0,0Z" fill="#732a09" stroke-width="0"></path><path d="M335.88,180.56c3.65-3.16,10.95-4.76,13.05.92.11.25-.01.55-.27.65-.24.1-.49,0-.62-.2-2.72-4.15-7.98-2.25-11.63-.53-.51.26-.99-.49-.53-.84h0Z" fill="#732a09" stroke-width="0"></path><path d="M308.69,175.28c3.14-2.62,8.12-2.23,10.83.8.32.53,1.57,1.41.9,1.99-.18.13-.41.12-.58,0-.44-.31-.81-.67-1.23-.98-2.64-2.15-6.31-2.46-9.35-.99-.53.31-1.05-.44-.57-.82h0Z" fill="#732a09" stroke-width="0"></path><path d="M317.49,198.29c-1.72,0-3.62-.95-3.91-3.65-.13-1.16.17-2.14.89-2.9,1.42-1.5,4.08-1.7,5.16-1.72.14-1.46.53-6.36.03-12.29-.02-.28.18-.52.46-.54.27-.03.52.18.54.46.6,7.17-.07,12.88-.08,12.94-.03.26-.24.47-.52.44-.03,0-3.41-.14-4.86,1.4-.51.55-.72,1.24-.63,2.11.19,1.77,1.3,2.81,3.02,2.75,1.91-.05,4.05-1.49,4.17-3.73.01-.28.27-.5.53-.47.28.01.49.25.47.53-.15,2.81-2.79,4.61-5.14,4.68-.04,0-.08,0-.13,0Z" fill="#732a09" stroke-width="0"></path><path d="M342.87,187.66c-.38,2.1-1.86,3.58-3.3,3.32-1.46-.26-2.32-2.16-1.94-4.26.11-.62.34-1.21.63-1.7l2.25,1.79-.63-3.28c.35-.14.69-.18,1.05-.12,1.44.26,2.32,2.16,1.95,4.24Z" fill="#732a09" stroke-width="0"></path><path d="M314.04,184.86c-.38,2.1-1.86,3.58-3.3,3.32s-2.32-2.16-1.94-4.26c.11-.62.34-1.21.63-1.7l2.25,1.79-.63-3.28c.35-.14.69-.18,1.05-.12,1.44.26,2.32,2.16,1.95,4.24Z" fill="#732a09" stroke-width="0"></path><path d="M326.64,208.31c-1.22,0-2.49-.65-3.65-1.87-.19-.2-.18-.52.02-.71s.52-.18.71.02c1.1,1.17,2.29,1.71,3.33,1.52.9-.16,1.68-.88,2.13-1.96.11-.25.4-.37.65-.27.25.11.38.4.27.65-.59,1.4-1.63,2.33-2.88,2.55-.2.04-.4.05-.6.05Z" fill="#732a09" stroke-width="0"></path><path d="M375.97,193.36s-.09,0-.13-.02c-.27-.07-.42-.35-.35-.62.67-2.37.91-6.7-2.4-7.89-.26-.09-.4-.38-.3-.64s.38-.39.64-.3c4,1.44,3.79,6.4,3.03,9.1-.06.22-.26.37-.48.37Z" fill="#732a09" stroke-width="0"></path><path d="M376.89,181.29c-4.7-3.65-10.55.43-11.79,4.32-1.24,3.9-3.07,6.02-6.94,4.78,0,0-4.01-12.46-2.21-16.71,1.8-4.25,3.74-12.56,1.44-14.51,0,0-12.96-10.63-30.69-7.97-17.73,2.66-22.94,10.08-22.94,10.08l-.21,3.49s-5.51-4.75-1.13-17.31c4.39-12.56,19.31-21,36.38-19.74,23.59,1.74,25.14,10.5,25.14,10.5,0,0,13.77-1.37,15.91,14.62,2.15,15.98-2.97,28.45-2.97,28.45Z" fill="#fff" stroke-width="0"></path><path d="M360.2,191.25c-.67,0-1.39-.13-2.18-.38-.15-.05-.27-.17-.32-.32-.17-.52-4.04-12.69-2.19-17.06,1.94-4.58,3.52-12.29,1.57-13.93-.12-.1-13-10.45-30.29-7.86-16.12,2.42-21.8,8.86-22.53,9.77l-.2,3.33c-.01.19-.13.36-.3.43-.18.07-.38.04-.52-.08-.24-.2-5.72-5.12-1.27-17.85,4.57-13.08,19.75-21.33,36.89-20.07,21.01,1.55,24.83,8.63,25.47,10.48,2.38-.07,14.06.39,16.04,15.07,2.14,15.93-2.95,28.58-3,28.7-.06.14-.18.25-.33.29-.15.04-.31,0-.44-.09-2.1-1.63-4.23-1.45-5.65-1.01-2.4.75-4.66,2.89-5.36,5.09-.85,2.68-1.92,4.27-3.35,5.01-.62.32-1.29.48-2.04.48ZM358.57,189.99c1.29.37,2.34.34,3.21-.11,1.18-.61,2.09-2.01,2.85-4.42.81-2.53,3.28-4.89,6.01-5.75,1.52-.47,3.75-.69,6.01.79.96-2.65,4.56-13.88,2.72-27.6-.87-6.45-3.72-10.79-8.47-12.91-3.55-1.58-6.87-1.28-6.9-1.27-.29.02-.5-.15-.54-.41-.02-.08-1.88-8.4-24.68-10.09-16.42-1.21-31.52,6.95-35.87,19.4-3.18,9.12-1.04,13.99.23,15.85l.13-2.23c0-.09.04-.18.09-.26.22-.31,5.54-7.63,23.28-10.28,17.75-2.66,30.95,7.97,31.08,8.08,2.65,2.24.46,10.94-1.29,15.09-1.57,3.71,1.6,14.35,2.14,16.12Z" fill="#732a09" stroke-width="0"></path><path d="M343.68,255.97c-.15,0-.3-.01-.44-.03-6.44-.96-12.14-9.89-12.38-10.27-.15-.23-.08-.54.16-.69.23-.15.54-.08.69.16.06.09,5.69,8.92,11.68,9.82,4.92.73,17.85-15.89,22.42-22.36.16-.23.48-.28.7-.12.23.16.28.47.12.7-.04.06-4.22,5.96-9.12,11.67-6.34,7.39-10.98,11.13-13.82,11.13Z" fill="#732a09" stroke-width="0"></path><path d="M314.98,248.06c-.67,0-1.27-.13-1.81-.42-1-.54-1.69-1.63-2.13-3.33-1.72-6.76-1.02-15.04-.98-15.38.02-.28.28-.47.54-.45.28.02.48.27.45.54,0,.08-.72,8.46.96,15.05.36,1.42.9,2.3,1.64,2.7,1.35.73,3.58-.02,6.41-.98,2.22-.75,4.73-1.6,7.7-2.1.27-.05.53.14.58.41s-.14.53-.41.58c-2.89.49-5.36,1.32-7.54,2.06-2.18.74-3.94,1.33-5.39,1.33Z" fill="#732a09" stroke-width="0"></path><path d="M320.41,251.44c-18.22,22.74-30.37,84.87-28.98,103.61l9.27,27.42,25.87-22.56,4.72-106.55-10.88-1.92Z" fill="#f75454" stroke-width="0"></path><path d="M300.7,382.97s-.09,0-.13-.02c-.16-.04-.29-.16-.34-.32l-9.27-27.42s-.02-.08-.03-.12c-1.47-19.86,11.34-81.81,29.09-103.96.12-.14.3-.21.48-.18l10.88,1.92c.25.04.42.26.41.51l-4.72,106.55c0,.14-.07.26-.17.35l-25.87,22.56c-.09.08-.21.12-.33.12ZM291.92,354.95l9.01,26.65,25.14-21.93,4.69-105.9-10.16-1.79c-17.5,22.16-30.12,83.24-28.69,102.97Z" fill="#732a09" stroke-width="0"></path><path d="M335.4,250.54c.1,5.53-3.51,9.6-10.56,7.41s-7.99-5.73-7.52-7.41c.47-1.68,1.79-3.92,1.79-3.92l7.94-2.3,4.54,1.53,3.82,4.69Z" fill="#f75454" stroke-width="0"></path><path d="M328.46,259.06c-1.08,0-2.33-.18-3.77-.63-7.34-2.28-8.39-6.12-7.86-8.02.48-1.72,1.78-3.95,1.84-4.04.06-.11.17-.19.29-.23l7.94-2.3c.1-.03.2-.03.3,0l4.54,1.53c.09.03.17.08.23.16l3.82,4.69c.07.09.11.19.11.31.06,3.13-1,5.67-2.97,7.15-.94.7-2.38,1.38-4.46,1.38ZM319.44,247.05c-.31.55-1.26,2.3-1.64,3.63-.44,1.56.59,4.74,7.19,6.8,3.03.94,5.56.74,7.33-.59,1.67-1.26,2.59-3.44,2.58-6.16l-3.61-4.45-4.25-1.43-7.59,2.2Z" fill="#732a09" stroke-width="0"></path><path d="M396.08,286.69c-.13,0-.26-.05-.36-.15-9.52-9.71-18.81-26.67-16.35-45.17.04-.28.31-.47.56-.43.27.04.47.29.43.56-2.41,18.14,6.72,34.8,16.08,44.34.19.2.19.51,0,.71-.1.09-.22.14-.35.14Z" fill="#732a09" stroke-width="0"></path><path d="M273.36,271.34c-.13,0-.26-.05-.35-.15-.2-.2-.2-.51,0-.71,17.04-17.04,22.33-32.24,22.38-32.39.09-.26.37-.4.63-.31.26.09.4.37.31.63-.05.15-5.42,15.57-22.62,32.77-.1.1-.23.15-.35.15Z" fill="#732a09" stroke-width="0"></path></g><g id="keyboard"><polygon points="357.36 386.14 178.28 386.14 154.54 393.27 317.86 394.95 357.36 386.14" fill="#fff" stroke-width="0"></polygon><path d="M317.86,395.45h0l-163.31-1.68c-.25,0-.46-.19-.49-.43-.03-.25.11-.48.35-.55l23.74-7.12s.09-.02.14-.02h179.07c.25,0,.47.19.5.45.03.25-.14.49-.39.54l-39.5,8.8s-.07.01-.11.01ZM157.84,392.8l159.97,1.65,35.01-7.8h-174.46l-20.52,6.16Z" fill="#732a09" stroke-width="0"></path><polygon points="317.86 394.95 317.86 399.35 357.36 390.55 357.36 386.14 317.86 394.95" fill="#732a09" stroke-width="0"></polygon><path d="M317.86,399.85c-.11,0-.22-.04-.31-.11-.12-.09-.19-.24-.19-.39v-4.4c0-.23.16-.44.39-.49l39.5-8.8c.15-.03.3,0,.42.1.12.09.19.24.19.39v4.4c0,.23-.16.44-.39.49l-39.5,8.8s-.07.01-.11.01ZM318.36,395.35v3.38l38.5-8.58v-3.38l-38.5,8.58Z" fill="#732a09" stroke-width="0"></path><polygon points="154.54 393.27 154.54 397.67 317.86 399.35 317.86 394.95 154.54 393.27" fill="#f75454" stroke-width="0"></polygon><path d="M317.86,399.85h0l-163.31-1.68c-.27,0-.5-.23-.5-.5v-4.4c0-.13.05-.26.15-.36.1-.09.25-.17.36-.14l163.31,1.68c.27,0,.5.23.5.5v4.4c0,.13-.05.26-.15.36-.09.09-.22.14-.35.14ZM155.04,397.17l162.31,1.67v-3.4l-162.31-1.67v3.4Z" fill="#732a09" stroke-width="0"></path></g><g id="monitor"><path d="M176.45,406.3c5.26,2.03,17.12-6.29,17.12-6.29l-53.5-1.05,36.38,7.34Z" fill="#f65454" stroke-width="0"></path><path d="M178.36,407.12c-.75,0-1.44-.1-2.05-.33l-36.33-7.33.11-.99,55.03,1.08-1.25.88c-.44.31-9.62,6.7-15.5,6.7ZM145.62,399.57l31.01,6.26c3.96,1.54,12.13-3.3,15.33-5.35l-46.34-.91Z" fill="#732a09" stroke-width="0"></path><rect x="47.02" y="227.29" width="239.87" height="156.19" rx="5.23" ry="5.23" fill="#fff" stroke-width="0"></rect><path d="M281.66,383.98H52.25c-3.16,0-5.73-2.57-5.73-5.73v-145.73c0-3.16,2.57-5.73,5.73-5.73h229.4c3.16,0,5.73,2.57,5.73,5.73v145.73c0,3.16-2.57,5.73-5.73,5.73ZM52.25,227.79c-2.61,0-4.73,2.12-4.73,4.73v145.73c0,2.61,2.12,4.73,4.73,4.73h229.4c2.61,0,4.73-2.12,4.73-4.73v-145.73c0-2.61-2.12-4.73-4.73-4.73H52.25Z" fill="#732a09" stroke-width="0"></path><path d="M177.71,406.56l-5.76-6.77c-3.6-4.23-4.64-10.07-2.72-15.28l11.63-31.64c2.85-7.77-.21-16.47-7.31-20.73h0c-6.97-4.19-15.59-4.58-22.92-1.05h0c-9.47,4.57-16.61,12.88-19.7,22.94l-9.88,32.16c-1.37,4.47-.64,9.33,2,13.2l4.9,7.18h49.76Z" fill="#fff" stroke-width="0"></path><path d="M178.79,407.06h-51.11l-5.05-7.4c-2.74-4.01-3.49-8.98-2.06-13.63l9.88-32.16c3.12-10.15,10.4-18.62,19.96-23.24,7.5-3.62,16.25-3.22,23.39,1.07,7.29,4.38,10.45,13.35,7.52,21.34l-11.63,31.64c-1.85,5.03-.84,10.7,2.63,14.79l6.46,7.6ZM128.22,406.06h48.41l-5.06-5.95c-3.71-4.36-4.79-10.41-2.81-15.78l11.63-31.64c2.77-7.53-.22-16-7.1-20.13-6.85-4.12-15.24-4.5-22.44-1.03-9.32,4.5-16.41,12.75-19.44,22.63l-9.88,32.16c-1.34,4.35-.63,9.01,1.94,12.77l4.75,6.97Z" fill="#732a09" stroke-width="0"></path><ellipse cx="152.9" cy="357.76" rx="10.96" ry="6.67" transform="translate(-235.95 344.91) rotate(-64.97)" fill="#fff" stroke-width="0"></ellipse><path d="M150.09,368.58c-1.56,0-2.89-.66-3.84-1.91-1.56-2.04-1.91-5.42-.92-9.05,1.6-5.9,6.25-10.69,10.37-10.69,1.56,0,2.89.66,3.84,1.91,1.56,2.04,1.91,5.43.92,9.05h0c-1.6,5.89-6.26,10.69-10.37,10.69ZM155.7,347.93c-3.7,0-7.92,4.46-9.41,9.95-.9,3.32-.62,6.38.75,8.18.76.99,1.81,1.51,3.05,1.51,3.7,0,7.92-4.46,9.41-9.95.9-3.32.62-6.38-.75-8.18-.76-.99-1.81-1.51-3.04-1.51Z" fill="#732a09" stroke-width="0"></path></g><g id="sad"><path d="M118.72,156.4v28.43c0,4.12-3.35,7.46-7.47,7.46h-16.09l5.17,6.56c1,1.27-.42,3.04-1.88,2.32l-13.05-6.4c-3.33-1.64-6.99-2.48-10.69-2.48h-17.95c-4.12,0-7.46-3.34-7.46-7.46v-28.43c0-4.12,3.34-7.46,7.46-7.46h54.48c4.12,0,7.47,3.34,7.47,7.46Z" fill="#fff" stroke-width="0"></path><path d="M99.15,201.84c-.3,0-.62-.07-.91-.22l-13.05-6.4c-3.23-1.59-6.86-2.43-10.47-2.43h-17.95c-4.39,0-7.96-3.57-7.96-7.96v-28.43c0-4.39,3.57-7.96,7.96-7.96h54.48c4.4,0,7.97,3.57,7.97,7.96v28.43c0,4.39-3.58,7.96-7.97,7.96h-15.06l4.54,5.75c.6.76.59,1.78-.02,2.53-.4.5-.97.76-1.56.76ZM56.76,149.44c-3.84,0-6.96,3.12-6.96,6.96v28.43c0,3.84,3.12,6.96,6.96,6.96h17.95c3.77,0,7.54.88,10.92,2.54l13.05,6.4c.54.27,1,.03,1.25-.28.24-.29.39-.81.01-1.28l-5.17-6.56c-.12-.15-.14-.36-.06-.53.08-.17.26-.28.45-.28h16.09c3.84,0,6.97-3.12,6.97-6.96v-28.43c0-3.84-3.13-6.96-6.97-6.96h-54.48Z" fill="#732a09" stroke-width="0"></path><path d="M91.43,172.38c4.51-4.04,9.15-7.94,13.9-11.7.5-.4-.21-1.1-.71-.71-4.75,3.76-9.38,7.66-13.9,11.7-.48.43.23,1.14.71.71h0Z" fill="#732a09" stroke-width="0"></path><path d="M93.52,162.69c4.18,2.4,7.99,5.36,11.33,8.83.45.46,1.15-.24.71-.71-3.4-3.52-7.29-6.55-11.54-8.98-.56-.32-1.06.54-.5.86h0Z" fill="#732a09" stroke-width="0"></path><path d="M63.48,170.93c3.75-2.16,7.46-4.4,11.12-6.72.55-.35.07-1.14-.5-.86-.11.05-.22.11-.33.16-.58.28-.07,1.14.5.86.11-.05.22-.11.33-.16l-.5-.86c-3.66,2.31-7.36,4.55-11.12,6.72-.56.32-.05,1.19.5.86h0Z" fill="#732a09" stroke-width="0"></path><path d="M62.97,164.18c3.87,2.14,7.59,4.56,11.13,7.22.51.39,1.01-.48.5-.86-3.54-2.66-7.26-5.07-11.13-7.22-.56-.31-1.07.55-.5.86h0Z" fill="#732a09" stroke-width="0"></path><path d="M74.38,181.09c2.38-2.1,5.55-3.21,8.72-3.01s6.04,1.68,8.12,3.97c.43.48,1.14-.23.71-.71-2.26-2.49-5.46-4.05-8.82-4.27s-6.86,1.03-9.42,3.3c-.48.43.23,1.13.71.71h0Z" fill="#732a09" stroke-width="0"></path></g></svg>