<svg transform="scale(1)" id="_0256_personal_data" xmlns="http://www.w3.org/2000/svg" xmlns:xlink="http://www.w3.org/1999/xlink" viewBox="0 0 500 500" class="show_show__wrapper__graphic__5Waiy "><title>React</title><defs><style>.cls-1{fill:url(#linear-gradient);}.cls-1,.cls-2,.cls-3,.cls-4,.cls-5,.cls-6,.cls-7,.cls-8,.cls-9,.cls-10,.cls-11,.cls-12,.cls-13,.cls-14,.cls-15,.cls-16,.cls-17,.cls-18{stroke-width:0px;}.cls-2{fill:url(#linear-gradient-11);}.cls-3{fill:url(#linear-gradient-12);}.cls-4{fill:url(#linear-gradient-13);}.cls-5{fill:url(#linear-gradient-10);}.cls-6{fill:url(#linear-gradient-14);}.cls-7{fill:url(#linear-gradient-4);}.cls-8{fill:url(#linear-gradient-2);}.cls-9{fill:url(#linear-gradient-3);}.cls-10{fill:url(#linear-gradient-8);}.cls-11{fill:url(#linear-gradient-9);}.cls-12{fill:url(#linear-gradient-7);}.cls-13{fill:url(#linear-gradient-5);}.cls-14{fill:url(#linear-gradient-6);}.cls-15{isolation:isolate;opacity:.24;}.cls-15,.cls-18{fill:#68e1fd;}.cls-16{fill:#606161;}.cls-17{fill:#fff;}</style><linearGradient id="linear-gradient" x1="303.62" y1="1920.61" x2="302.56" y2="1987.67" gradientTransform="translate(-496.41 1709.64) rotate(15.71) scale(1 -.89) skewX(-.1)" gradientUnits="userSpaceOnUse"><stop offset="0" stop-color="#231f20" stop-opacity="0"></stop><stop offset="1" stop-color="#231f20"></stop></linearGradient><linearGradient id="linear-gradient-2" x1="952.91" y1="1348.52" x2="495.54" y2="1878.18" gradientTransform="translate(-471 1884.69) scale(1 -1)" xlink:href="#linear-gradient"></linearGradient><linearGradient id="linear-gradient-3" x1="888.81" y1="1631.52" x2="612.19" y2="1603.23" gradientTransform="translate(-471 1884.69) scale(1 -1)" xlink:href="#linear-gradient"></linearGradient><linearGradient id="linear-gradient-4" x1="711.22" y1="1720.32" x2="748.94" y2="1926.21" gradientTransform="translate(-475.14 1880.39) scale(1 -1)" xlink:href="#linear-gradient"></linearGradient><linearGradient id="linear-gradient-5" x1="751.27" y1="1800" x2="736.73" y2="1772.89" gradientTransform="translate(-471 1884.69) scale(1 -1)" xlink:href="#linear-gradient"></linearGradient><linearGradient id="linear-gradient-6" x1="708.4" y1="1733.87" x2="707.35" y2="1800.92" gradientTransform="translate(-475.14 1880.39) scale(1 -1)" xlink:href="#linear-gradient"></linearGradient><linearGradient id="linear-gradient-7" x1="-775.93" y1="1681.84" x2="-772.19" y2="1681.84" gradientTransform="translate(-559.22 1880.39) rotate(-180)" gradientUnits="userSpaceOnUse"><stop offset="0" stop-color="#68e1fd"></stop><stop offset=".42" stop-color="#68e1fd"></stop><stop offset="1" stop-color="#68e1fd"></stop></linearGradient><linearGradient id="linear-gradient-8" x1="190.85" y1="1683.77" x2="194.59" y2="1683.77" gradientTransform="translate(-4.6 1880.39) scale(1 -1)" xlink:href="#linear-gradient-7"></linearGradient><linearGradient id="linear-gradient-9" x1="-766.42" y1="1712.05" x2="-762.77" y2="1702.38" gradientTransform="translate(-559.22 1880.39) rotate(-180)" xlink:href="#linear-gradient"></linearGradient><linearGradient id="linear-gradient-10" x1="-770.09" y1="1665.54" x2="-753.98" y2="1665.54" xlink:href="#linear-gradient-7"></linearGradient><linearGradient id="linear-gradient-11" x1="-763.64" y1="1659.8" x2="-756.19" y2="1696.56" gradientTransform="translate(-559.22 1880.39) rotate(-180)" gradientUnits="userSpaceOnUse"><stop offset=".12" stop-color="#010101" stop-opacity="0"></stop><stop offset=".95" stop-color="#010101"></stop></linearGradient><linearGradient id="linear-gradient-12" x1="-773.49" y1="1685.6" x2="-747.96" y2="1685.6" xlink:href="#linear-gradient-7"></linearGradient><linearGradient id="linear-gradient-13" x1="-745.64" y1="1683.64" x2="-753.2" y2="1685.22" xlink:href="#linear-gradient-11"></linearGradient><linearGradient id="linear-gradient-14" x1="209.05" y1="1681.78" x2="201.49" y2="1683.34" gradientTransform="translate(7.28 1880.39) scale(1 -1)" xlink:href="#linear-gradient-11"></linearGradient></defs><g id="background"><path class="cls-15" d="M490.89,356.53c.75,47.76-36.99,93.17-84.04,101.18-22.02,3.76-44.49.14-66.85-.86-48.65-2.12-97.18,8.32-145.74,9.41-9.83.22-19.68,0-29.53-.69-32.4-2.45-64.05-11.04-93.25-25.29-12.46-6.07-24.61-13.33-33.68-23.77-19.46-22.36-21.33-55.1-16.83-84.36,4.5-29.26,14.4-57.86,14.9-87.48.36-20.68-3.88-41.13-4.97-61.79-1.09-20.65,1.42-42.55,13.58-59.27,12.16-16.72,32.39-25.88,52.66-29.87,20.27-3.99,41.07-3.46,61.71-4.75,42.7-2.62,84.51-13.03,126.96-18.22,63.31-7.76,165.12-10.27,172.13,72.59.54,6.85.69,13.73.44,20.6-.62,22.89-4.13,45.86-1.22,68.57,5.44,42.68,33.06,80.98,33.74,123.99Z"></path><path class="cls-15" d="M490.89,356.53c.75,47.76-36.99,93.17-84.04,101.18-22.02,3.76-44.49.14-66.85-.86-48.65-2.12-97.18,8.32-145.74,9.41-11.89-11.22-23.76-22.44-34.92-34.33-3.42-3.7-7.03-7.81-7.7-12.83-.48-3.74.73-7.49,1.92-11.05,20.78-60.9,49.73-118.69,86.08-171.79,16.97-24.81,35.51-48.42,54.48-71.7,12.89-15.79,29.58-46.52,52.47-48.03,18.65-1.23,40.28,15.88,56.47,23.19,18.34,8.29,36.84,16.26,55.32,24.28-.62,22.89-4.13,45.86-1.22,68.57,5.44,42.67,33.06,80.96,33.74,123.97Z"></path></g><g id="CV"><path class="cls-1" d="M277.08,125.17l-10.68-3.35,2.92-25.13h.86c1.06-.86,4.16-4.56,3.33-7.31-.74-2.52-4.75-3.52-7.99-3.94-4.6-.58-7.61-.06-8.72,1.5-1.48,2.1.47,6.06,1.35,7.4l.23.35-1.61,24.29-11.85-3.27.67-2.4,8.58,2.4,1.35-20.53c-.86-1.39-3.42-6.35-1.12-9.66,1.71-2.43,5.51-3.29,11.31-2.57,9.06,1.15,10.8,4.9,10.67,7.85s-2.62,6.55-4.49,7.9l-2.49,21.39,8.45,2.65-.77,2.44Z"></path><polygon class="cls-18" points="364.38 423.81 149.57 423.81 136.21 412.8 149.57 123.08 351.01 112.08 364.38 123.08 364.38 423.81"></polygon><polygon class="cls-8" points="364.38 423.81 149.57 423.81 136.21 412.8 149.57 123.08 351.01 112.08 364.38 123.08 364.38 423.81"></polygon><polygon class="cls-9" points="357.3 418.56 146.17 419.09 136.21 412.8 143.29 122.04 344.72 111.04 358.09 122.04 357.3 418.56"></polygon><rect class="cls-17" x="136.21" y="112.08" width="214.8" height="300.72"></rect><path class="cls-7" d="M203.9,133.01c-.11.76-.16,1.71.45,2.14.34.2.72.31,1.11.31,19.79,1.71,39.72.61,59.2-3.29,3.21-.64,7.09-2.11,7.32-5.37.21-2.89-2.57-6.43-.33-8.24.84-.5,1.8-.77,2.78-.78,3.6-.53,6.77-2.63,8.65-5.75l-56.17-.45c-5.46-.04-15.4-2.34-19.3,2.57-3.02,3.76-3.72,14.4-3.72,18.86Z"></path><polygon class="cls-18" points="266.14 125.31 207.99 125.31 204.06 89.16 262.6 88.77 266.14 125.31"></polygon><polygon class="cls-18" points="262.6 88.77 284.22 99.51 281.07 112.08 265.09 112.08 262.6 88.77"></polygon><polygon class="cls-13" points="262.6 88.77 284.22 99.51 281.07 112.08 265.09 112.08 262.6 88.77"></polygon><path class="cls-14" d="M249.59,124.74l-11.19-.44-3.87-27.94.8-.21c.8-1.25,2.8-6.14,1.27-8.86-1.39-2.48-5.52-2.39-8.74-1.87-4.59.74-7.37,2.19-8.01,4.2-.86,2.7,2.06,6.38,3.26,7.57l.32.31,4.9,26.64h-12.29v-2.79h8.94l-4.14-22.5c-1.16-1.26-5-5.81-3.64-10.08.99-3.12,4.43-5.18,10.27-6.11,9.03-1.45,11.7,2.07,12.37,5.29.67,3.22-.79,7.84-2.23,9.84l3.29,23.8,8.85.35-.15,2.79Z"></path><rect class="cls-18" x="168.7" y="157.92" width="66.01" height="83.3"></rect><path class="cls-18" d="M258.55,169.45h63.4c1.88,0,3.41,1.52,3.41,3.41h0c0,1.88-1.52,3.41-3.41,3.41h-63.4c-1.88,0-3.41-1.52-3.41-3.41h0c0-1.88,1.52-3.41,3.41-3.41Z"></path><rect class="cls-18" x="255.14" y="184.38" width="70.21" height="6.81" rx="3.41" ry="3.41"></rect><rect class="cls-18" x="255.14" y="206.12" width="70.21" height="6.81" rx="3.41" ry="3.41"></rect><rect class="cls-18" x="255.14" y="221.05" width="70.21" height="6.81" rx="3.41" ry="3.41"></rect><path class="cls-18" d="M218.46,290.21h63.4c1.88,0,3.41,1.52,3.41,3.41h0c0,1.88-1.52,3.41-3.41,3.41h-63.4c-1.88,0-3.41-1.52-3.41-3.41h0c0-1.88,1.52-3.41,3.41-3.41Z"></path><path class="cls-18" d="M218.46,305.14h63.4c1.88,0,3.41,1.52,3.41,3.41h0c0,1.88-1.52,3.41-3.41,3.41h-63.4c-1.88,0-3.41-1.52-3.41-3.41h0c0-1.88,1.52-3.41,3.41-3.41Z"></path><path class="cls-18" d="M218.46,340.5h63.4c1.88,0,3.41,1.52,3.41,3.41h0c0,1.88-1.52,3.41-3.41,3.41h-63.4c-1.88,0-3.41-1.52-3.41-3.41h0c0-1.88,1.52-3.41,3.41-3.41Z"></path><path class="cls-18" d="M218.46,355.43h63.4c1.88,0,3.41,1.52,3.41,3.41h0c0,1.88-1.52,3.41-3.41,3.41h-63.4c-1.88,0-3.41-1.52-3.41-3.41h0c0-1.88,1.52-3.41,3.41-3.41Z"></path><rect class="cls-18" x="167.12" y="252.49" width="158.22" height="6.81" rx="3.41" ry="3.41"></rect><rect class="cls-18" x="167.12" y="267.42" width="158.22" height="6.81" rx="3.41" ry="3.41"></rect><rect class="cls-18" x="174.98" y="286.02" width="27.51" height="24.36"></rect><rect class="cls-18" x="174.98" y="339.46" width="27.51" height="24.36"></rect><path class="cls-17" d="M182.46,226.53c-3.98,2.92-7.55,8.16-6.84,13.06,19.48-.96,37.97.16,54.9-.09-.34-4.45-2.13-10.1-5.23-13.31-1.61-1.49-3.47-2.69-5.49-3.55-4.12-2.03-8.31-4.05-12.83-4.99-9.03-1.91-17.39,3.68-24.5,8.88Z"></path><path class="cls-12" d="M216.68,196.78c.15,1.45-.33,2.89-1.32,3.95-.23.27-.52.48-.86.6-1.71.56-1.79-2.9-1.3-3.88.58-1.12,3.22-2.89,3.47-.67Z"></path><path class="cls-10" d="M186.29,194.84c-.15,1.44.32,2.88,1.31,3.95.23.27.53.47.86.6,1.71.56,1.79-2.91,1.29-3.88-.56-1.1-3.2-2.89-3.46-.67Z"></path><path class="cls-16" d="M199.32,167.98c1.59-1.96,3.89-3.21,6.4-3.48,2.43-.26,5.13.58,6.43,2.64.84,1.57,1.22,3.35,1.11,5.13.15,1.65-.11,3.31-.75,4.84-.79,1.44-2.08,2.54-3.62,3.11-3.56,1.4-7.76.27-10.51-2.27s-1.21-7.35.94-9.97Z"></path><path class="cls-11" d="M199.32,167.98c1.59-1.96,3.89-3.21,6.4-3.48,2.43-.26,5.13.58,6.43,2.64.84,1.57,1.22,3.35,1.11,5.13.15,1.65-.11,3.31-.75,4.84-.79,1.44-2.08,2.54-3.62,3.11-3.56,1.4-7.76.27-10.51-2.27s-1.21-7.35.94-9.97Z"></path><path class="cls-5" d="M207.87,206.45s.1,11.31,2.68,13.69c2.58,2.38-10.32,13.49-15.78,1.09,0,0,3.17-5.36,2.09-14.38-1.09-9.03,11.01-.39,11.01-.39Z"></path><path class="cls-2" d="M208.25,209.12v2.48s-6.54,9.41-9.22,6.25c-2.68-3.16-1.89-3.87-1.89-3.87l-.29-7.14,11.4,2.28Z"></path><path class="cls-3" d="M214.11,190.28s1.88,17.26-7.35,20.69c-9.23,3.42-14.73-1.49-17.26-9.82s1.34-25.15,11.12-23.52c9.78,1.63,13.49,12.65,13.49,12.65Z"></path><path class="cls-16" d="M215.57,196.08c.42-.6.69-1.29.8-2.01,1.22-6.59-1.16-13.34-6.25-17.71-1.02-.89-2.19-1.59-3.46-2.04-1.27-.38-2.6-.52-3.92-.43-4.17.13-8.19,1.58-11.48,4.13-3.29,2.61-5.33,6.49-5.63,10.68-.11,1.23.09,2.46.58,3.59.51,1.14,1.53,1.97,2.75,2.24,2.13.37,2.71-1.6,4.44-2.91,2.57-1.98,3.42-4.91,9.33-4.41,9.6.8,10.28,12.03,12.85,8.87Z"></path><path class="cls-4" d="M188,196.08c-.11-.1-.2-.23-.27-.37-.04-.16-.06-.33-.07-.5-.02-.16-.1-.32-.22-.43-.13-.11-.31-.14-.47-.09-.14.06-.24.18-.28.33-.04.14-.06.29-.06.44-.06.57.03,1.14.25,1.67.21.36.48.69.8.96.11.14.27.22.44.24.11,0,.22-.05.31-.11.04-.02.08-.05.11-.09,0-.04,0-.09,0-.13.07-.39.07-.79,0-1.18-.1-.3-.29-.56-.54-.74Z"></path><path class="cls-6" d="M214.72,197.93c.11-.1.2-.23.27-.37.04-.16.06-.32.07-.49.02-.17.1-.32.23-.43.12-.12.3-.15.46-.09.13.07.24.18.28.33.04.15.06.29.06.44.06.57-.03,1.14-.25,1.67-.21.36-.48.68-.8.95-.11.13-.27.22-.44.25-.11-.01-.22-.05-.31-.12-.05-.02-.08-.05-.11-.09,0-.04,0-.09,0-.13-.07-.39-.07-.78,0-1.17.1-.3.29-.56.54-.75Z"></path></g></svg>